<svg width="22" height="22" viewBox="0 0 22 22" fill="none" xmlns="http://www.w3.org/2000/svg">
<path d="M11 3.58701C11.263 3.58701 11.4783 3.37179 11.4783 3.10875V2.86962C11.4783 2.60657 11.263 2.39136 11 2.39136C10.7369 2.39136 10.5217 2.60657 10.5217 2.86962V3.10875C10.5217 3.37179 10.7369 3.58701 11 3.58701Z" fill="#D86800"/>
<path d="M11 18.4131C10.7369 18.4131 10.5217 18.6283 10.5217 18.8913V19.1305C10.5217 19.3935 10.7369 19.6087 11 19.6087C11.263 19.6087 11.4783 19.3935 11.4783 19.1305V18.8913C11.4783 18.6283 11.263 18.4131 11 18.4131Z" fill="#D86800"/>
<path d="M3.10875 10.5217H2.86962C2.60657 10.5217 2.39136 10.7369 2.39136 11C2.39136 11.263 2.60657 11.4783 2.86962 11.4783H3.10875C3.37179 11.4783 3.58701 11.263 3.58701 11C3.58701 10.7369 3.37179 10.5217 3.10875 10.5217Z" fill="#D86800"/>
<path d="M19.1302 10.5217H18.8911C18.6281 10.5217 18.4128 10.7369 18.4128 11C18.4128 11.263 18.6281 11.4783 18.8911 11.4783H19.1302C19.3933 11.4783 19.6085 11.263 19.6085 11C19.6085 10.7369 19.3933 10.5217 19.1302 10.5217Z" fill="#D86800"/>
<path d="M5.59551 4.92607C5.40421 4.73477 5.11725 4.73477 4.92595 4.92607C4.73464 5.11738 4.73464 5.40433 4.92595 5.59564L5.09334 5.76303C5.18899 5.85868 5.30856 5.90651 5.42812 5.90651C5.54769 5.90651 5.66725 5.85868 5.76291 5.76303C5.95421 5.57172 5.95421 5.28477 5.76291 5.09346L5.59551 4.92607Z" fill="#D86800"/>
<path d="M5.09334 16.237L4.92595 16.4044C4.73464 16.5957 4.73464 16.8826 4.92595 17.0739C5.0216 17.1696 5.14117 17.2174 5.26073 17.2174C5.3803 17.2174 5.49986 17.1696 5.59551 17.0739L5.76291 16.9065C5.95421 16.7152 5.95421 16.4283 5.76291 16.237C5.5716 16.0457 5.28464 16.0457 5.09334 16.237Z" fill="#D86800"/>
<path d="M16.4044 4.92607L16.237 5.09346C16.0457 5.28477 16.0457 5.57172 16.237 5.76303C16.3326 5.85868 16.4522 5.90651 16.5718 5.90651C16.6913 5.90651 16.8109 5.85868 16.9065 5.76303L17.0739 5.59564C17.2652 5.40433 17.2652 5.11738 17.0739 4.92607C16.8826 4.73477 16.5957 4.73477 16.4044 4.92607Z" fill="#D86800"/>
<path d="M11.4783 10.8087V6.45653C11.4783 6.19349 11.263 5.97827 11 5.97827C10.7369 5.97827 10.5217 6.19349 10.5217 6.45653V11C10.5217 11.1196 10.5696 11.2391 10.6652 11.3348L15.9022 16.5717C15.9978 16.6674 16.1174 16.7152 16.2369 16.7152C16.3565 16.7152 16.4761 16.6674 16.5717 16.5717C16.763 16.3804 16.763 16.0935 16.5717 15.9022L11.4783 10.8087Z" fill="#D86800"/>
<path d="M11 0C4.92609 0 0 4.92609 0 11C0 17.0739 4.92609 22 11 22C17.0739 22 22 17.0739 22 11C22 4.92609 17.0739 0 11 0ZM11 21.0435C5.45217 21.0435 0.956522 16.5478 0.956522 11C0.956522 5.45217 5.45217 0.956522 11 0.956522C16.5478 0.956522 21.0435 5.45217 21.0435 11C21.0435 16.5478 16.5478 21.0435 11 21.0435Z" fill="#D86800"/>
</svg>
