<svg width="16" height="16" viewBox="0 0 16 16" fill="none" xmlns="http://www.w3.org/2000/svg">
<g clip-path="url(#clip0)">
<path d="M14.0257 1.07106H13.0236V0.712719C13.0236 0.319719 12.7039 0 12.3109 0H12.2033C11.8103 0 11.4906 0.319719 11.4906 0.712719V1.07106H4.50931V0.712719C4.50931 0.319719 4.18959 0 3.79659 0H3.68897C3.29597 0 2.97625 0.319719 2.97625 0.712719V1.07106H1.97422C1.32719 1.07106 0.800781 1.59747 0.800781 2.2445V14.8281C0.800781 15.4743 1.32647 16 1.97266 16H14.0273C14.6735 16 15.1992 15.4743 15.1992 14.8281V2.2445C15.1991 1.59747 14.6727 1.07106 14.0257 1.07106ZM11.9593 0.712719C11.9593 0.578188 12.0687 0.46875 12.2033 0.46875H12.3109C12.4454 0.46875 12.5549 0.578188 12.5549 0.712719V1.07106H11.9593V0.712719ZM3.44503 0.712719C3.44503 0.578188 3.55447 0.46875 3.689 0.46875H3.79663C3.93116 0.46875 4.04059 0.578188 4.04059 0.712719V1.07106H3.44506L3.44503 0.712719ZM14.7304 14.8281C14.7304 15.2158 14.415 15.5313 14.0273 15.5313H1.97263C1.58491 15.5313 1.2695 15.2158 1.2695 14.8281V14.8267C1.46588 14.9746 1.70997 15.0625 1.97422 15.0625H11.4768C11.7903 15.0625 12.0849 14.9404 12.3066 14.7188L14.7304 12.295V14.8281ZM12.0674 14.295C12.0858 14.2192 12.0958 14.1401 12.0958 14.0587V12.4942C12.0958 12.1992 12.3358 11.9592 12.6308 11.9592H14.1953C14.2767 11.9592 14.3558 11.9492 14.4317 11.9308L12.0674 14.295ZM14.7304 4.42044H4.74369C4.61425 4.42044 4.50931 4.52537 4.50931 4.65481C4.50931 4.78425 4.61425 4.88919 4.74369 4.88919H14.7304V10.9554C14.7304 11.2504 14.4903 11.4904 14.1953 11.4904H12.6308C12.0773 11.4904 11.627 11.9407 11.627 12.4942V14.0587C11.627 14.3538 11.387 14.5938 11.092 14.5938H1.97422C1.58566 14.5938 1.26953 14.2777 1.26953 13.8891V4.88919H3.80619C3.93563 4.88919 4.04056 4.78425 4.04056 4.65481C4.04056 4.52537 3.93563 4.42044 3.80619 4.42044H1.2695V2.2445C1.2695 1.85594 1.58562 1.53981 1.97419 1.53981H2.97625V2.22894C2.97625 2.62194 3.29597 2.94166 3.68897 2.94166C3.81841 2.94166 3.92334 2.83672 3.92334 2.70728C3.92334 2.57784 3.81841 2.47291 3.68897 2.47291C3.55444 2.47291 3.445 2.36347 3.445 2.22894V1.53981H11.4906V2.22894C11.4906 2.62194 11.8103 2.94166 12.2033 2.94166C12.3327 2.94166 12.4377 2.83672 12.4377 2.70728C12.4377 2.57784 12.3327 2.47291 12.2033 2.47291C12.0687 2.47291 11.9593 2.36347 11.9593 2.22894V1.53981H14.0257C14.4143 1.53981 14.7304 1.85594 14.7304 2.2445V4.42044Z" fill="#D13C74"/>
</g>
<defs>
<clipPath id="clip0">
<rect width="16" height="16" fill="white"/>
</clipPath>
</defs>
</svg>
