<svg width="34" height="34" viewBox="0 0 34 34" fill="none" xmlns="http://www.w3.org/2000/svg">
<circle cx="17" cy="17" r="16.5" fill="#D13C74" stroke="#D13C74"/>
<path d="M24.1403 9.8714C23.6983 9.4294 22.9843 9.4294 22.5423 9.8714L17.0003 15.4021L11.4583 9.86006C11.0163 9.41806 10.3023 9.41806 9.86031 9.86006C9.41831 10.3021 9.41831 11.0161 9.86031 11.4581L15.4023 17.0001L9.86031 22.5421C9.41831 22.9841 9.41831 23.6981 9.86031 24.1401C10.3023 24.5821 11.0163 24.5821 11.4583 24.1401L17.0003 18.5981L22.5423 24.1401C22.9843 24.5821 23.6983 24.5821 24.1403 24.1401C24.5823 23.6981 24.5823 22.9841 24.1403 22.5421L18.5983 17.0001L24.1403 11.4581C24.571 11.0274 24.571 10.3021 24.1403 9.8714Z" fill="white"/>
</svg>
