<svg width="47" height="47" viewBox="0 0 47 47" fill="none" xmlns="http://www.w3.org/2000/svg">
<g clip-path="url(#clip0)">
<path d="M35.5862 42.5953C35.3319 42.1571 34.7704 42.0078 34.3316 42.2621L34.2962 42.2825C33.8578 42.5368 33.7086 43.0985 33.9629 43.537C34.1332 43.8305 34.4412 43.9945 34.7577 43.9945C34.9139 43.9945 35.0726 43.9544 35.2175 43.8703L35.2528 43.8499C35.6913 43.5955 35.8404 43.0338 35.5862 42.5953Z" fill="white"/>
<path d="M43.8513 11.7582C40.7135 6.3234 35.6471 2.43589 29.5854 0.81164C23.5239 -0.812613 17.1924 0.020994 11.7576 3.1587C6.32287 6.29641 2.43527 11.3629 0.811112 17.4245C-0.813051 23.4861 0.020465 29.8176 3.15817 35.2523C5.97276 40.1274 10.4462 43.8324 15.7544 45.6847C18.2707 46.5626 20.8975 47.0008 23.5202 47.0008C26.3719 47.0008 29.2184 46.4825 31.909 45.4484C32.3823 45.2666 32.6184 44.7355 32.4364 44.2623C32.2545 43.7891 31.7233 43.5527 31.2503 43.7349C24.0883 46.4876 16.335 45.2369 10.5423 40.8889L11.3647 36.596L11.761 36.4673C13.2585 35.9808 14.081 34.3666 13.5947 32.869L13.3038 31.9741C13.2366 31.767 13.2369 31.5481 13.3048 31.3412C13.5599 30.5635 13.4687 29.7126 13.0546 29.0065C12.6405 28.3005 11.9424 27.8054 11.1391 27.6484L9.06723 27.2435L5.06966 24.2041C4.83016 24.022 4.51668 23.9689 4.23045 24.0618L1.89 24.822C1.84034 23.9849 1.8396 23.1481 1.88679 22.3157C1.97914 22.4017 2.03926 22.4602 2.07626 22.4986C2.12206 22.5748 2.17879 22.6448 2.24525 22.7054C2.43638 22.8794 2.6095 22.9584 2.97302 22.9584C3.30707 22.9583 3.80158 22.8917 4.61811 22.7711C5.39251 22.6566 6.16287 22.5277 6.17049 22.5264C6.4792 22.4747 6.74018 22.2691 6.863 21.9813C6.98583 21.6934 6.95342 21.3628 6.77708 21.1042L5.65156 19.4533L7.2637 18.3005C7.3711 18.2237 7.46069 18.1246 7.52633 18.0101L10.0253 13.6474L11.0326 12.5681C12.0619 11.4648 12.3557 9.85078 11.7808 8.45584C11.4417 7.63306 10.8495 6.94808 10.1087 6.48643C10.911 5.85569 11.7664 5.27333 12.6756 4.74853C16.0113 2.82263 19.6516 1.88934 23.2536 1.85363L21.6145 3.90978L15.5362 6.04066C15.2893 6.12714 15.091 6.31495 14.9913 6.55675L13.2938 10.6718C13.1733 10.9642 13.2116 11.2978 13.3953 11.5552L15.8745 15.028C15.5194 15.352 15.1738 15.8238 14.761 16.4097C14.58 16.6666 14.4091 16.9092 14.2909 17.0453C14.1882 17.1637 14.0854 17.2794 13.9835 17.3939C13.4503 17.9938 12.8989 18.6143 12.5072 19.443C11.646 21.266 11.8199 23.3849 12.9612 24.9728C14.0647 26.5081 15.8839 27.2885 17.8256 27.0601C18.1419 27.023 18.4368 26.9501 18.7222 26.8794C19.5092 26.6847 19.7585 26.6652 20.011 26.9015C20.1338 27.0165 20.1451 27.0383 20.1426 27.4283C20.1409 27.6765 20.1389 27.9853 20.2245 28.3379C20.3616 28.902 20.7158 29.2919 21.0004 29.6051C21.1418 29.7607 21.2881 29.9217 21.3332 30.0297C21.6195 30.7158 21.4949 31.0958 21.2217 31.9284C21.1983 31.9996 21.1744 32.0723 21.1505 32.1469C20.7354 33.4316 21.3139 34.7059 21.8243 35.83C21.9901 36.1951 22.1466 36.5397 22.2492 36.8443C23.0745 39.2933 23.6932 39.8542 24.1898 40.08C24.4498 40.1983 24.719 40.2501 24.9909 40.25C26.3141 40.25 27.6949 39.0213 28.3292 38.2424C28.7276 37.7533 28.8258 37.2636 28.8974 36.9059C28.9331 36.728 28.9612 36.5875 29.0148 36.4957C29.0969 36.3553 29.1935 36.2464 29.3159 36.1085C29.562 35.8314 29.8683 35.4866 30.0667 34.8616C30.2174 34.3868 30.3269 34.2704 30.6896 33.8841C30.7528 33.817 30.8201 33.7452 30.8923 33.6666C32.1149 32.3362 31.8001 31.32 31.4666 30.2439C31.186 29.3385 31.6768 28.7595 32.8636 27.6543C33.378 27.1752 33.9099 26.6799 34.321 26.0847C34.5009 25.8242 35.0483 25.0317 34.7096 24.2462C34.3776 23.476 33.5337 23.3466 32.8557 23.2427C32.5879 23.2015 32.1832 23.1395 32.0545 23.0553C31.4865 22.684 31.1391 21.909 30.803 21.1595C30.7361 21.0103 30.6701 20.8631 30.6031 20.7202C30.4838 20.4652 30.3646 20.1566 30.2383 19.83C29.9044 18.9657 29.5259 17.9859 28.8816 17.3029C28.3024 16.6893 27.2107 16.3937 26.2475 16.1328C25.9235 16.0451 25.6178 15.9623 25.4161 15.8879C25.2471 15.8255 25.0637 15.8142 24.8887 15.8553C24.4199 15.9652 24.1274 16.0863 23.9102 16.2603C23.8529 16.3063 23.6829 16.4573 23.5834 16.7C23.2474 16.5387 22.7853 16.2308 22.5009 16.0412C22.495 16.0372 22.489 16.0333 22.4832 16.0294C22.579 15.6458 22.4922 15.338 22.4014 15.1458C21.8886 14.0611 20.1864 14.1461 19.8506 14.1746C19.6599 14.1906 19.4185 14.1991 19.1632 14.2081C18.7623 14.2223 18.3191 14.2383 17.8806 14.2875L17.9031 14.2245C18.236 13.2971 19.1217 12.674 20.107 12.674L20.6289 12.674C21.1357 12.674 21.5467 12.2629 21.5467 11.7561C21.5467 11.2493 21.1357 10.8382 20.6289 10.8382L20.107 10.8382C18.6441 10.8382 17.3045 11.6081 16.5537 12.82L15.1846 10.902L16.5316 7.63692L22.4711 5.5546C22.634 5.4975 22.7776 5.39561 22.8852 5.26057L25.5256 1.94864C32.2721 2.59039 38.6226 6.37297 42.2616 12.6759C43.2309 14.3548 43.9479 16.1223 44.4246 17.93L44.0355 18.277C43.5276 18.7302 43.23 19.3802 43.2186 20.0605C43.2185 20.068 43.2183 20.0753 43.2181 20.0826L42.5841 18.3392C42.4897 18.0791 42.3505 17.8405 42.1707 17.6302L41.0399 16.3062C40.6015 15.793 39.9631 15.4988 39.2883 15.4988L37.9041 15.4988C37.4127 15.4988 36.9637 15.7679 36.7319 16.2009C36.5001 16.634 36.5254 17.1571 36.798 17.5658L36.938 17.7761C36.0436 18.5452 35.009 19.1607 33.9075 19.5758L32.01 15.9413L32.01 15.1305C32.01 14.8797 31.9074 14.6396 31.7259 14.4666L30.0173 12.8355C29.923 12.7455 29.8107 12.6767 29.6877 12.6334L28.1497 12.0929C27.6712 11.9246 27.1474 12.1764 26.9794 12.6545C26.8113 13.1329 27.0627 13.6568 27.541 13.8249L28.8926 14.2999L30.1743 15.5233L30.1743 16.1666C30.1743 16.3145 30.2101 16.4602 30.2786 16.5914L32.654 21.1415C32.8676 21.5509 33.3525 21.738 33.7852 21.5779L34.4769 21.3229C36.0838 20.7303 37.5732 19.777 38.7842 18.5662C39.0935 18.2567 39.1416 17.7721 38.8988 17.408L38.85 17.3346L39.2883 17.3346C39.4254 17.3346 39.5551 17.3944 39.6441 17.4987L40.775 18.8226C40.8114 18.8653 40.8396 18.9136 40.8589 18.9666L42.1069 22.3982C42.2141 22.6931 42.4645 22.9126 42.7705 22.9806C42.8366 22.9952 42.9032 23.0023 42.9694 23.0023C43.2102 23.0023 43.4445 22.9075 43.6184 22.7335L44.2124 22.1394C44.5886 21.7632 44.8475 21.2871 44.9713 20.7594C45.89 28.1219 43.0031 35.7381 36.901 40.5275C36.5021 40.8405 36.4325 41.4174 36.7456 41.8163C37.0586 42.2151 37.6354 42.2847 38.0344 41.9716C42.4399 38.5139 45.4664 33.5683 46.5565 28.0459C47.6568 22.4703 46.6961 16.6857 43.8513 11.7582ZM4.34079 25.9562L8.12585 28.8341C8.23775 28.9192 8.36755 28.9774 8.50543 29.0043L10.7868 29.4501C11.0779 29.507 11.3208 29.6792 11.4709 29.9351C11.621 30.1909 11.6526 30.487 11.5603 30.7689C11.3702 31.3484 11.3693 31.9613 11.5578 32.5412L11.8486 33.4361C12.0224 33.9709 11.7284 34.5474 11.1937 34.7212L10.2815 35.0176C9.96326 35.121 9.72661 35.3894 9.66373 35.7178L8.92954 39.5503C7.31547 38.073 5.89831 36.327 4.748 34.3346C3.34461 31.9041 2.46777 29.3116 2.0813 26.6903L4.34079 25.9562ZM9.69044 11.3156L8.61063 12.4725C8.56244 12.5242 8.5203 12.5813 8.48515 12.6426L6.03307 16.9236L3.85372 18.482C3.44779 18.7722 3.3481 19.3334 3.62918 19.7458L4.44425 20.9413C3.97443 21.0113 3.55281 21.0689 3.27246 21.0995C3.21858 21.0478 3.16221 20.9954 3.10392 20.9412C2.88572 20.7385 2.58252 20.4678 2.13051 20.0723C2.87599 15.4583 5.09931 11.1115 8.59604 7.79352C9.2656 8.00438 9.8151 8.50385 10.0835 9.15533C10.3855 9.88805 10.2311 10.7361 9.69044 11.3156ZM17.1746 16.3316C17.5841 16.1012 18.5343 16.0675 19.2281 16.0429C19.5062 16.0331 19.7689 16.0238 20.0035 16.0041C20.1274 15.9937 20.2649 15.9957 20.3946 16.0058C20.3367 16.1545 20.3179 16.3177 20.343 16.4796C20.3872 16.7645 20.5628 17.0119 20.8169 17.1478C20.9891 17.24 21.2288 17.3998 21.4825 17.569C22.1999 18.0472 23.0131 18.5893 23.777 18.6379C24.4718 18.683 24.8583 18.2871 25.0239 18.1185C25.0371 18.1051 25.0496 18.0917 25.0628 18.0795C25.1561 18.0034 25.2435 17.9016 25.3085 17.7786C25.4553 17.8206 25.6095 17.8624 25.7676 17.9052C26.3111 18.0524 27.3228 18.3263 27.5463 18.5631C27.9433 18.984 28.2528 19.7851 28.5259 20.4919C28.6638 20.8491 28.7942 21.1861 28.9404 21.4987C29.0032 21.6328 29.065 21.771 29.1278 21.9109C29.5513 22.8556 30.0314 23.9265 31.0499 24.5923C31.5118 24.8942 32.0779 24.9809 32.5774 25.0576C32.6378 25.0668 32.707 25.0775 32.7774 25.0891C32.4809 25.5027 32.0587 25.8958 31.6126 26.3112C30.4763 27.3694 29.0621 28.6865 29.7134 30.7876C30.0208 31.7798 30.0351 31.887 29.5408 32.4247C29.4734 32.4981 29.4106 32.5649 29.3518 32.6275C28.9284 33.0782 28.594 33.4342 28.3171 34.3063C28.2367 34.5596 28.1325 34.6769 27.9433 34.8898C27.792 35.0602 27.6036 35.2724 27.4298 35.5699C27.2216 35.9262 27.1528 36.2694 27.0976 36.545C27.0432 36.8163 27.0123 36.9524 26.9058 37.0831C26.6634 37.3807 26.2112 37.8129 25.747 38.1079C25.3156 38.3818 25.0637 38.4192 24.9778 38.4141C24.8799 38.3091 24.5251 37.8493 23.989 36.2582C23.8568 35.8656 23.6734 35.4617 23.496 35.0711C23.1051 34.2101 22.7009 33.3197 22.8975 32.7111C22.9208 32.6394 22.9437 32.5692 22.9663 32.5006C23.2804 31.5432 23.5769 30.6391 23.0276 29.3227C22.8604 28.9219 22.5941 28.6289 22.3593 28.3704C22.2074 28.2033 22.0353 28.0138 22.0088 27.9047C21.9764 27.7717 21.9775 27.6182 21.9786 27.4403C21.9818 26.9607 21.9865 26.236 21.266 25.5613C20.2502 24.6104 19.0657 24.9034 18.2817 25.0972C18.0409 25.1567 17.8135 25.2131 17.6119 25.2368C16.3223 25.3879 15.171 24.9013 14.4522 23.9011C13.7003 22.8549 13.5912 21.447 14.1675 20.227C14.4464 19.6367 14.8679 19.1624 15.3559 18.6134C15.4624 18.4935 15.57 18.3725 15.6776 18.2485C15.8566 18.0422 16.0536 17.7628 16.2619 17.4669C16.5106 17.1139 16.9736 16.4567 17.1746 16.3316Z" fill="white"/>
<path d="M37.6386 31.6036L37.197 29.939C37.1005 29.5755 36.7921 29.3076 36.4188 29.263C36.045 29.2193 35.6825 29.4062 35.503 29.7368C35.4024 29.9222 35.3118 30.1186 35.2242 30.3086C35.0769 30.6281 34.9245 30.9586 34.766 31.141C34.6769 31.2434 34.4482 31.3539 34.2271 31.4605C33.6986 31.7155 32.9748 32.0648 32.6983 32.9463C32.5267 33.493 32.5907 33.9255 32.6376 34.2413C32.678 34.5152 32.6874 34.6101 32.6141 34.7823L32.6049 34.8037C32.3127 35.4893 31.7691 36.7657 32.5313 37.8509C33.0752 38.6253 33.6471 38.8244 34.0915 38.8244C34.1783 38.8247 34.2603 38.817 34.3363 38.8046C35.2726 38.6516 35.9765 37.6776 36.5517 35.7393L37.6314 32.1003C37.6794 31.9385 37.682 31.7667 37.6386 31.6036ZM34.7918 35.217C34.4986 36.2053 34.2392 36.6667 34.0895 36.8712C34.0722 36.8492 34.0535 36.8242 34.0335 36.7957C33.8581 36.5458 34.1203 35.9304 34.2938 35.5231L34.303 35.5016C34.5828 34.8449 34.508 34.3406 34.4536 33.9723C34.4186 33.7364 34.4061 33.6351 34.4499 33.4958C34.4859 33.3814 34.701 33.2703 35.025 33.1139C35.1687 33.0445 35.3268 32.9682 35.4865 32.8758L34.7918 35.217Z" fill="white"/>
<path d="M24.7878 10.9109L24.7259 10.8892C24.2479 10.7218 23.7237 10.9732 23.5559 11.4516C23.3881 11.93 23.6399 12.4537 24.1182 12.6215L24.1801 12.6432C24.2806 12.6785 24.3831 12.6952 24.484 12.6952C24.8629 12.6952 25.2176 12.4586 25.3502 12.0809C25.518 11.6024 25.2662 11.0786 24.7878 10.9109Z" fill="white"/>
</g>
<defs>
<clipPath id="clip0">
<rect width="47" height="47" fill="white"/>
</clipPath>
</defs>
</svg>
