<svg width="52" height="52" viewBox="0 0 52 52" fill="none" xmlns="http://www.w3.org/2000/svg">
<g clip-path="url(#clip0)">
<path d="M47.994 32.6661C47.2786 32.6661 46.6989 33.2458 46.6989 33.9611V45.4599C46.6964 47.6049 44.9586 49.3431 42.8137 49.3452H6.47535C4.33039 49.3431 2.59267 47.6049 2.59014 45.4599V11.7117C2.59267 9.56729 4.33039 7.82906 6.47535 7.82653H17.9741C18.6895 7.82653 19.2692 7.24678 19.2692 6.53146C19.2692 5.81664 18.6895 5.23639 17.9741 5.23639H6.47535C2.90075 5.24044 0.00404709 8.13714 0 11.7117V45.4604C0.00404709 49.035 2.90075 51.9318 6.47535 51.9358H42.8137C46.3883 51.9318 49.285 49.035 49.289 45.4604V33.9611C49.289 33.2458 48.7093 32.6661 47.994 32.6661Z" fill="#D13C74"/>
<path d="M48.7762 1.90413C46.5002 -0.371852 42.8103 -0.371852 40.5343 1.90413L17.4295 25.009C17.2711 25.1673 17.1568 25.3636 17.0971 25.5791L14.0587 36.5482C13.9338 36.998 14.0608 37.4796 14.3906 37.8099C14.7209 38.1398 15.2025 38.2667 15.6523 38.1423L26.6214 35.1034C26.8369 35.0437 27.0332 34.9294 27.1915 34.7711L50.2959 11.6657C52.5683 9.38821 52.5683 5.70131 50.2959 3.42381L48.7762 1.90413ZM20.2513 25.8508L39.1608 6.94074L45.2593 13.0392L26.3492 31.9492L20.2513 25.8508ZM19.0331 28.2952L23.9053 33.1679L17.1659 35.0351L19.0331 28.2952ZM48.4646 9.83441L47.0911 11.2079L40.9921 5.10892L42.3661 3.73544C43.6303 2.47123 45.6802 2.47123 46.9444 3.73544L48.4646 5.25512C49.7268 6.52085 49.7268 8.56918 48.4646 9.83441Z" fill="#D13C74"/>
</g>
<defs>
<clipPath id="clip0">
<rect width="52" height="52" fill="white"/>
</clipPath>
</defs>
</svg>
