<svg width="14" height="14" viewBox="0 0 14 14" fill="none" xmlns="http://www.w3.org/2000/svg">
<path d="M9.7418 0.9796H12.3265L6.41744 6.89147C6.22609 7.08282 6.22609 7.39413 6.41744 7.58548C6.51169 7.67972 6.63735 7.72827 6.76301 7.72827C6.88868 7.72827 7.01434 7.67972 7.10859 7.58548L13.0205 1.6736V4.25826C13.0205 4.52958 13.2404 4.74949 13.5088 4.74949C13.7801 4.74949 14.0001 4.52958 14.0001 4.25826V0.491228C14.0001 0.21991 13.7801 0 13.5088 0H9.7418C9.47048 0 9.25057 0.21991 9.25057 0.491228C9.25342 0.75969 9.47048 0.9796 9.7418 0.9796Z" fill="#D13C74"/>
<path d="M2.9388 14H11.0583C12.6805 14 13.9971 12.6805 13.9971 11.0612V7.23705C13.9971 6.96573 13.7772 6.74867 13.5059 6.74867C13.2346 6.74867 13.0175 6.96858 13.0175 7.23705V11.0583C13.0175 12.1379 12.1379 13.0175 11.0583 13.0175H2.9388C1.85924 13.0175 0.9796 12.1379 0.9796 11.0583V4.60955V2.94166C0.9796 1.8621 1.85924 0.982456 2.9388 0.982456H6.72868C7 0.982456 7.21705 0.762546 7.21705 0.491228C7.21705 0.21991 6.99714 0 6.72868 0H2.9388C1.31661 0 0 1.31946 0 2.9388V4.60669V11.0583C0 12.6805 1.31946 14 2.9388 14Z" fill="#D13C74"/>
</svg>
