<svg width="57" height="58" viewBox="0 0 57 58" fill="none" xmlns="http://www.w3.org/2000/svg">
<path d="M28.4999 0C12.7854 0 0 13.0097 0 28.9999C0 44.9902 12.7854 57.9999 28.4999 57.9999C44.2145 57.9999 56.9999 44.9902 56.9999 28.9999C56.9999 13.0097 44.2146 0 28.4999 0ZM28.4999 55.4782C14.1508 55.4782 2.47822 43.6008 2.47822 28.9999C2.47822 14.3991 14.1508 2.5217 28.4999 2.5217C42.8491 2.5217 54.5217 14.3991 54.5217 28.9999C54.5217 43.6008 42.8491 55.4782 28.4999 55.4782Z" fill="white"/>
<path d="M28.5708 27.6658C22.344 27.6658 17.2778 32.8209 17.2778 39.1569C17.2778 39.6448 17.667 40.0409 18.1465 40.0409C18.6261 40.0409 19.0153 39.6448 19.0153 39.1568C19.0153 33.7949 23.3013 29.4336 28.5708 29.4336C33.8403 29.4336 38.1264 33.7949 38.1264 39.1568C38.1264 39.6448 38.5156 40.0408 38.9951 40.0408C39.4746 40.0408 39.8638 39.6448 39.8638 39.1568C39.8638 32.8209 34.7976 27.6658 28.5708 27.6658Z" fill="white"/>
<path d="M47.4934 39.3601C47.4934 35.231 44.1928 31.8725 40.1349 31.8725C38.9128 31.8725 37.7594 32.1771 36.7442 32.7156L35.9429 31.6088C37.1868 30.9094 38.616 30.5111 40.1349 30.5111C44.93 30.5111 48.8314 34.4809 48.8314 39.3601C48.8314 39.7358 48.5317 40.0408 48.1624 40.0408C47.7931 40.0408 47.4934 39.7358 47.4934 39.3601Z" fill="white"/>
<path d="M9.6887 39.3601C9.6887 35.231 12.9893 31.8725 17.0472 31.8725C18.2693 31.8725 19.4227 32.1771 20.438 32.7156L21.2393 31.6088C19.9953 30.9094 18.5661 30.5111 17.0472 30.5111C12.2521 30.5111 8.35074 34.4809 8.35074 39.3601C8.35074 39.7358 8.65045 40.0408 9.01972 40.0408C9.38898 40.0408 9.6887 39.7358 9.6887 39.3601Z" fill="white"/>
<path d="M28.5625 12.1437C25.2257 12.1437 22.5112 14.9057 22.5112 18.3011C22.5112 21.6965 25.2256 24.4585 28.5625 24.4585C31.8993 24.4585 34.6137 21.6965 34.6137 18.3011C34.6137 14.9058 31.8993 12.1437 28.5625 12.1437ZM28.5625 22.6992C26.18 22.6992 24.2402 20.7254 24.2402 18.3011C24.2402 15.8769 26.18 13.903 28.5625 13.903C30.9449 13.903 32.8847 15.8769 32.8847 18.3011C32.8847 20.7254 30.945 22.6992 28.5625 22.6992Z" fill="white"/>
<path d="M40.6135 18.9058C38.0154 18.9058 35.9019 21.0564 35.9019 23.7001C35.9019 26.3439 38.0153 28.4944 40.6135 28.4944C43.2116 28.4944 45.3251 26.3438 45.3251 23.7001C45.3251 21.0564 43.2116 18.9058 40.6135 18.9058ZM40.6135 27.1246C38.7585 27.1246 37.2481 25.5877 37.2481 23.7001C37.2481 21.8126 38.7585 20.2757 40.6135 20.2757C42.4685 20.2757 43.9789 21.8126 43.9789 23.7001C43.9789 25.5877 42.4686 27.1246 40.6135 27.1246Z" fill="white"/>
<path d="M16.7561 19.6743C14.158 19.6743 12.0444 21.8248 12.0444 24.4686C12.0444 27.1123 14.1579 29.2628 16.7561 29.2628C19.3542 29.2628 21.4677 27.1122 21.4677 24.4686C21.4677 21.8249 19.3542 19.6743 16.7561 19.6743ZM16.7561 27.893C14.9011 27.893 13.3906 26.3561 13.3906 24.4686C13.3906 22.581 14.9011 21.0441 16.7561 21.0441C18.6111 21.0441 20.1215 22.581 20.1215 24.4686C20.1215 26.3561 18.6111 27.893 16.7561 27.893Z" fill="white"/>
</svg>
