<svg width="42" height="42" viewBox="0 0 42 42" fill="none" xmlns="http://www.w3.org/2000/svg">
<path d="M38.3781 3.33711C36.2261 1.18519 33.3649 0 30.3217 0C27.2784 0 24.4172 1.18519 22.2652 3.33711C20.3484 5.25401 19.1759 7.79607 18.9639 10.4951C18.7691 12.9729 19.3896 15.4469 20.7163 17.5238L1.00277 37.2369C0.0446489 38.1952 0.0446489 39.7542 1.00277 40.7124C1.4669 41.1764 2.08411 41.4322 2.74052 41.4322C3.39693 41.4322 4.01397 41.1765 4.47827 40.7124L6.59598 38.5946L9.28143 41.2802C9.74556 41.7442 10.3628 42 11.0192 42C11.6756 42 12.2926 41.7443 12.7568 41.2801C13.715 40.3219 13.7149 38.7629 12.7568 37.8048L11.335 36.383L12.9148 34.8032L14.3365 36.2249C14.8006 36.6891 15.4178 36.9448 16.0743 36.9448C16.7307 36.9448 17.3477 36.6892 17.8118 36.225C18.2759 35.761 18.5317 35.1438 18.5317 34.4873C18.5317 33.8309 18.276 33.2137 17.8118 32.7496L15.1261 30.0641L24.1911 20.9993C26.0197 22.1703 28.1273 22.7865 30.3223 22.7867C33.3655 22.7866 36.2262 21.6017 38.3779 19.45C40.5298 17.298 41.715 14.4368 41.715 11.3935C41.7152 8.35027 40.53 5.48911 38.3781 3.33711ZM37.4302 18.5022C35.5315 20.4009 33.0079 21.4463 30.3233 21.4463C28.2167 21.4461 26.2023 20.8039 24.4972 19.5887C24.2306 19.3988 23.866 19.4291 23.6343 19.6606L13.7045 29.5903C13.5789 29.716 13.5083 29.8864 13.5083 30.0642C13.5083 30.2421 13.579 30.4124 13.7045 30.5382L16.8639 33.6976C17.0749 33.9085 17.1911 34.189 17.1911 34.4874C17.1911 34.7858 17.0749 35.0663 16.8639 35.2773C16.653 35.4883 16.3724 35.6045 16.0741 35.6045C15.7758 35.6045 15.4951 35.4883 15.2841 35.2772L13.3884 33.3816C13.1267 33.1199 12.7024 33.1199 12.4406 33.3816L9.91315 35.909C9.65139 36.1709 9.65139 36.5951 9.91315 36.8569L11.8089 38.7526C12.2445 39.1881 12.2445 39.8968 11.8089 40.3323C11.598 40.5433 11.3174 40.6595 11.0191 40.6595C10.7207 40.6595 10.4401 40.5433 10.2292 40.3323L7.06987 37.1729C6.93895 37.042 6.76751 36.9767 6.5959 36.9767C6.42445 36.9767 6.25284 37.042 6.12192 37.1729L3.5304 39.7646C3.31941 39.9756 3.03878 40.0918 2.74044 40.0918C2.44209 40.0918 2.16146 39.9756 1.95056 39.7646C1.51497 39.3292 1.51497 38.6204 1.95056 38.1849L22.0547 18.0809C22.2861 17.8493 22.3165 17.4846 22.1265 17.218C19.2702 13.2099 19.7271 7.77072 23.2129 4.28481C25.1118 2.38604 27.6363 1.34039 30.3217 1.34039C33.007 1.34039 35.5315 2.38612 37.4302 4.28498C39.3291 6.18375 40.3748 8.70826 40.3748 11.3935C40.3748 14.0789 39.329 16.6034 37.4302 18.5022Z" fill="white"/>
<path d="M37.491 11.0174C37.1213 11.0015 36.8091 11.29 36.794 11.6597C36.7276 13.2892 36.0558 14.8217 34.9029 15.9747C33.6793 17.1985 32.0524 17.8724 30.3218 17.8724C28.5914 17.8724 26.9645 17.1985 25.7407 15.9747C23.2147 13.4487 23.2147 9.33858 25.7407 6.8126C26.9644 5.58878 28.5913 4.91489 30.3218 4.91489C32.0524 4.91489 33.6793 5.58878 34.9029 6.81252C35.5931 7.50256 36.1068 8.31574 36.4297 9.22956C36.5529 9.57852 36.9359 9.76145 37.2849 9.63816C37.6338 9.51478 37.8169 9.13195 37.6935 8.78298C37.3033 7.67901 36.6833 6.69726 35.8508 5.86473C34.3739 4.38792 32.4104 3.57458 30.3218 3.57458C28.2332 3.57458 26.2697 4.38792 24.7929 5.86473C21.7442 8.91341 21.7442 13.874 24.7929 16.9227C26.2697 18.3995 28.2332 19.2128 30.3218 19.2128C32.4104 19.2128 34.374 18.3995 35.8508 16.9227C37.2425 15.531 38.0531 13.6815 38.1335 11.7145C38.1484 11.3446 37.8609 11.0325 37.491 11.0174Z" fill="white"/>
</svg>
