<svg width="67" height="62" viewBox="0 0 67 62" fill="none" xmlns="http://www.w3.org/2000/svg">
<path d="M66.6334 31.9429C67.1216 31.4548 67.1216 30.6633 66.6334 30.1752L58.6785 22.2202C58.1903 21.7321 57.3989 21.7321 56.9107 22.2202C56.4226 22.7084 56.4226 23.4998 56.9107 23.988L63.9818 31.0591L56.9107 38.1301C56.4226 38.6183 56.4226 39.4097 56.9107 39.8979C57.3989 40.386 58.1903 40.386 58.6785 39.8979L66.6334 31.9429ZM20.1528 32.3091L65.7495 32.3091L65.7495 29.8091L20.1528 29.8091L20.1528 32.3091Z" fill="white"/>
<path d="M51.5 10.4879C49.2134 8.20263 46.5452 6.30007 43.5929 4.8769C37.7645 2.06723 31.1638 1.28744 24.8411 2.66157C18.5184 4.0357 12.8368 7.48483 8.70034 12.4602C4.56384 17.4356 2.21004 23.6514 2.0134 30.1187C1.81677 36.586 3.7886 42.9333 7.6152 48.1508C11.4418 53.3683 16.9033 57.1562 23.1309 58.9119C29.3584 60.6677 35.9943 60.2903 41.9826 57.8399C45.5672 56.3732 48.7965 54.2141 51.5 51.5122" stroke="white" stroke-width="2.5"/>
</svg>
