<svg width="27" height="27" viewBox="0 0 27 27" fill="none" xmlns="http://www.w3.org/2000/svg">
<g clip-path="url(#clip0)">
<path d="M3.04254 3.04042C7.07309 -1.00129 13.6169 -1.01041 17.6586 3.02014C21.5585 6.90917 21.7235 13.1731 18.0339 17.2621L18.8232 18.0514C19.4609 17.4136 20.4948 17.4135 21.1326 18.0512C21.1326 18.0512 21.1327 18.0513 21.1328 18.0514L26.5216 23.4402C27.1594 24.0779 27.1595 25.1119 26.5218 25.7496C26.5217 25.7497 26.5217 25.7497 26.5216 25.7498L25.7519 26.5195C25.1142 27.157 24.0806 27.157 23.4429 26.5195L18.054 21.1306C17.4163 20.493 17.4161 19.459 18.0538 18.8213C18.0539 18.8212 18.054 18.8211 18.054 18.8211L17.2648 18.0318C13.0299 21.8589 6.49439 21.5283 2.66729 17.2935C-1.02938 13.2029 -0.864248 6.9308 3.04254 3.04042ZM18.8232 20.3604L24.212 25.7493C24.4246 25.9618 24.7691 25.9618 24.9817 25.7493L25.7514 24.979C25.9635 24.7666 25.9635 24.4224 25.7514 24.2099L20.3625 18.8211C20.1472 18.6152 19.8081 18.6152 19.5929 18.8211L18.8232 19.5913C18.611 19.8038 18.611 20.1479 18.8232 20.3604ZM3.81167 16.8969C7.42547 20.5105 13.2846 20.5104 16.8982 16.8966C20.5119 13.2828 20.5118 7.42376 16.898 3.8101C13.2843 0.196506 7.4254 0.196506 3.81167 3.8101C0.203793 7.42635 0.203793 13.2806 3.81167 16.8969Z" fill="#FFC42E"/>
<path d="M4.58188 4.57941L5.35156 5.34909C2.59285 8.11455 2.59285 12.5911 5.35156 15.3566L4.58188 16.1263C1.39785 12.9358 1.39785 7.76986 4.58188 4.57941Z" fill="#FFC42E"/>
</g>
<defs>
<clipPath id="clip0">
<rect width="27" height="27" fill="white" transform="matrix(-1 0 0 1 27 0)"/>
</clipPath>
</defs>
</svg>
