<svg width="27" height="27" viewBox="0 0 27 27" fill="none" xmlns="http://www.w3.org/2000/svg">
<g clip-path="url(#clip0)">
<path d="M3.04254 3.04066C7.07309 -1.00105 13.6169 -1.01016 17.6586 3.02039C21.5585 6.90941 21.7235 13.1733 18.0339 17.2623L18.8232 18.0516C19.4609 17.4139 20.4948 17.4137 21.1326 18.0514C21.1326 18.0515 21.1327 18.0516 21.1328 18.0516L26.5216 23.4405C27.1594 24.0782 27.1595 25.1121 26.5218 25.7499C26.5217 25.7499 26.5217 25.75 26.5216 25.7501L25.7519 26.5197C25.1142 27.1572 24.0806 27.1572 23.4429 26.5197L18.054 21.1309C17.4163 20.4932 17.4161 19.4593 18.0538 18.8215C18.0539 18.8214 18.054 18.8214 18.054 18.8213L17.2648 18.032C13.0299 21.8591 6.49439 21.5285 2.66729 17.2937C-1.02938 13.2031 -0.864248 6.93105 3.04254 3.04066ZM18.8232 20.3607L24.212 25.7495C24.4246 25.962 24.7691 25.962 24.9817 25.7495L25.7514 24.9793C25.9635 24.7668 25.9635 24.4226 25.7514 24.2102L20.3625 18.8213C20.1472 18.6155 19.8081 18.6155 19.5929 18.8213L18.8232 19.5915C18.611 19.804 18.611 20.1482 18.8232 20.3607ZM3.81167 16.8971C7.42547 20.5108 13.2846 20.5107 16.8982 16.8969C20.5119 13.2831 20.5118 7.42401 16.898 3.81034C13.2843 0.19675 7.4254 0.19675 3.81167 3.81034C0.203793 7.42659 0.203793 13.2808 3.81167 16.8971Z" fill="#141648"/>
<path d="M4.58188 4.57959L5.35156 5.34927C2.59285 8.11474 2.59285 12.5913 5.35156 15.3568L4.58188 16.1265C1.39785 12.936 1.39785 7.77004 4.58188 4.57959Z" fill="#141648"/>
</g>
<defs>
<clipPath id="clip0">
<rect width="27" height="27" fill="white" transform="matrix(-1 0 0 1 27 0)"/>
</clipPath>
</defs>
</svg>
