<svg width="92" height="92" viewBox="0 0 92 92" fill="none" xmlns="http://www.w3.org/2000/svg">
<path d="M57.3796 48.4096V43.3352L68.3675 31.6322C69.9138 30.0198 71.1174 28.1109 71.9056 26.0205C72.3115 24.9144 72.5918 23.7662 72.7411 22.5975C72.7432 22.5868 72.7444 22.576 72.7447 22.5652L72.7537 22.567L80.1407 25.645V87.0981L57.3796 77.6142V48.4096ZM76.4553 60.0821C76.4553 59.3713 76.2445 58.6765 75.8496 58.0855C75.4547 57.4945 74.8935 57.0339 74.2368 56.7619C73.5801 56.4899 72.8575 56.4187 72.1604 56.5574C71.4633 56.6961 70.8229 57.0383 70.3203 57.5409C69.8178 58.0435 69.4755 58.6839 69.3368 59.381C69.1982 60.0781 69.2693 60.8007 69.5413 61.4574C69.8133 62.114 70.2739 62.6753 70.8649 63.0702C71.4559 63.4651 72.1507 63.6758 72.8615 63.6758C73.8146 63.6758 74.7287 63.2972 75.4027 62.6233C76.0766 61.9493 76.4553 61.0352 76.4553 60.0821Z" fill="#141648"/>
<path d="M72.8616 63.6758C74.8463 63.6758 76.4553 62.0669 76.4553 60.0821C76.4553 58.0973 74.8463 56.4883 72.8616 56.4883C70.8768 56.4883 69.2678 58.0973 69.2678 60.0821C69.2678 62.0669 70.8768 63.6758 72.8616 63.6758Z" fill="#48DBDB"/>
<path d="M57.3797 43.3352L46.3936 31.6322C44.8474 30.0194 43.6433 28.1106 42.8537 26.0206C42.4447 24.9034 42.1632 23.7437 42.0146 22.5634C41.8971 21.6278 41.8694 20.6831 41.9319 19.7423C42.4584 11.872 48.7421 4.90189 57.3797 4.90189C66.0172 4.90189 72.3027 11.872 72.8292 19.7423C72.8911 20.6838 72.8628 21.629 72.7447 22.5652C72.7444 22.576 72.7432 22.5868 72.7412 22.5975C72.5918 23.7662 72.3115 24.9145 71.9056 26.0206C71.1174 28.1109 69.9138 30.0198 68.3676 31.6322L57.3797 43.3352ZM64.0155 19.5554C64.0155 15.7927 61.0453 12.7434 57.3797 12.7434C53.714 12.7434 50.7456 15.7927 50.7456 19.5554C50.7456 23.3181 53.7158 26.3691 57.3797 26.3691C61.0435 26.3691 64.0155 23.3181 64.0155 19.5554Z" fill="#48DBDB"/>
<path d="M57.3797 12.7434C61.0453 12.7434 64.0155 15.7927 64.0155 19.5554C64.0155 23.318 61.0453 26.3691 57.3797 26.3691C53.714 26.3691 50.7456 23.318 50.7456 19.5554C50.7456 15.7927 53.7158 12.7434 57.3797 12.7434Z" fill="#282A63"/>
<path d="M34.6204 66.3316V25.645L42.0145 22.5634C42.1631 23.7437 42.4446 24.9034 42.8536 26.0205C43.6432 28.1106 44.8473 30.0194 46.3935 31.6322L57.3796 43.3352V77.6142L34.6204 87.0981V66.3316Z" fill="#282A63"/>
<path d="M34.6204 66.3316V87.0981L11.8594 77.6142V16.1611L34.6204 25.645V66.3316ZM26.6315 71.3809C26.6315 70.6701 26.4207 69.9753 26.0258 69.3843C25.6309 68.7933 25.0697 68.3327 24.413 68.0607C23.7563 67.7887 23.0337 67.7175 22.3366 67.8562C21.6395 67.9948 20.9992 68.3371 20.4966 68.8397C19.994 69.3423 19.6517 69.9826 19.513 70.6798C19.3744 71.3769 19.4455 72.0995 19.7175 72.7561C19.9895 73.4128 20.4502 73.9741 21.0412 74.369C21.6321 74.7638 22.327 74.9746 23.0377 74.9746C23.9908 74.9743 24.9046 74.5955 25.5785 73.9217C26.2524 73.2478 26.6312 72.3339 26.6315 71.3809Z" fill="#141648"/>
<path d="M23.0378 74.9746C25.0226 74.9746 26.6316 73.3656 26.6316 71.3809C26.6316 69.3961 25.0226 67.7871 23.0378 67.7871C21.0531 67.7871 19.4441 69.3961 19.4441 71.3809C19.4441 73.3656 21.0531 74.9746 23.0378 74.9746Z" fill="#48DBDB"/>
<path d="M11.4447 78.6095L34.2057 88.0934C34.2397 88.1075 34.2743 88.1199 34.3095 88.1304C34.3128 88.1313 34.3164 88.1319 34.3196 88.133C34.3606 88.1446 34.4023 88.1539 34.4445 88.1606C34.4574 88.1628 34.4702 88.1648 34.4833 88.1664C34.5257 88.1722 34.5684 88.1753 34.6112 88.1759C34.6145 88.1759 34.6175 88.1759 34.6208 88.1759C34.6683 88.1755 34.7157 88.1719 34.7627 88.1651L34.7913 88.161C34.8381 88.1537 34.8844 88.1434 34.9298 88.1301H34.9309C34.9662 88.1195 35.001 88.107 35.0351 88.0929L57.3798 78.7822L79.7259 88.0934C79.8897 88.1617 80.0679 88.1885 80.2446 88.1714C80.4213 88.1542 80.591 88.0938 80.7387 87.9953C80.8864 87.8968 81.0075 87.7634 81.0912 87.6069C81.175 87.4504 81.2188 87.2757 81.2188 87.0981V25.645C81.2187 25.4322 81.1557 25.2241 81.0377 25.047C80.9196 24.87 80.7518 24.7318 80.5553 24.6499L73.8954 21.8746C73.9497 21.141 73.9529 20.4045 73.9049 19.6704C73.6305 15.5012 71.8561 11.5722 68.9096 8.60974C67.3972 7.0927 65.6002 5.88905 63.6217 5.06778C61.6432 4.24651 59.5221 3.82376 57.3799 3.82376C55.2377 3.82376 53.1166 4.24651 51.1381 5.06778C49.1596 5.88905 47.3626 7.0927 45.8501 8.60974C42.9042 11.5726 41.1302 15.5016 40.8559 19.6708C40.8079 20.4046 40.8108 21.141 40.8645 21.8744L34.6204 24.477L12.2741 15.1656C12.1102 15.0974 11.932 15.0706 11.7554 15.0877C11.5787 15.1048 11.4089 15.1653 11.2612 15.2638C11.1135 15.3623 10.9925 15.4957 10.9087 15.6523C10.825 15.8088 10.7812 15.9836 10.7813 16.1611V77.6142C10.7812 77.8271 10.8442 78.0352 10.9623 78.2123C11.0803 78.3894 11.2482 78.5276 11.4447 78.6095ZM41.841 26.3902C42.6785 28.618 43.9599 30.6524 45.6074 32.37L56.3015 43.7622V47.2609C56.2104 47.2429 56.12 47.2237 56.0305 47.2001C55.754 47.1273 55.4599 47.1673 55.2128 47.3113C54.9658 47.4553 54.7861 47.6916 54.7132 47.9681C54.6404 48.2447 54.6804 48.5388 54.8244 48.7858C54.9684 49.0329 55.2047 49.2126 55.4812 49.2854C55.7508 49.3559 56.0248 49.4079 56.3015 49.4412V76.8955L35.6985 85.481V67.6258C35.7523 67.6343 35.8067 67.6387 35.8611 67.6389C36.1202 67.6391 36.3706 67.546 36.5666 67.3766C36.7627 67.2073 36.8912 66.973 36.9286 66.7167C36.9661 66.4604 36.9101 66.1992 36.7707 65.9808C36.6314 65.7625 36.4181 65.6015 36.1698 65.5276C36.0144 65.4812 35.8568 65.4422 35.6985 65.4066V26.3638L41.1777 24.0801C41.3442 24.8648 41.5658 25.6367 41.841 26.3902ZM79.0625 85.481L58.4577 76.8955V49.4878H61.1318C61.4178 49.4878 61.692 49.3742 61.8942 49.172C62.0964 48.9698 62.21 48.6956 62.21 48.4096C62.21 48.1237 62.0964 47.8495 61.8942 47.6473C61.692 47.4451 61.4178 47.3315 61.1318 47.3315H58.4577V43.762L69.1536 32.3698C70.8013 30.6528 72.0821 28.6183 72.9183 26.3904C73.1937 25.6368 73.4156 24.8647 73.5822 24.0799L79.0625 26.3638V85.481ZM43.0077 19.8143C43.2471 16.1649 44.7994 12.7255 47.3778 10.1317C48.69 8.8157 50.2489 7.77158 51.9653 7.05915C53.6817 6.34672 55.5218 5.98 57.3801 5.98C59.2385 5.98 61.0786 6.34672 62.795 7.05915C64.5114 7.77158 66.0703 8.8157 67.3825 10.1317C69.9609 12.7253 71.5135 16.1645 71.7533 19.8138C71.8106 20.6867 71.7843 21.563 71.675 22.4309C71.6736 22.4412 71.6725 22.4516 71.6714 22.462C71.532 23.5509 71.2707 24.6206 70.8925 25.6511C70.1557 27.6051 69.0292 29.3887 67.5815 30.8937L57.3997 41.7382C57.3929 41.7382 57.3864 41.7382 57.3796 41.7382C57.3728 41.7382 57.3665 41.7382 57.3597 41.7382L47.1796 30.894C45.7318 29.3884 44.6046 27.6045 43.8664 25.6504C43.4854 24.6093 43.223 23.5285 43.0842 22.4286C42.9755 21.5616 42.9499 20.6862 43.0077 19.8143ZM12.9375 17.7783L33.5423 26.3638V65.1917C32.755 65.0906 32.0057 64.7937 31.3628 64.3281C31.1312 64.1605 30.8424 64.0917 30.5601 64.1369C30.2777 64.1821 30.0249 64.3377 29.8572 64.5693C29.6896 64.8009 29.6208 65.0897 29.666 65.372C29.7112 65.6544 29.8667 65.9072 30.0984 66.0749C31.1084 66.8084 32.2988 67.2537 33.5423 67.3632V85.481L12.9375 76.8955V17.7783Z" fill="#D13C74"/>
<path d="M57.3797 27.4473C61.633 27.4473 65.0937 23.9074 65.0937 19.5554C65.0937 15.2034 61.6329 11.6653 57.3797 11.6653C53.1265 11.6653 49.6675 15.2052 49.6675 19.5554C49.6675 23.9056 53.1272 27.4473 57.3797 27.4473ZM57.3797 13.8216C60.4442 13.8216 62.9374 16.3938 62.9374 19.5554C62.9374 22.717 60.4442 25.291 57.3797 25.291C54.3151 25.291 51.8237 22.7181 51.8237 19.5554C51.8237 16.3927 54.3162 13.8216 57.3797 13.8216Z" fill="#D13C74"/>
<path d="M23.0378 66.709C22.1138 66.709 21.2106 66.983 20.4423 67.4963C19.674 68.0097 19.0752 68.7393 18.7216 69.593C18.368 70.4467 18.2755 71.386 18.4557 72.2923C18.636 73.1986 19.081 74.031 19.7343 74.6844C20.3877 75.3377 21.2202 75.7827 22.1264 75.963C23.0327 76.1432 23.972 76.0507 24.8257 75.6971C25.6794 75.3435 26.409 74.7447 26.9224 73.9764C27.4357 73.2081 27.7097 72.3049 27.7097 71.3809C27.7083 70.1422 27.2156 68.9548 26.3398 68.0789C25.4639 67.2031 24.2765 66.7104 23.0378 66.709ZM23.0378 73.8965C22.5403 73.8965 22.0539 73.7489 21.6402 73.4725C21.2265 73.1961 20.9041 72.8032 20.7137 72.3435C20.5233 71.8839 20.4735 71.3781 20.5706 70.8901C20.6676 70.4021 20.9072 69.9539 21.259 69.602C21.6108 69.2502 22.0591 69.0106 22.5471 68.9136C23.0351 68.8165 23.5409 68.8663 24.0005 69.0567C24.4602 69.2471 24.8531 69.5696 25.1295 69.9833C25.4059 70.3969 25.5535 70.8833 25.5535 71.3809C25.5528 72.0478 25.2875 72.6873 24.8159 73.1589C24.3443 73.6305 23.7048 73.8958 23.0378 73.8965Z" fill="white"/>
<path d="M68.1897 60.0821C68.1897 61.0061 68.4637 61.9094 68.9771 62.6776C69.4904 63.4459 70.22 64.0447 71.0737 64.3983C71.9274 64.7519 72.8668 64.8445 73.773 64.6642C74.6793 64.4839 75.5117 64.039 76.1651 63.3856C76.8185 62.7322 77.2634 61.8998 77.4437 60.9935C77.6239 60.0873 77.5314 59.1479 77.1778 58.2942C76.8242 57.4406 76.2254 56.7109 75.4571 56.1976C74.6888 55.6842 73.7856 55.4102 72.8616 55.4102C71.6229 55.4116 70.4354 55.9043 69.5596 56.7801C68.6837 57.6559 68.1911 58.8435 68.1897 60.0821ZM75.3772 60.0821C75.3772 60.5796 75.2297 61.066 74.9532 61.4797C74.6768 61.8934 74.2839 62.2158 73.8243 62.4062C73.3646 62.5966 72.8588 62.6464 72.3708 62.5494C71.8828 62.4523 71.4346 62.2127 71.0828 61.8609C70.7309 61.5091 70.4914 61.0608 70.3943 60.5729C70.2972 60.0849 70.347 59.5791 70.5374 59.1194C70.7278 58.6597 71.0503 58.2668 71.464 57.9904C71.8777 57.714 72.364 57.5665 72.8616 57.5665C73.5285 57.5672 74.168 57.8324 74.6396 58.3041C75.1112 58.7757 75.3765 59.4151 75.3772 60.0821Z" fill="white"/>
<path d="M42.622 67.4463C42.7221 67.5464 42.841 67.6258 42.9718 67.68C43.1026 67.7342 43.2428 67.7621 43.3844 67.7621C43.526 67.7621 43.6662 67.7342 43.797 67.68C43.9279 67.6258 44.0467 67.5464 44.1468 67.4463L46.0792 65.5141L48.0126 67.4463C48.1127 67.5464 48.2316 67.6258 48.3624 67.68C48.4932 67.7342 48.6334 67.7621 48.775 67.7621C48.9166 67.7621 49.0568 67.7342 49.1876 67.68C49.3185 67.6258 49.4373 67.5464 49.5374 67.4463C49.6376 67.3461 49.717 67.2273 49.7712 67.0965C49.8254 66.9656 49.8532 66.8254 49.8532 66.6838C49.8532 66.5422 49.8254 66.402 49.7712 66.2712C49.717 66.1404 49.6376 66.0215 49.5374 65.9214L47.6038 63.9885L49.5369 62.0556C49.7391 61.8534 49.8527 61.5792 49.8527 61.2932C49.8527 61.0072 49.7391 60.733 49.5369 60.5308C49.3347 60.3286 49.0605 60.215 48.7745 60.215C48.4885 60.215 48.2143 60.3286 48.0121 60.5308L46.0792 62.4639L44.1463 60.5308C43.9441 60.3286 43.6698 60.215 43.3839 60.215C43.0979 60.215 42.8237 60.3286 42.6215 60.5308C42.4193 60.733 42.3057 61.0072 42.3057 61.2932C42.3057 61.5792 42.4193 61.8534 42.6215 62.0556L44.5545 63.9885L42.622 65.9214C42.5219 66.0215 42.4424 66.1404 42.3883 66.2712C42.3341 66.402 42.3062 66.5422 42.3062 66.6838C42.3062 66.8254 42.3341 66.9656 42.3883 67.0965C42.4424 67.2273 42.5219 67.3461 42.622 67.4463Z" fill="white"/>
<path d="M45.8723 68.6855C45.5864 68.6855 45.3122 68.7991 45.11 69.0013C44.9078 69.2035 44.7942 69.4777 44.7942 69.7637V72.1223C44.7942 72.4082 44.9078 72.6824 45.11 72.8846C45.3122 73.0868 45.5864 73.2004 45.8723 73.2004C46.1583 73.2004 46.4325 73.0868 46.6347 72.8846C46.8369 72.6824 46.9505 72.4082 46.9505 72.1223V69.7637C46.9505 69.4777 46.8369 69.2035 46.6347 69.0013C46.4325 68.7991 46.1583 68.6855 45.8723 68.6855Z" fill="white"/>
<path d="M38.9688 72.1894V74.2726C38.9688 74.5585 39.0824 74.8327 39.2846 75.0349C39.4868 75.2371 39.761 75.3507 40.047 75.3507C40.3329 75.3507 40.6071 75.2371 40.8093 75.0349C41.0115 74.8327 41.1251 74.5585 41.1251 74.2726V72.1894C41.1265 70.8756 40.7545 69.5884 40.0525 68.4778C39.9777 68.3563 39.8795 68.2509 39.7637 68.1677C39.6478 68.0844 39.5166 68.025 39.3776 67.9928C39.2386 67.9606 39.0946 67.9564 38.954 67.9803C38.8133 68.0041 38.6788 68.0557 38.5582 68.132C38.4376 68.2082 38.3334 68.3077 38.2515 68.4245C38.1697 68.5414 38.1118 68.6733 38.0813 68.8127C38.0508 68.952 38.0483 69.0961 38.0739 69.2364C38.0994 69.3768 38.1526 69.5107 38.2303 69.6303C38.714 70.3962 38.9701 71.2837 38.9688 72.1894Z" fill="white"/>
<path d="M40.507 77.4302C40.3558 77.6729 40.3073 77.9657 40.372 78.2442C40.4367 78.5228 40.6093 78.7642 40.852 78.9153C41.3773 79.2413 41.971 79.4409 42.5864 79.4984C43.2018 79.5559 43.8222 79.4698 44.3988 79.2469C44.9753 79.0239 45.4922 78.6702 45.9088 78.2136C46.3254 77.7569 46.6304 77.2098 46.7997 76.6154C46.876 76.3407 46.8404 76.0471 46.7008 75.7986C46.5612 75.5502 46.3288 75.3671 46.0546 75.2894C45.7804 75.2118 45.4866 75.2459 45.2374 75.3843C44.9882 75.5227 44.804 75.7541 44.725 76.028C44.6472 76.301 44.5071 76.5523 44.3158 76.762C44.1245 76.9718 43.8871 77.1343 43.6223 77.2369C43.3576 77.3394 43.0727 77.3791 42.79 77.3529C42.5072 77.3268 42.2345 77.2354 41.993 77.086C41.8729 77.0109 41.7391 76.9603 41.5994 76.937C41.4597 76.9137 41.3167 76.9182 41.1787 76.9501C41.0407 76.9821 40.9103 77.041 40.7951 77.1233C40.6798 77.2057 40.582 77.31 40.507 77.4302Z" fill="white"/>
<path d="M22.8875 55.1641C23.0268 55.1896 23.1698 55.1874 23.3082 55.1575C23.4467 55.1277 23.5779 55.0709 23.6943 54.9903C23.8108 54.9097 23.9102 54.8069 23.9869 54.6878C24.0635 54.5687 24.116 54.4357 24.1412 54.2963C24.1894 54.0345 24.3042 53.7895 24.4746 53.5849C24.6449 53.3803 24.8651 53.223 25.1138 53.1281C25.3626 53.0332 25.6316 53.004 25.8949 53.0431C26.1583 53.0823 26.4071 53.1886 26.6174 53.3517C26.8432 53.5269 27.1293 53.6054 27.4129 53.5697C27.6964 53.5341 27.9542 53.3873 28.1296 53.1617C28.305 52.9361 28.3837 52.65 28.3483 52.3665C28.3129 52.0829 28.1663 51.825 27.9408 51.6494C27.4378 51.2587 26.8426 51.0042 26.2126 50.9105C25.5826 50.8167 24.9391 50.8868 24.3441 51.114C23.7491 51.3412 23.2226 51.7178 22.8155 52.2076C22.4083 52.6974 22.1342 53.2839 22.0196 53.9104C21.9943 54.0497 21.9966 54.1926 22.0265 54.331C22.0564 54.4694 22.1133 54.6006 22.1939 54.717C22.2745 54.8334 22.3772 54.9328 22.4962 55.0095C22.6152 55.0862 22.7482 55.1387 22.8875 55.1641Z" fill="white"/>
<path d="M23.0378 64.7791C23.3238 64.7791 23.598 64.6656 23.8002 64.4634C24.0024 64.2612 24.116 63.987 24.116 63.701V58.3104C24.116 58.0245 24.0024 57.7502 23.8002 57.548C23.598 57.3459 23.3238 57.2323 23.0378 57.2323C22.7519 57.2323 22.4777 57.3459 22.2755 57.548C22.0733 57.7502 21.9597 58.0245 21.9597 58.3104V63.701C21.9597 63.987 22.0733 64.2612 22.2755 64.4634C22.4777 64.6656 22.7519 64.7791 23.0378 64.7791Z" fill="white"/>
<path d="M29.3735 60.4361V56.3931C29.3735 56.1072 29.2599 55.833 29.0578 55.6308C28.8556 55.4286 28.5813 55.315 28.2954 55.315C28.0095 55.315 27.7352 55.4286 27.5331 55.6308C27.3309 55.833 27.2173 56.1072 27.2173 56.3931V60.4361C27.2169 60.9676 27.2772 61.4974 27.397 62.0152C27.4279 62.1543 27.486 62.2859 27.568 62.4024C27.6501 62.5188 27.7544 62.6179 27.875 62.6938C27.9955 62.7698 28.1299 62.821 28.2704 62.8447C28.4109 62.8683 28.5547 62.8639 28.6935 62.8317C28.8323 62.7994 28.9633 62.74 29.079 62.6568C29.1946 62.5736 29.2927 62.4683 29.3674 62.347C29.4421 62.2257 29.4921 62.0908 29.5143 61.9501C29.5366 61.8094 29.5308 61.6656 29.4972 61.5272C29.4146 61.1694 29.3731 60.8033 29.3735 60.4361Z" fill="white"/>
<path d="M73.6 50.3227C73.8045 50.6294 73.9133 50.9898 73.9127 51.3583V53.0581C73.9127 53.3441 74.0263 53.6183 74.2284 53.8205C74.4306 54.0227 74.7049 54.1362 74.9908 54.1362C75.2767 54.1362 75.5509 54.0227 75.7531 53.8205C75.9553 53.6183 76.0689 53.3441 76.0689 53.0581V51.3581C76.0699 50.5636 75.8348 49.7867 75.3936 49.126C75.3154 49.0074 75.2145 48.9055 75.0968 48.826C74.979 48.7465 74.8467 48.6911 74.7075 48.6629C74.5683 48.6347 74.4248 48.6343 74.2854 48.6618C74.1461 48.6892 74.0135 48.7439 73.8953 48.8228C73.7771 48.9016 73.6757 49.003 73.5968 49.1212C73.518 49.2394 73.4633 49.372 73.4358 49.5114C73.4084 49.6508 73.4088 49.7942 73.4369 49.9334C73.4651 50.0727 73.5205 50.205 73.6 50.3227Z" fill="white"/>
<path d="M71.811 48.4096C71.811 48.1237 71.6974 47.8494 71.4953 47.6473C71.2931 47.4451 71.0188 47.3315 70.7329 47.3315H65.3423C65.0563 47.3315 64.7821 47.4451 64.5799 47.6473C64.3777 47.8494 64.2642 48.1237 64.2642 48.4096C64.2642 48.6955 64.3777 48.9698 64.5799 49.172C64.7821 49.3741 65.0563 49.4877 65.3423 49.4877H70.7329C71.0188 49.4877 71.2931 49.3741 71.4953 49.172C71.6974 48.9698 71.811 48.6955 71.811 48.4096Z" fill="white"/>
<path d="M50.0444 41.7628C50.1545 41.8344 50.2569 41.9173 50.3498 42.0102C50.524 42.1837 50.6621 42.39 50.7561 42.6171C50.8502 42.8442 50.8984 43.0876 50.8979 43.3334C50.8981 44.3301 51.1398 45.3118 51.6024 46.1946C51.6672 46.3218 51.7566 46.4349 51.8654 46.5273C51.9743 46.6197 52.1004 46.6896 52.2364 46.7329C52.3725 46.7761 52.5157 46.792 52.658 46.7794C52.8002 46.7669 52.9385 46.7262 53.0648 46.6598C53.1912 46.5933 53.3031 46.5025 53.3941 46.3925C53.4851 46.2824 53.5533 46.1554 53.5948 46.0188C53.6363 45.8822 53.6502 45.7387 53.6358 45.5967C53.6214 45.4547 53.579 45.3169 53.5109 45.1914C53.2088 44.6191 53.052 43.9813 53.0543 43.3342C53.0554 42.8053 52.9519 42.2815 52.7496 41.7929C52.5473 41.3042 52.2503 40.8605 51.8757 40.4872C51.6756 40.2874 51.4552 40.1089 51.2181 39.9548C50.9782 39.7991 50.6864 39.7451 50.4067 39.8046C50.127 39.8642 49.8824 40.0324 49.7268 40.2722C49.5711 40.5121 49.5171 40.8039 49.5766 41.0836C49.6361 41.3633 49.8043 41.6079 50.0442 41.7635L50.0444 41.7628Z" fill="white"/>
<path d="M46.0791 57.2844C46.365 57.2844 46.6393 57.1708 46.8415 56.9686C47.0436 56.7664 47.1572 56.4922 47.1572 56.2062V50.8156C47.1572 50.5297 47.0436 50.2555 46.8415 50.0533C46.6393 49.8511 46.365 49.7375 46.0791 49.7375C45.7932 49.7375 45.5189 49.8511 45.3168 50.0533C45.1146 50.2555 45.001 50.5297 45.001 50.8156V56.2062C45.001 56.4922 45.1146 56.7664 45.3168 56.9686C45.5189 57.1708 45.7932 57.2844 46.0791 57.2844Z" fill="white"/>
<path d="M46.0791 47.6835C46.365 47.6835 46.6393 47.5699 46.8415 47.3677C47.0436 47.1655 47.1572 46.8913 47.1572 46.6054V43.3334C47.1571 42.8809 47.3213 42.4436 47.6192 42.1029C47.8025 41.8871 47.8935 41.6078 47.8726 41.3253C47.8516 41.0429 47.7204 40.7801 47.5072 40.5936C47.2941 40.4072 47.0161 40.3121 46.7334 40.3289C46.4507 40.3457 46.186 40.473 45.9964 40.6834C45.3545 41.4171 45.0008 42.3589 45.001 43.3338V46.6057C45.0011 46.8916 45.1147 47.1657 45.3169 47.3679C45.5191 47.57 45.7932 47.6835 46.0791 47.6835Z" fill="white"/>
</svg>
