<svg width="57" height="57" viewBox="0 0 57 57" fill="none" xmlns="http://www.w3.org/2000/svg">
<g clip-path="url(#clip0)">
<path d="M56.5958 0.631777C56.3397 0.419919 56.0022 0.332971 55.6758 0.395204L38.7528 3.61694L18.4588 0.126568C18.3967 0.115991 18.334 0.111316 18.2712 0.111204C18.2688 0.111204 18.2664 0.11087 18.2639 0.11087C18.2633 0.11087 18.2628 0.110982 18.2622 0.110982C18.2355 0.111204 18.2089 0.112986 18.1822 0.11499C18.1272 0.118997 18.0732 0.126568 18.0206 0.138146L0.89586 3.57953C0.374732 3.68418 0 4.14186 0 4.67323V55.5841C0 55.9148 0.14662 56.2284 0.40056 56.4403C0.6545 56.6523 0.989154 56.7408 1.31457 56.6819L18.2809 53.6097L38.5858 56.8751C38.5985 56.8771 38.6113 56.8781 38.6241 56.8796C38.6362 56.8812 38.6484 56.8829 38.6607 56.884C38.6948 56.8871 38.7288 56.8891 38.763 56.8891C38.7635 56.8891 38.7639 56.8891 38.7642 56.8891C38.7999 56.8891 38.8353 56.8872 38.8708 56.8838C38.8883 56.8821 38.9054 56.879 38.9227 56.8765C38.938 56.8743 38.9536 56.873 38.969 56.8701L38.985 56.8671C38.9863 56.8668 38.9878 56.8666 38.9892 56.8663L56.0907 53.6502C56.6181 53.551 57.0001 53.0904 57.0001 52.5537V1.49134C57.0002 1.15892 56.8519 0.843746 56.5958 0.631777ZM54.7688 51.6283L39.8785 54.4285V45.7084C39.8785 45.0922 39.3789 44.5928 38.7629 44.5928C38.1468 44.5928 37.6473 45.0923 37.6473 45.7084V54.4641L19.3796 51.5265V15.2479C19.3796 14.6317 18.88 14.1323 18.264 14.1323C17.648 14.1323 17.1484 14.6318 17.1484 15.2479V51.5473L2.23147 54.2484V5.58701L17.1484 2.58949V7.99594C17.1484 8.61214 17.648 9.11156 18.264 9.11156C18.88 9.11156 19.3796 8.61203 19.3796 7.99594V2.54908L37.6473 5.69099V38.7913C37.6473 39.4075 38.1469 39.9069 38.7629 39.9069C39.379 39.9069 39.8785 39.4074 39.8785 38.7913V5.67418L54.7688 2.83953V51.6283Z" fill="white"/>
<path d="M29.0133 15.6969L30.4558 14.2544C30.8914 13.8188 30.8914 13.1123 30.4558 12.6765C30.0201 12.2409 29.3138 12.2409 28.8779 12.6765L27.4355 14.119L25.993 12.6765C25.5572 12.2409 24.851 12.2409 24.4151 12.6765C23.9795 13.1122 23.9795 13.8187 24.4151 14.2544L25.8576 15.6969L24.4151 17.1394C23.9795 17.575 23.9795 18.2815 24.4151 18.7172C24.633 18.9351 24.9185 19.044 25.204 19.044C25.4894 19.044 25.775 18.9351 25.9929 18.7172L27.4353 17.2747L28.8781 18.7172C29.0959 18.9351 29.3815 19.044 29.6669 19.044C29.9525 19.044 30.2379 18.9351 30.4558 18.7172C30.8914 18.2816 30.8914 17.5751 30.4558 17.1394L29.0133 15.6969Z" fill="white"/>
<path d="M50.8488 41.5803L52.2912 40.1378C52.7269 39.7022 52.7269 38.9957 52.2912 38.56C51.8555 38.1244 51.1492 38.1244 50.7134 38.56L49.2709 40.0025L47.8284 38.56C47.3927 38.1244 46.6864 38.1244 46.2505 38.56C45.8149 38.9956 45.8149 39.7021 46.2505 40.1378L47.693 41.5803L46.2505 43.0228C45.815 43.4586 45.815 44.165 46.2508 44.6007C46.4686 44.8185 46.7542 44.9274 47.0396 44.9274C47.3252 44.9274 47.6107 44.8185 47.8285 44.6007L49.271 43.1582L50.7135 44.6007C50.9314 44.8185 51.2169 44.9274 51.5024 44.9274C51.7878 44.9274 52.0734 44.8185 52.2912 44.6007C52.7269 44.165 52.7269 43.4586 52.2912 43.0228L50.8488 41.5803Z" fill="white"/>
<path d="M11.2931 41.5804L12.7356 40.1379C13.1713 39.7023 13.1713 38.9958 12.7356 38.5602C12.2998 38.1246 11.5936 38.1246 11.1577 38.5602L9.71523 40.0027L8.27274 38.5602C7.837 38.1246 7.13074 38.1246 6.69489 38.5602C6.25926 38.9958 6.25926 39.7023 6.69489 40.1381L8.13737 41.5805L6.69511 43.0229C6.25948 43.4585 6.25948 44.165 6.69511 44.6008C6.91298 44.8186 7.19854 44.9275 7.48398 44.9275C7.76943 44.9275 8.05499 44.8186 8.27286 44.6008L9.71534 43.1583L11.1578 44.6008C11.3757 44.8186 11.6612 44.9275 11.9467 44.9275C12.2323 44.9275 12.5177 44.8186 12.7356 44.6008C13.1712 44.1651 13.1712 43.4587 12.7356 43.0229L11.2931 41.5804Z" fill="white"/>
<path d="M27.4042 20.6989C26.7881 20.6989 26.2886 21.1984 26.2886 21.8145V21.8703C26.2886 22.4865 26.7881 22.9859 27.4042 22.9859C28.0203 22.9859 28.5198 22.4864 28.5198 21.8703V21.8145C28.5198 21.1984 28.0202 20.6989 27.4042 20.6989Z" fill="white"/>
<path d="M27.4497 26.2172L27.8301 26.2074L28.565 26.187L27.4497 26.2172Z" fill="white"/>
<path d="M31.505 38.191C31.4829 38.1682 31.4606 38.1452 31.4388 38.1222C31.0138 37.676 30.3077 37.6587 29.8615 38.0836C29.4153 38.5086 29.3979 39.2147 29.8227 39.6609C29.8508 39.6903 29.8789 39.7194 29.9072 39.7485C30.1259 39.9729 30.416 40.0854 30.7062 40.0854C30.9869 40.0854 31.268 39.9801 31.4849 39.7687C31.926 39.3386 31.935 38.6322 31.505 38.191Z" fill="white"/>
<path d="M38.9628 40.9489L38.8583 40.9385C38.247 40.8754 37.698 41.3227 37.6357 41.9358C37.5734 42.5489 38.0199 43.0962 38.633 43.1583L38.7446 43.1694C38.7818 43.1731 38.8184 43.1748 38.8549 43.1748C39.422 43.1748 39.9074 42.7443 39.9639 42.1681C40.0243 41.5549 39.5759 41.009 38.9628 40.9489Z" fill="white"/>
<path d="M34.8437 40.1515L34.7482 40.1196C34.1645 39.9227 33.5314 40.2359 33.3343 40.8197C33.1372 41.4034 33.4507 42.0365 34.0345 42.2336L34.145 42.2706C34.261 42.3089 34.3787 42.327 34.4946 42.327C34.9631 42.327 35.3992 42.0294 35.5539 41.5603C35.7469 40.9753 35.429 40.3445 34.8437 40.1515Z" fill="white"/>
<path d="M29.6011 34.8013L29.5726 34.7096C29.3934 34.1201 28.77 33.7873 28.1805 33.9668C27.591 34.1459 27.2584 34.7692 27.4377 35.3588C27.4494 35.3977 27.4615 35.4362 27.4736 35.4746C27.6241 35.9501 28.0634 36.2539 28.5369 36.2539C28.6484 36.2539 28.7619 36.2371 28.8738 36.2017C29.4613 36.0157 29.7869 35.3887 29.6011 34.8013Z" fill="white"/>
<path d="M28.8223 30.6569L28.8118 30.5524C28.7508 29.9393 28.2041 29.4913 27.5912 29.5527C26.978 29.6137 26.5305 30.1604 26.5915 30.7733L26.6029 30.8851C26.6619 31.4592 27.1464 31.8867 27.7113 31.8867C27.7494 31.8867 27.7878 31.8847 27.8267 31.8808C28.4395 31.8178 28.8853 31.2699 28.8223 30.6569Z" fill="white"/>
<path d="M28.5655 26.1886L27.8306 26.2074L26.335 26.2488L26.3376 26.3527C26.3521 26.9595 26.8486 27.4415 27.4524 27.4415C27.4615 27.4415 27.4706 27.4414 27.4799 27.4412C28.0959 27.4263 28.5831 26.9149 28.5683 26.2989L28.5655 26.1886Z" fill="white"/>
<path d="M43.2837 41.1341H43.2312C43.23 41.1341 43.2289 41.1341 43.2278 41.1341C42.6132 41.1341 42.1142 41.6315 42.1123 42.2465C42.1105 42.8626 42.6085 43.3635 43.2247 43.3654H43.2837C43.8998 43.3654 44.3993 42.8658 44.3993 42.2497C44.3993 41.6337 43.8998 41.1341 43.2837 41.1341Z" fill="white"/>
<path d="M18.278 10.4505H18.2558C17.6397 10.4505 17.1401 10.9501 17.1401 11.5662C17.1401 12.1822 17.6398 12.6818 18.2558 12.6818H18.278C18.8941 12.6818 19.3936 12.1822 19.3936 11.5662C19.3936 10.9501 18.8941 10.4505 18.278 10.4505Z" fill="white"/>
</g>
<defs>
<clipPath id="clip0">
<rect width="57" height="57" fill="white"/>
</clipPath>
</defs>
</svg>
