<svg width="43" height="49" viewBox="0 0 43 49" fill="none" xmlns="http://www.w3.org/2000/svg">
<g clip-path="url(#clip0)">
<path d="M21.5508 4.02634L21.4998 4.02625C21.0361 4.02625 20.6602 4.45461 20.6602 4.98299C20.6602 5.51137 21.0361 5.93973 21.4998 5.93973L21.5465 5.93983C21.5473 5.93983 21.548 5.93983 21.5487 5.93983C22.0115 5.93983 22.387 5.51299 22.3883 4.98548C22.3896 4.4571 22.0146 4.02768 21.5508 4.02634Z" fill="white"/>
<path d="M21.5101 26.2234C18.874 26.2234 16.7295 28.6672 16.7295 31.671C16.7295 34.6749 18.874 37.1186 21.5101 37.1186C24.1461 37.1186 26.2906 34.6749 26.2906 31.671C26.2906 28.6672 24.1461 26.2234 21.5101 26.2234ZM21.5101 35.2052C19.8 35.2052 18.4088 33.6197 18.4088 31.6711C18.4088 29.7225 19.8001 28.1371 21.5101 28.1371C23.2201 28.1371 24.6113 29.7225 24.6113 31.6711C24.6113 33.6197 23.2201 35.2052 21.5101 35.2052Z" fill="white"/>
<path d="M19.0782 9.68457C17.3916 9.68457 16.0195 11.2482 16.0195 13.1701C16.0195 15.092 17.3917 16.6556 19.0782 16.6556C20.7648 16.6556 22.1369 15.092 22.1369 13.1701C22.1369 11.2483 20.7649 9.68457 19.0782 9.68457ZM19.0782 14.7421C18.3175 14.7421 17.6987 14.037 17.6987 13.1701C17.6987 12.3032 18.3176 11.5981 19.0782 11.5981C19.8389 11.5981 20.4578 12.3032 20.4578 13.1701C20.4578 14.037 19.839 14.7421 19.0782 14.7421Z" fill="white"/>
<path d="M31.8609 25.196C31.7048 25.0181 31.489 24.9156 31.2673 24.9156C31.0465 24.9156 30.8307 25.0181 30.6737 25.196C30.5176 25.3739 30.4277 25.6208 30.4277 25.8724C30.4277 26.125 30.5176 26.3709 30.6737 26.5488C30.8299 26.7278 31.0465 26.8291 31.2673 26.8291C31.489 26.8291 31.7048 26.7277 31.8609 26.5488C32.018 26.3709 32.1069 26.125 32.1069 25.8724C32.1069 25.6207 32.0179 25.3739 31.8609 25.196Z" fill="white"/>
<path d="M30.9337 0.288066C30.7776 0.110154 30.5617 0.00775146 30.3401 0.00775146C30.1193 0.00775146 29.9026 0.110154 29.7465 0.288066C29.5904 0.465978 29.5005 0.712892 29.5005 0.964496C29.5005 1.2161 29.5904 1.46301 29.7465 1.64093C29.9027 1.81884 30.1193 1.92124 30.3401 1.92124C30.5609 1.92124 30.7776 1.81884 30.9337 1.64093C31.0907 1.46301 31.1797 1.2161 31.1797 0.964496C31.1797 0.712892 31.0906 0.466074 30.9337 0.288066Z" fill="white"/>
<path d="M42.7481 17.2365C42.592 17.0585 42.3753 16.9562 42.1545 16.9562C41.9337 16.9562 41.7171 17.0586 41.5609 17.2365C41.4048 17.4144 41.3149 17.6613 41.3149 17.913C41.3149 18.1646 41.4048 18.4115 41.5609 18.5894C41.7171 18.7673 41.9337 18.8697 42.1545 18.8697C42.3753 18.8697 42.592 18.7673 42.7481 18.5894C42.9043 18.4114 42.9941 18.1646 42.9941 17.913C42.9941 17.6613 42.9043 17.4144 42.7481 17.2365Z" fill="white"/>
<path d="M19.672 21.5286C19.5158 21.3507 19.2992 21.2483 19.0784 21.2483C18.8576 21.2483 18.6409 21.3507 18.4848 21.5286C18.3286 21.7066 18.2388 21.9534 18.2388 22.205C18.2388 22.4566 18.3286 22.7036 18.4848 22.8815C18.6409 23.0594 18.8576 23.1618 19.0784 23.1618C19.2992 23.1618 19.5158 23.0594 19.672 22.8815C19.8281 22.7036 19.918 22.4566 19.918 22.205C19.918 21.9534 19.8282 21.7065 19.672 21.5286Z" fill="white"/>
<path d="M30.9337 34.7321C30.7776 34.5542 30.5609 34.4518 30.3401 34.4518C30.1193 34.4518 29.9027 34.5542 29.7465 34.7321C29.5904 34.91 29.5005 35.1569 29.5005 35.4085C29.5005 35.6601 29.5904 35.907 29.7465 36.085C29.9026 36.2629 30.1193 36.3653 30.3401 36.3653C30.5609 36.3653 30.7776 36.2629 30.9337 36.085C31.0907 35.907 31.1797 35.6601 31.1797 35.4085C31.1797 35.1569 31.0906 34.9101 30.9337 34.7321Z" fill="white"/>
<path d="M6.97749 44.2059L4.20844 41.0504C3.88056 40.6768 3.34894 40.6768 3.02098 41.0504L0.251766 44.2059C-0.0761094 44.5796 -0.0761094 45.1854 0.251766 45.5591L3.0209 48.7146C3.18484 48.9015 3.39975 48.9948 3.61458 48.9948C3.82942 48.9948 4.04442 48.9014 4.20827 48.7146L6.9774 45.5591C7.30536 45.1856 7.30536 44.5797 6.97749 44.2059ZM3.61467 46.6849L2.03299 44.8825L3.61475 43.08L5.19643 44.8825L3.61467 46.6849Z" fill="white"/>
<path d="M42.1221 2.34109H40.9467V0.964496C40.9467 0.436023 40.5707 0.00775146 40.1071 0.00775146C39.6434 0.00775146 39.2675 0.436119 39.2675 0.964496V2.34099H38.092C37.6283 2.34099 37.2524 2.76936 37.2524 3.29774C37.2524 3.82612 37.6284 4.25448 38.092 4.25448H39.2675V5.63108C39.2675 6.15955 39.6434 6.58782 40.1071 6.58782C40.5707 6.58782 40.9467 6.15945 40.9467 5.63108V4.25458H42.1221C42.5859 4.25458 42.9617 3.82621 42.9617 3.29783C42.9617 2.76946 42.5858 2.34109 42.1221 2.34109Z" fill="white"/>
<path d="M42.5627 34.6121C42.4627 34.0962 42.0146 33.7703 41.5617 33.8844C41.1089 33.9985 40.823 34.5092 40.9231 35.0251C41.5164 38.0839 41.7376 42.2838 39.4218 44.9228C37.2169 47.4355 33.301 47.7762 28.3954 45.8827C27.4056 45.5007 26.4015 45.0363 25.3905 44.4973C28.7051 43.6679 31.7488 41.7796 34.2061 38.9794C37.5998 35.1122 39.4687 29.9705 39.4687 24.5013C39.4687 19.7841 38.0268 15.1799 35.4087 11.5369C32.8268 7.94447 29.2225 5.43657 25.2594 4.47514C24.806 4.36508 24.36 4.69477 24.2634 5.21176C24.1668 5.72866 24.4562 6.23674 24.9098 6.3468C26.7454 6.79211 28.4568 7.59047 29.9946 8.66981C27.9836 9.19818 26.4792 11.2536 26.4792 13.7033C26.4792 16.5522 28.5131 18.8699 31.0132 18.8699C33.1504 18.8699 34.9458 17.1756 35.4222 14.904C36.9288 17.7325 37.7896 21.0315 37.7896 24.5015C37.7896 34.2157 31.2069 42.2097 22.8577 42.998C19.4738 40.799 16.0807 37.8146 12.9493 34.2463C9.81797 30.678 7.199 26.8113 5.26921 22.9553C5.44868 20.4969 6.05219 18.1578 7.00273 16.0443C7.887 15.6959 8.83997 15.7317 9.70787 16.1509C10.6371 16.5998 11.3573 17.434 11.7358 18.5001C12.1144 19.5663 12.106 20.7365 11.7121 21.7953C11.3182 22.8542 10.5861 23.6749 9.6505 24.1062C9.22059 24.3043 9.01315 24.8622 9.18699 25.3521C9.31919 25.7244 9.63362 25.9503 9.96561 25.9503C10.0705 25.9503 10.1771 25.9278 10.2802 25.8802C11.6316 25.2572 12.6891 24.0717 13.2581 22.5423C13.827 21.0128 13.8391 19.3224 13.2924 17.7826C12.7457 16.2426 11.7053 15.0376 10.3632 14.3892C9.64689 14.0432 8.89053 13.8798 8.13526 13.8955C10.4972 10.0301 14.127 7.20851 18.4166 6.27196C18.8721 6.17253 19.1706 5.67123 19.0832 5.15224C18.996 4.63324 18.5561 4.29301 18.1006 4.39264C10.9618 5.95117 5.479 12.2405 3.95687 20.0774C3.48227 18.9225 3.07369 17.7754 2.73758 16.6447C1.07595 11.0546 1.3751 6.59228 3.57995 4.07979C5.82476 1.52174 9.82393 1.21348 14.8408 3.21185C15.2787 3.38632 15.7574 3.12323 15.9105 2.62443C16.0636 2.12562 15.8327 1.57992 15.395 1.40546C9.73592 -0.848734 5.11829 -0.379406 2.39249 2.72664C-0.288123 5.78139 -0.730469 10.9424 1.14709 17.2587C1.74531 19.2713 2.55895 21.3303 3.56012 23.3922C3.54274 23.7599 3.53283 24.1295 3.53283 24.5013C3.53283 29.9705 5.40182 35.1121 8.79546 38.9794C12.1891 42.8466 16.7012 44.9764 21.5007 44.9764C21.827 44.9764 22.1518 44.9657 22.4753 44.9461C24.2842 46.0868 26.0907 47.0135 27.8565 47.6951C30.1158 48.567 32.2066 49 34.0725 49C36.7844 49 39.0211 48.0855 40.6092 46.2759C42.868 43.7018 43.5436 39.6685 42.5627 34.6121ZM31.0132 16.9562C29.4391 16.9562 28.1585 15.4969 28.1585 13.7031C28.1585 11.9094 29.4391 10.4501 31.0132 10.4501C31.7234 10.4501 32.3732 10.7477 32.8732 11.2385C32.9809 11.3589 33.0872 11.4807 33.1919 11.6044C33.6132 12.1713 33.8679 12.9038 33.8679 13.7031C33.8679 15.4969 32.5873 16.9562 31.0132 16.9562ZM5.32699 26.7003C7.10998 29.7592 9.28207 32.7734 11.7619 35.5991C14.2417 38.425 16.8868 40.9 19.5712 42.9319C12.1289 41.9264 6.20958 35.181 5.32699 26.7003Z" fill="white"/>
<path d="M41.624 31.003C41.6232 31.0005 41.6219 30.9963 41.6207 30.993C41.4625 30.4986 40.9839 30.2449 40.5491 30.4231C40.1126 30.6017 39.8867 31.1522 40.0434 31.6496C40.1664 32.0402 40.4894 32.2835 40.8337 32.2835C40.9279 32.2835 41.0236 32.2653 41.1173 32.2269C41.5538 32.0483 41.7806 31.5003 41.624 31.003Z" fill="white"/>
</g>
<defs>
<clipPath id="clip0">
<rect width="43" height="49" fill="white"/>
</clipPath>
</defs>
</svg>
