<svg width="43" height="43" viewBox="0 0 43 43" fill="none" xmlns="http://www.w3.org/2000/svg">
<path d="M40.8499 19.35H23.6501V2.14987C23.6501 0.963327 22.6868 0 21.4999 0C20.3133 0 19.35 0.963327 19.35 2.14987V19.35H2.14987C0.963327 19.35 0 20.3133 0 21.4999C0 22.6868 0.963327 23.6501 2.14987 23.6501H19.35V40.8499C19.35 42.0368 20.3133 43.0001 21.4999 43.0001C22.6868 43.0001 23.6501 42.0368 23.6501 40.8499V23.6501H40.8499C42.0368 23.6501 43.0001 22.6868 43.0001 21.4999C43.0001 20.3133 42.0368 19.35 40.8499 19.35Z" fill="#D13C74"/>
</svg>
