<svg width="33" height="33" viewBox="0 0 33 33" fill="none" xmlns="http://www.w3.org/2000/svg">
<path d="M31.0973 14.8781H18.122V1.90259C18.122 1.00748 17.3953 0.280762 16.4999 0.280762C15.6048 0.280762 14.8781 1.00748 14.8781 1.90259V14.8781H1.90253C1.00742 14.8781 0.280701 15.6049 0.280701 16.5C0.280701 17.3954 1.00742 18.1221 1.90253 18.1221H14.8781V31.0973C14.8781 31.9927 15.6048 32.7195 16.4999 32.7195C17.3953 32.7195 18.122 31.9927 18.122 31.0973V18.1221H31.0973C31.9927 18.1221 32.7194 17.3954 32.7194 16.5C32.7194 15.6049 31.9927 14.8781 31.0973 14.8781V14.8781Z" fill="white"/>
</svg>
