<svg width="254" height="148" viewBox="0 0 254 148" fill="none" xmlns="http://www.w3.org/2000/svg">
<path d="M60.4902 16.5303C60.4902 18.5892 60.0345 20.2249 59.123 21.4375C58.2116 22.6419 56.9909 23.2441 55.4609 23.2441C53.6543 23.2441 52.2708 22.6094 51.3105 21.3398V28.0781H49.8579V9.79199H51.2129L51.2861 11.6597C52.2383 10.2518 53.6177 9.54785 55.4243 9.54785C57.0031 9.54785 58.2401 10.146 59.1353 11.3423C60.0386 12.5386 60.4902 14.1987 60.4902 16.3228V16.5303ZM59.0254 16.2739C59.0254 14.5894 58.6795 13.2588 57.9878 12.2822C57.2961 11.3057 56.3317 10.8174 55.0947 10.8174C54.1995 10.8174 53.4305 11.033 52.7876 11.4644C52.1447 11.8957 51.6523 12.5223 51.3105 13.3442V19.6797C51.6605 20.4365 52.161 21.0143 52.812 21.4131C53.4631 21.8118 54.2321 22.0112 55.1191 22.0112C56.348 22.0112 57.3042 21.5229 57.9878 20.5464C58.6795 19.5617 59.0254 18.1375 59.0254 16.2739ZM66.6816 16.2007C66.6816 14.9312 66.9258 13.7878 67.4141 12.7705C67.9105 11.7533 68.6063 10.9639 69.5015 10.4023C70.4048 9.83268 71.4261 9.54785 72.5654 9.54785C74.3232 9.54785 75.7474 10.1663 76.8379 11.4033C77.9284 12.6322 78.4736 14.2638 78.4736 16.2983V16.6035C78.4736 17.8812 78.2254 19.0327 77.729 20.0581C77.2407 21.0754 76.549 21.8607 75.6538 22.4141C74.7586 22.9674 73.7373 23.2441 72.5898 23.2441C70.8402 23.2441 69.416 22.6297 68.3174 21.4009C67.2269 20.1639 66.6816 18.5282 66.6816 16.4937V16.2007ZM68.1465 16.6035C68.1465 18.1823 68.5534 19.4803 69.3672 20.4976C70.1891 21.5067 71.2633 22.0112 72.5898 22.0112C73.9082 22.0112 74.9743 21.5067 75.7881 20.4976C76.61 19.4803 77.021 18.1416 77.021 16.4814V16.2007C77.021 15.1916 76.8338 14.2679 76.4595 13.4297C76.0851 12.5915 75.5602 11.9445 74.8848 11.4888C74.2093 11.0249 73.4362 10.793 72.5654 10.793C71.2633 10.793 70.2013 11.3057 69.3794 12.3311C68.5575 13.3483 68.1465 14.6829 68.1465 16.335V16.6035ZM88.4126 19.9604L88.6323 21.0957L88.9253 19.8994L92.0991 9.79199H93.3442L96.4814 19.814L96.8232 21.2056L97.104 19.9238L99.814 9.79199H101.328L97.4824 23H96.2373L92.8438 12.5264L92.6851 11.8062L92.5264 12.5386L89.1938 23H87.9487L84.1157 9.79199H85.6172L88.4126 19.9604ZM112.963 23.2441C111.84 23.2441 110.823 22.9674 109.912 22.4141C109.008 21.8607 108.304 21.0916 107.8 20.1069C107.295 19.1141 107.043 18.0033 107.043 16.7744V16.2495C107.043 14.98 107.287 13.8366 107.775 12.8193C108.272 11.8021 108.959 11.0046 109.838 10.4268C110.717 9.84082 111.669 9.54785 112.695 9.54785C114.298 9.54785 115.568 10.0972 116.503 11.1958C117.447 12.2863 117.919 13.7796 117.919 15.6758V16.4937H108.496V16.7744C108.496 18.2718 108.923 19.521 109.777 20.522C110.64 21.5148 111.722 22.0112 113.024 22.0112C113.806 22.0112 114.493 21.8688 115.087 21.584C115.69 21.2992 116.235 20.8434 116.723 20.2168L117.639 20.9126C116.564 22.467 115.006 23.2441 112.963 23.2441ZM112.695 10.793C111.596 10.793 110.668 11.1958 109.912 12.0015C109.163 12.8071 108.707 13.8895 108.544 15.2485H116.467V15.0898C116.426 13.8203 116.064 12.7868 115.38 11.9893C114.697 11.1917 113.802 10.793 112.695 10.793ZM130.617 11.0371C130.308 10.9801 129.978 10.9517 129.628 10.9517C128.717 10.9517 127.944 11.208 127.309 11.7207C126.682 12.2253 126.235 12.9618 125.966 13.9302V23H124.514V9.79199H125.942L125.966 11.8916C126.739 10.3291 127.98 9.54785 129.689 9.54785C130.096 9.54785 130.418 9.60075 130.654 9.70654L130.617 11.0371ZM141.557 23.2441C140.434 23.2441 139.417 22.9674 138.505 22.4141C137.602 21.8607 136.898 21.0916 136.394 20.1069C135.889 19.1141 135.637 18.0033 135.637 16.7744V16.2495C135.637 14.98 135.881 13.8366 136.369 12.8193C136.866 11.8021 137.553 11.0046 138.432 10.4268C139.311 9.84082 140.263 9.54785 141.289 9.54785C142.892 9.54785 144.161 10.0972 145.097 11.1958C146.041 12.2863 146.513 13.7796 146.513 15.6758V16.4937H137.089V16.7744C137.089 18.2718 137.517 19.521 138.371 20.522C139.234 21.5148 140.316 22.0112 141.618 22.0112C142.399 22.0112 143.087 21.8688 143.681 21.584C144.283 21.2992 144.829 20.8434 145.317 20.2168L146.232 20.9126C145.158 22.467 143.6 23.2441 141.557 23.2441ZM141.289 10.793C140.19 10.793 139.262 11.1958 138.505 12.0015C137.757 12.8071 137.301 13.8895 137.138 15.2485H145.061V15.0898C145.02 13.8203 144.658 12.7868 143.974 11.9893C143.291 11.1917 142.395 10.793 141.289 10.793ZM152.521 16.2739C152.521 14.2231 152.977 12.5915 153.889 11.3789C154.808 10.1582 156.053 9.54785 157.624 9.54785C159.406 9.54785 160.765 10.2518 161.701 11.6597V4.25H163.154V23H161.787L161.726 21.2422C160.79 22.5768 159.414 23.2441 157.6 23.2441C156.078 23.2441 154.849 22.6338 153.913 21.4131C152.985 20.1842 152.521 18.5282 152.521 16.4448V16.2739ZM153.999 16.5303C153.999 18.2148 154.336 19.5454 155.012 20.522C155.687 21.4904 156.639 21.9746 157.868 21.9746C159.667 21.9746 160.944 21.1812 161.701 19.5942V13.3931C160.944 11.6759 159.675 10.8174 157.893 10.8174C156.664 10.8174 155.708 11.3016 155.024 12.27C154.34 13.2303 153.999 14.6504 153.999 16.5303ZM191.21 16.5303C191.21 18.5892 190.755 20.2249 189.843 21.4375C188.932 22.6419 187.707 23.2441 186.169 23.2441C184.33 23.2441 182.938 22.5605 181.994 21.1934L181.933 23H180.566V4.25H182.019V11.7085C182.946 10.2681 184.322 9.54785 186.145 9.54785C187.707 9.54785 188.94 10.146 189.843 11.3423C190.755 12.5304 191.21 14.1865 191.21 16.3105V16.5303ZM189.746 16.2739C189.746 14.5324 189.408 13.1896 188.732 12.2456C188.057 11.2935 187.105 10.8174 185.876 10.8174C184.94 10.8174 184.147 11.0493 183.496 11.5132C182.845 11.9689 182.352 12.6403 182.019 13.5273V19.4844C182.751 21.1445 184.045 21.9746 185.9 21.9746C187.105 21.9746 188.045 21.4985 188.72 20.5464C189.404 19.5942 189.746 18.1701 189.746 16.2739ZM202.236 20.9004L206.093 9.79199H207.668L202.028 25.2461L201.735 25.9297C201.011 27.5329 199.892 28.3345 198.378 28.3345C198.028 28.3345 197.654 28.2775 197.255 28.1636L197.243 26.9551L198 27.0283C198.716 27.0283 199.294 26.8493 199.733 26.4912C200.181 26.1413 200.559 25.535 200.869 24.6724L201.516 22.8901L196.535 9.79199H198.134L202.236 20.9004Z" fill="white"/>
<path d="M49.2806 81.156C47.2006 81.156 45.3416 80.688 43.7036 79.752C42.0916 78.79 40.8176 77.503 39.8816 75.891C38.9716 74.253 38.5166 72.407 38.5166 70.353C38.5166 68.247 38.9716 66.375 39.8816 64.737C40.7916 63.099 42.0396 61.825 43.6256 60.915C45.2116 59.979 47.0316 59.511 49.0856 59.511C52.1536 59.511 54.7016 60.681 56.7296 63.021C57.0936 63.437 57.2236 63.866 57.1196 64.308C57.0156 64.75 56.7296 65.14 56.2616 65.478C55.8976 65.738 55.4946 65.829 55.0526 65.751C54.6106 65.647 54.2076 65.413 53.8436 65.049C52.5696 63.697 50.9836 63.021 49.0856 63.021C47.0836 63.021 45.4586 63.697 44.2106 65.049C42.9626 66.375 42.3386 68.143 42.3386 70.353C42.3386 71.757 42.6246 73.005 43.1966 74.097C43.7946 75.189 44.6136 76.06 45.6536 76.71C46.6936 77.334 47.9026 77.646 49.2806 77.646C51.0486 77.646 52.4786 77.191 53.5706 76.281C53.9866 75.943 54.4156 75.761 54.8576 75.735C55.2996 75.683 55.6896 75.8 56.0276 76.086C56.4696 76.45 56.7166 76.866 56.7686 77.334C56.8206 77.776 56.6646 78.179 56.3006 78.543C54.4286 80.285 52.0886 81.156 49.2806 81.156ZM72.7035 81.156C70.5975 81.156 68.7385 80.701 67.1265 79.791C65.5145 78.855 64.2405 77.581 63.3045 75.969C62.3945 74.331 61.9395 72.459 61.9395 70.353C61.9395 68.221 62.3945 66.349 63.3045 64.737C64.2405 63.099 65.5145 61.825 67.1265 60.915C68.7385 59.979 70.5975 59.511 72.7035 59.511C74.7835 59.511 76.6295 59.979 78.2415 60.915C79.8535 61.825 81.1145 63.099 82.0245 64.737C82.9605 66.349 83.4285 68.221 83.4285 70.353C83.4285 72.459 82.9735 74.331 82.0635 75.969C81.1535 77.581 79.8925 78.855 78.2805 79.791C76.6685 80.701 74.8095 81.156 72.7035 81.156ZM72.7035 77.646C74.0555 77.646 75.2515 77.334 76.2915 76.71C77.3315 76.086 78.1375 75.228 78.7095 74.136C79.3075 73.044 79.6065 71.783 79.6065 70.353C79.6065 68.923 79.3075 67.662 78.7095 66.57C78.1375 65.452 77.3315 64.581 76.2915 63.957C75.2515 63.333 74.0555 63.021 72.7035 63.021C71.3515 63.021 70.1555 63.333 69.1155 63.957C68.0755 64.581 67.2565 65.452 66.6585 66.57C66.0605 67.662 65.7615 68.923 65.7615 70.353C65.7615 71.783 66.0605 73.044 66.6585 74.136C67.2565 75.228 68.0755 76.086 69.1155 76.71C70.1555 77.334 71.3515 77.646 72.7035 77.646ZM99.0209 81.156C96.9929 81.156 95.1599 80.688 93.5219 79.752C91.9099 78.79 90.6229 77.49 89.6609 75.852C88.7249 74.214 88.2569 72.368 88.2569 70.314C88.2569 68.26 88.6859 66.427 89.5439 64.815C90.4279 63.177 91.6239 61.89 93.1319 60.954C94.6399 59.992 96.3429 59.511 98.2409 59.511C99.7749 59.511 101.192 59.836 102.492 60.486C103.792 61.11 104.884 61.968 105.768 63.06V52.53C105.768 51.932 105.95 51.451 106.314 51.087C106.704 50.723 107.185 50.541 107.757 50.541C108.355 50.541 108.836 50.723 109.2 51.087C109.564 51.451 109.746 51.932 109.746 52.53V70.314C109.746 72.368 109.265 74.214 108.303 75.852C107.367 77.49 106.093 78.79 104.481 79.752C102.869 80.688 101.049 81.156 99.0209 81.156ZM99.0209 77.646C100.347 77.646 101.53 77.334 102.57 76.71C103.61 76.06 104.429 75.176 105.027 74.058C105.625 72.94 105.924 71.692 105.924 70.314C105.924 68.91 105.625 67.662 105.027 66.57C104.429 65.478 103.61 64.62 102.57 63.996C101.53 63.346 100.347 63.021 99.0209 63.021C97.7209 63.021 96.5379 63.346 95.4719 63.996C94.4319 64.62 93.5999 65.478 92.9759 66.57C92.3779 67.662 92.0789 68.91 92.0789 70.314C92.0789 71.692 92.3779 72.94 92.9759 74.058C93.5999 75.176 94.4319 76.06 95.4719 76.71C96.5379 77.334 97.7209 77.646 99.0209 77.646ZM125.663 81.156C123.765 81.156 122.062 80.688 120.554 79.752C119.046 78.79 117.85 77.503 116.966 75.891C116.108 74.253 115.679 72.407 115.679 70.353C115.679 68.299 116.147 66.453 117.083 64.815C118.045 63.177 119.332 61.89 120.944 60.954C122.582 59.992 124.415 59.511 126.443 59.511C128.471 59.511 130.291 59.992 131.903 60.954C133.515 61.89 134.789 63.177 135.725 64.815C136.687 66.453 137.168 68.299 137.168 70.353V79.05C137.168 79.622 136.973 80.103 136.583 80.493C136.219 80.857 135.751 81.039 135.179 81.039C134.607 81.039 134.126 80.857 133.736 80.493C133.372 80.103 133.19 79.622 133.19 79.05V77.607C132.28 78.699 131.175 79.57 129.875 80.22C128.601 80.844 127.197 81.156 125.663 81.156ZM126.443 77.646C127.769 77.646 128.952 77.334 129.992 76.71C131.032 76.06 131.851 75.189 132.449 74.097C133.047 72.979 133.346 71.731 133.346 70.353C133.346 68.949 133.047 67.701 132.449 66.609C131.851 65.491 131.032 64.62 129.992 63.996C128.952 63.346 127.769 63.021 126.443 63.021C125.143 63.021 123.96 63.346 122.894 63.996C121.854 64.62 121.022 65.491 120.398 66.609C119.8 67.701 119.501 68.949 119.501 70.353C119.501 71.731 119.8 72.979 120.398 74.097C121.022 75.189 121.854 76.06 122.894 76.71C123.96 77.334 125.143 77.646 126.443 77.646ZM145.077 81.039C144.505 81.039 144.024 80.857 143.634 80.493C143.27 80.103 143.088 79.622 143.088 79.05V61.656C143.088 61.058 143.27 60.577 143.634 60.213C144.024 59.849 144.505 59.667 145.077 59.667C145.675 59.667 146.156 59.849 146.52 60.213C146.884 60.577 147.066 61.058 147.066 61.656V62.085C147.872 61.279 148.847 60.642 149.991 60.174C151.135 59.706 152.37 59.472 153.696 59.472C155.49 59.472 157.089 59.862 158.493 60.642C159.923 61.396 161.041 62.514 161.847 63.996C162.679 65.478 163.095 67.298 163.095 69.456V79.05C163.095 79.622 162.9 80.103 162.51 80.493C162.146 80.857 161.678 81.039 161.106 81.039C160.534 81.039 160.053 80.857 159.663 80.493C159.299 80.103 159.117 79.622 159.117 79.05V69.456C159.117 67.246 158.519 65.634 157.323 64.62C156.153 63.58 154.684 63.06 152.916 63.06C151.824 63.06 150.836 63.281 149.952 63.723C149.068 64.165 148.366 64.763 147.846 65.517C147.326 66.245 147.066 67.09 147.066 68.052V79.05C147.066 79.622 146.884 80.103 146.52 80.493C146.156 80.857 145.675 81.039 145.077 81.039ZM179.344 81.156C177.316 81.156 175.483 80.688 173.845 79.752C172.233 78.79 170.946 77.49 169.984 75.852C169.048 74.214 168.58 72.368 168.58 70.314C168.58 68.26 169.009 66.427 169.867 64.815C170.751 63.177 171.947 61.89 173.455 60.954C174.963 59.992 176.666 59.511 178.564 59.511C180.098 59.511 181.515 59.836 182.815 60.486C184.115 61.11 185.207 61.968 186.091 63.06V52.53C186.091 51.932 186.273 51.451 186.637 51.087C187.027 50.723 187.508 50.541 188.08 50.541C188.678 50.541 189.159 50.723 189.523 51.087C189.887 51.451 190.069 51.932 190.069 52.53V70.314C190.069 72.368 189.588 74.214 188.626 75.852C187.69 77.49 186.416 78.79 184.804 79.752C183.192 80.688 181.372 81.156 179.344 81.156ZM179.344 77.646C180.67 77.646 181.853 77.334 182.893 76.71C183.933 76.06 184.752 75.176 185.35 74.058C185.948 72.94 186.247 71.692 186.247 70.314C186.247 68.91 185.948 67.662 185.35 66.57C184.752 65.478 183.933 64.62 182.893 63.996C181.853 63.346 180.67 63.021 179.344 63.021C178.044 63.021 176.861 63.346 175.795 63.996C174.755 64.62 173.923 65.478 173.299 66.57C172.701 67.662 172.402 68.91 172.402 70.314C172.402 71.692 172.701 72.94 173.299 74.058C173.923 75.176 174.755 76.06 175.795 76.71C176.861 77.334 178.044 77.646 179.344 77.646ZM206.766 81.156C204.66 81.156 202.801 80.701 201.189 79.791C199.577 78.855 198.303 77.581 197.367 75.969C196.457 74.331 196.002 72.459 196.002 70.353C196.002 68.221 196.457 66.349 197.367 64.737C198.303 63.099 199.577 61.825 201.189 60.915C202.801 59.979 204.66 59.511 206.766 59.511C208.846 59.511 210.692 59.979 212.304 60.915C213.916 61.825 215.177 63.099 216.087 64.737C217.023 66.349 217.491 68.221 217.491 70.353C217.491 72.459 217.036 74.331 216.126 75.969C215.216 77.581 213.955 78.855 212.343 79.791C210.731 80.701 208.872 81.156 206.766 81.156ZM206.766 77.646C208.118 77.646 209.314 77.334 210.354 76.71C211.394 76.086 212.2 75.228 212.772 74.136C213.37 73.044 213.669 71.783 213.669 70.353C213.669 68.923 213.37 67.662 212.772 66.57C212.2 65.452 211.394 64.581 210.354 63.957C209.314 63.333 208.118 63.021 206.766 63.021C205.414 63.021 204.218 63.333 203.178 63.957C202.138 64.581 201.319 65.452 200.721 66.57C200.123 67.662 199.824 68.923 199.824 70.353C199.824 71.783 200.123 73.044 200.721 74.136C201.319 75.228 202.138 76.086 203.178 76.71C204.218 77.334 205.414 77.646 206.766 77.646Z" fill="white"/>
<path d="M24.9278 124.954C16.7738 124.954 12.6968 120.877 12.6968 112.723V93.688C12.6968 88.774 10.2398 86.317 5.3258 86.317C4.6238 86.317 4.0298 86.101 3.5438 85.669C3.0578 85.183 2.81481 84.589 2.81481 83.887C2.81481 83.131 3.0578 82.537 3.5438 82.105C4.0298 81.619 4.6238 81.376 5.3258 81.376C10.2398 81.376 12.6968 78.919 12.6968 74.005V54.97C12.6968 46.762 16.7738 42.658 24.9278 42.658C25.6838 42.658 26.2778 42.901 26.7098 43.387C27.1958 43.819 27.4388 44.413 27.4388 45.169C27.4388 45.871 27.1958 46.465 26.7098 46.951C26.2778 47.383 25.6838 47.599 24.9278 47.599C20.0678 47.599 17.6378 50.056 17.6378 54.97V74.005C17.6378 76.111 17.3138 77.974 16.6658 79.594C16.0718 81.214 15.1808 82.645 13.9928 83.887C16.4228 86.317 17.6378 89.584 17.6378 93.688V112.723C17.6378 117.583 20.0678 120.013 24.9278 120.013C25.6838 120.013 26.2778 120.256 26.7098 120.742C27.1958 121.228 27.4388 121.822 27.4388 122.524C27.4388 123.226 27.1958 123.793 26.7098 124.225C26.2778 124.711 25.6838 124.954 24.9278 124.954Z" fill="white"/>
<path d="M230.061 124.954C229.359 124.954 228.765 124.711 228.279 124.225C227.793 123.793 227.55 123.226 227.55 122.524C227.55 121.822 227.793 121.228 228.279 120.742C228.765 120.256 229.359 120.013 230.061 120.013C234.921 120.013 237.351 117.583 237.351 112.723V93.688C237.351 89.584 238.566 86.317 240.996 83.887C239.808 82.645 238.89 81.214 238.242 79.594C237.648 77.974 237.351 76.111 237.351 74.005V54.97C237.351 50.056 234.921 47.599 230.061 47.599C229.359 47.599 228.765 47.383 228.279 46.951C227.793 46.465 227.55 45.871 227.55 45.169C227.55 44.413 227.793 43.819 228.279 43.387C228.765 42.901 229.359 42.658 230.061 42.658C238.215 42.658 242.292 46.762 242.292 54.97V74.005C242.292 78.919 244.749 81.376 249.663 81.376C250.365 81.376 250.959 81.619 251.445 82.105C251.931 82.537 252.174 83.131 252.174 83.887C252.174 84.589 251.931 85.183 251.445 85.669C250.959 86.101 250.365 86.317 249.663 86.317C244.749 86.317 242.292 88.774 242.292 93.688V112.723C242.292 120.877 238.215 124.954 230.061 124.954Z" fill="white"/>
<path d="M35.9913 114.75C35.9913 113.303 36.458 111.53 37.3913 109.43C38.3713 107.283 39.5846 105.23 41.0313 103.27C42.5246 101.263 44.1346 99.56 45.8613 98.16C47.588 96.7133 49.2446 95.99 50.8313 95.99C51.998 95.99 53.048 96.3867 53.9813 97.18C54.9613 97.9733 55.4513 98.9767 55.4513 100.19C55.4513 100.657 55.3113 101.217 55.0313 101.87C54.7513 102.523 54.4013 103.177 53.9813 103.83C53.5613 104.437 53.0713 104.973 52.5113 105.44C51.998 105.86 51.508 106.07 51.0413 106.07C50.668 106.07 50.318 106 49.9913 105.86C49.7113 105.72 49.408 105.533 49.0813 105.3C49.548 104.507 50.0146 103.573 50.4813 102.5C50.9946 101.427 51.2513 100.47 51.2513 99.63C51.2513 99.5367 51.228 99.49 51.1813 99.49C50.5746 99.49 49.8513 99.8167 49.0113 100.47C48.1713 101.123 47.308 101.963 46.4213 102.99C45.5346 104.017 44.648 105.183 43.7613 106.49C42.9213 107.75 42.1513 109.01 41.4513 110.27C40.798 111.483 40.2613 112.627 39.8413 113.7C39.4213 114.727 39.2113 115.543 39.2113 116.15C39.2113 116.803 39.3513 117.41 39.6313 117.97C39.9113 118.53 40.448 118.81 41.2413 118.81C41.8013 118.81 42.478 118.623 43.2713 118.25C44.0646 117.83 44.8813 117.363 45.7213 116.85C46.5613 116.29 47.378 115.73 48.1713 115.17C48.9646 114.61 49.618 114.19 50.1313 113.91C50.7846 113.677 51.2046 113.84 51.3913 114.4V114.47C51.3913 115.03 50.948 115.637 50.0613 116.29C49.2213 116.943 48.218 117.55 47.0513 118.11C45.9313 118.623 44.788 119.067 43.6213 119.44C42.5013 119.813 41.6613 120 41.1013 120C39.328 120 38.0446 119.533 37.2513 118.6C36.4113 117.667 35.9913 116.383 35.9913 114.75ZM52.3013 98.86C52.2546 98.86 52.2313 98.9067 52.2313 99V99.14L52.3013 99.07V98.86ZM51.3913 102.36C51.578 101.987 51.718 101.637 51.8113 101.31C51.9046 100.937 51.998 100.563 52.0913 100.19L52.0213 100.12C51.928 100.12 51.8113 100.4 51.6713 100.96C51.5313 101.52 51.4146 101.963 51.3213 102.29L51.3913 102.36ZM51.8113 103.06C52.0446 102.687 52.278 102.313 52.5113 101.94C52.7446 101.52 52.8613 101.1 52.8613 100.68C52.7213 100.68 52.6513 100.773 52.6513 100.96L51.8113 103.06ZM37.3913 115.31C37.578 113.863 37.928 112.557 38.4413 111.39C38.9546 110.177 39.538 109.033 40.1913 107.96C40.8913 106.887 41.638 105.837 42.4313 104.81C43.2713 103.737 44.088 102.617 44.8813 101.45C44.1346 102.29 43.318 103.27 42.4313 104.39C41.5913 105.463 40.798 106.607 40.0513 107.82C39.3046 108.987 38.6746 110.2 38.1613 111.46C37.648 112.72 37.3913 113.91 37.3913 115.03V115.31ZM41.6613 103.69C41.8013 103.55 41.9413 103.41 42.0813 103.27C42.268 103.083 42.408 102.897 42.5013 102.71L41.6613 103.69ZM40.3313 105.51C40.7046 105.23 40.9146 104.927 40.9613 104.6L40.3313 105.51ZM36.6913 115.31C36.6446 113.677 36.9946 112.02 37.7413 110.34C38.5346 108.613 39.3513 107.073 40.1913 105.72C39.3513 107.167 38.5346 108.66 37.7413 110.2C36.948 111.693 36.5513 113.303 36.5513 115.03C36.5513 115.497 36.5746 115.8 36.6213 115.94C36.6213 116.08 36.6446 116.197 36.6913 116.29V115.31ZM39.3513 112.51L38.7213 114.54C38.8146 114.447 38.9313 114.143 39.0713 113.63C39.258 113.117 39.3513 112.813 39.3513 112.72V112.51ZM38.6513 115.03C38.6046 115.03 38.5813 115.053 38.5813 115.1V115.17L38.6513 115.31V115.03ZM52.7475 115.24C52.7475 114.307 52.8409 113.443 53.0275 112.65C53.2142 111.857 53.4709 110.993 53.7975 110.06C54.2642 108.94 54.9875 107.587 55.9675 106C56.9475 104.413 58.0442 102.897 59.2575 101.45C60.4709 99.9567 61.7775 98.6967 63.1775 97.67C64.5775 96.5967 65.9542 96.06 67.3075 96.06C67.6809 96.06 68.1009 96.2233 68.5675 96.55C69.0342 96.8767 69.2675 97.2967 69.2675 97.81L67.5875 99.49C66.5609 100.423 65.4175 101.613 64.1575 103.06C62.8975 104.46 61.7075 105.977 60.5875 107.61C59.5142 109.197 58.5809 110.807 57.7875 112.44C57.0409 114.027 56.6442 115.473 56.5975 116.78C56.5975 117.013 56.6209 117.247 56.6675 117.48C56.7142 117.713 56.8775 117.877 57.1575 117.97C57.5775 117.923 58.0909 117.667 58.6975 117.2C59.3509 116.687 60.0042 116.127 60.6575 115.52C61.3575 114.867 61.9875 114.237 62.5475 113.63C63.1075 112.977 63.5042 112.51 63.7375 112.23C65.0909 110.737 66.2809 109.08 67.3075 107.26C68.3342 105.44 68.8942 103.48 68.9875 101.38C68.9875 101.007 69.0342 100.61 69.1275 100.19C69.2209 99.77 69.5709 99.56 70.1775 99.56C70.6442 99.56 70.9942 99.6533 71.2275 99.84C71.4609 100.027 71.6242 100.26 71.7175 100.54C71.8109 100.82 71.8575 101.123 71.8575 101.45C71.9042 101.777 71.9275 102.103 71.9275 102.43L71.8575 102.78C71.8109 104.04 71.3209 105.51 70.3875 107.19C69.5009 108.87 68.3809 110.527 67.0275 112.16C65.7209 113.793 64.2742 115.31 62.6875 116.71C61.1475 118.063 59.7242 119.067 58.4175 119.72C58.1375 119.907 57.7642 120 57.2975 120C55.8975 120 54.7775 119.51 53.9375 118.53C53.0975 117.55 52.7009 116.453 52.7475 115.24ZM61.5675 101.94C61.7542 101.52 61.5442 101.66 60.9375 102.36C60.4709 102.873 59.9109 103.597 59.2575 104.53C58.6042 105.417 58.0442 106.21 57.5775 106.91C57.3909 107.237 57.2042 107.587 57.0175 107.96C56.8309 108.333 56.6442 108.683 56.4575 109.01C56.3175 109.337 56.2009 109.617 56.1075 109.85C56.0142 110.083 55.9675 110.223 55.9675 110.27C55.9675 110.317 56.0609 110.177 56.2475 109.85C56.4809 109.523 56.7375 109.103 57.0175 108.59C57.2975 108.123 57.6009 107.61 57.9275 107.05C58.3009 106.49 58.6509 105.953 58.9775 105.44C59.3509 104.88 59.6775 104.39 59.9575 103.97C60.2842 103.503 60.5642 103.13 60.7975 102.85C60.9375 102.663 61.0775 102.5 61.2175 102.36C61.3575 102.173 61.4742 102.033 61.5675 101.94ZM59.6075 102.5C59.8875 102.22 59.9809 102.08 59.8875 102.08C59.8875 102.033 59.7942 102.15 59.6075 102.43C59.3742 102.71 59.2575 102.873 59.2575 102.92C59.2575 102.92 59.3742 102.78 59.6075 102.5ZM59.1875 102.99C59.0942 102.99 58.9075 103.177 58.6275 103.55C58.3475 103.923 58.0209 104.39 57.6475 104.95C57.2742 105.463 56.9009 106.023 56.5275 106.63C56.1542 107.19 55.8742 107.68 55.6875 108.1C55.4075 108.66 55.1042 109.36 54.7775 110.2C54.4509 110.993 54.2409 111.53 54.1475 111.81C54.0542 112.137 54.0542 112.207 54.1475 112.02C54.2875 111.787 54.4975 111.343 54.7775 110.69C55.2442 109.757 55.7342 108.8 56.2475 107.82C56.8075 106.793 57.3909 105.813 57.9975 104.88C58.2775 104.367 58.5342 103.947 58.7675 103.62C59.0009 103.293 59.1409 103.13 59.1875 103.13V102.99ZM61.7775 104.53C61.8709 104.437 61.9175 104.343 61.9175 104.25V104.11C61.8709 104.11 61.6842 104.343 61.3575 104.81C61.0309 105.23 60.6809 105.72 60.3075 106.28C59.9342 106.84 59.5609 107.4 59.1875 107.96C58.8609 108.52 58.6275 108.94 58.4875 109.22C58.3942 109.453 58.3942 109.5 58.4875 109.36C58.5809 109.267 58.6742 109.15 58.7675 109.01C58.8609 108.87 58.9775 108.73 59.1175 108.59C59.1642 108.45 59.3042 108.193 59.5375 107.82C59.7709 107.447 60.0275 107.05 60.3075 106.63C60.5875 106.163 60.8675 105.743 61.1475 105.37C61.4275 104.95 61.6375 104.67 61.7775 104.53ZM76.5639 96.2C77.6373 96.2 78.5239 96.5267 79.2239 97.18C79.9706 97.7867 80.3906 98.6267 80.4839 99.7C80.5306 100.213 80.4139 100.82 80.1339 101.52C79.9006 102.22 79.5973 102.92 79.2239 103.62C78.8973 104.32 78.5473 105.02 78.1739 105.72C77.8473 106.42 77.6373 107.027 77.5439 107.54C78.0573 106.98 78.8739 106.07 79.9939 104.81C81.1606 103.55 82.3973 102.29 83.7039 101.03C85.0573 99.7233 86.3639 98.58 87.6239 97.6C88.8839 96.62 89.9106 96.13 90.7039 96.13C91.2639 96.13 91.7073 96.2933 92.0339 96.62C92.3606 96.9 92.6406 97.2733 92.8739 97.74C92.8739 98.16 92.6173 98.9067 92.1039 99.98C91.5906 101.053 90.9839 102.197 90.2839 103.41C89.6306 104.623 88.9773 105.767 88.3239 106.84C87.6706 107.913 87.2506 108.637 87.0639 109.01C87.1573 109.057 87.2739 109.01 87.4139 108.87C87.6006 108.683 87.7173 108.543 87.7639 108.45C88.1373 108.077 88.6739 107.517 89.3739 106.77C90.1206 106.023 90.9606 105.207 91.8939 104.32C92.8273 103.387 93.8073 102.453 94.8339 101.52C95.8606 100.54 96.8639 99.6767 97.8439 98.93C98.8239 98.1367 99.7106 97.4833 100.504 96.97C101.297 96.4567 101.951 96.2 102.464 96.2C102.837 96.2 103.211 96.3167 103.584 96.55C103.957 96.7367 104.167 97.04 104.214 97.46C104.261 98.2533 104.027 99.21 103.514 100.33C103.001 101.403 102.324 102.57 101.484 103.83C100.691 105.09 99.8039 106.42 98.8239 107.82C97.8906 109.173 97.0039 110.503 96.1639 111.81C95.3706 113.07 94.6939 114.283 94.1339 115.45C93.6206 116.57 93.4106 117.527 93.5039 118.32C93.5039 118.553 93.5739 118.693 93.7139 118.74L94.4139 118.81C94.6006 118.81 94.8573 118.763 95.1839 118.67C95.5573 118.577 95.7906 118.553 95.8839 118.6C95.8839 118.787 95.7673 118.973 95.5339 119.16C95.3473 119.3 95.0906 119.44 94.7639 119.58C94.4839 119.72 94.2039 119.837 93.9239 119.93C93.6439 120.023 93.4339 120.07 93.2939 120.07C92.6406 120.07 91.9873 119.837 91.3339 119.37C90.6806 118.857 90.3306 118.25 90.2839 117.55C90.1439 116.01 90.3773 114.517 90.9839 113.07C91.6373 111.577 92.4073 110.13 93.2939 108.73C94.2273 107.33 95.1606 105.977 96.0939 104.67C97.0273 103.317 97.7739 102.01 98.3339 100.75C96.8406 102.103 95.3473 103.48 93.8539 104.88C92.3606 106.233 90.9373 107.657 89.5839 109.15C88.2306 110.69 86.9706 112.347 85.8039 114.12C84.6373 115.847 83.3539 117.457 81.9539 118.95H81.6739C81.2073 118.95 80.7639 118.81 80.3439 118.53C79.9239 118.25 79.6906 117.853 79.6439 117.34C79.5973 116.453 79.7606 115.427 80.1339 114.26C80.5073 113.047 80.9973 111.787 81.6039 110.48C82.2573 109.173 82.9573 107.89 83.7039 106.63C84.4506 105.37 85.1273 104.227 85.7339 103.2C86.3873 102.127 86.9239 101.263 87.3439 100.61C87.7639 99.91 87.9739 99.5133 87.9739 99.42C87.5539 99.42 86.9239 99.8167 86.0839 100.61C85.2439 101.357 84.2873 102.337 83.2139 103.55C82.1873 104.717 81.0906 106.047 79.9239 107.54C78.7573 108.987 77.6606 110.387 76.6339 111.74C75.6539 113.093 74.7906 114.307 74.0439 115.38C73.2973 116.453 72.7839 117.223 72.5039 117.69C72.3173 118.017 72.0606 118.46 71.7339 119.02C71.4073 119.533 71.0106 119.79 70.5439 119.79C70.2639 119.79 69.9139 119.65 69.4939 119.37C69.0739 119.043 68.8639 118.717 68.8639 118.39C68.8173 117.923 68.9806 117.177 69.3539 116.15C69.7273 115.077 70.1939 113.863 70.7539 112.51C71.3606 111.11 72.0139 109.663 72.7139 108.17C73.4139 106.63 74.0439 105.183 74.6039 103.83C75.2106 102.477 75.7006 101.287 76.0739 100.26C76.4473 99.1867 76.6339 98.44 76.6339 98.02C76.5873 97.6 76.4473 97.2967 76.2139 97.11C75.9806 96.8767 75.8639 96.6433 75.8639 96.41V96.27L76.5639 96.2ZM90.8439 98.09C90.9373 97.9967 90.9606 97.9267 90.9139 97.88C90.9139 97.88 90.8673 97.9267 90.7739 98.02C90.7273 98.1133 90.7039 98.1833 90.7039 98.23C90.7506 98.23 90.7973 98.1833 90.8439 98.09ZM77.4739 99.63C77.4739 99.5367 77.4739 99.4667 77.4739 99.42C77.5206 99.3733 77.5439 99.3033 77.5439 99.21C77.5439 99.1167 77.5673 99.0467 77.6139 99C77.5673 98.9533 77.4506 99.2333 77.2639 99.84C76.8906 100.82 76.3773 101.987 75.7239 103.34C75.2106 104.367 74.7906 105.253 74.4639 106C74.1839 106.7 73.8339 107.517 73.4139 108.45C73.1806 108.963 72.9939 109.407 72.8539 109.78C72.7606 110.107 72.7373 110.223 72.7839 110.13C72.8773 110.037 72.9706 109.873 73.0639 109.64C73.2039 109.36 73.3439 109.057 73.4839 108.73C73.6239 108.403 73.7406 108.077 73.8339 107.75C73.9739 107.423 74.0906 107.167 74.1839 106.98C74.2773 106.7 74.5339 106.163 74.9539 105.37C75.3739 104.53 75.9339 103.363 76.6339 101.87C76.8673 101.403 77.0539 100.96 77.1939 100.54C77.3806 100.12 77.4739 99.8167 77.4739 99.63ZM78.1739 100.75C78.3139 100.377 78.3373 100.213 78.2439 100.26C78.1506 100.307 78.0339 100.54 77.8939 100.96C77.7539 101.193 77.5439 101.613 77.2639 102.22C77.0306 102.827 76.7506 103.457 76.4239 104.11C76.0039 104.997 75.5606 105.977 75.0939 107.05C74.6273 108.077 74.1839 109.057 73.7639 109.99C73.3439 110.923 72.9939 111.717 72.7139 112.37C72.4806 112.977 72.3639 113.303 72.3639 113.35C72.4106 113.35 72.6206 112.953 72.9939 112.16C73.3673 111.367 73.7639 110.48 74.1839 109.5C74.4173 108.987 74.7439 108.263 75.1639 107.33C75.6306 106.35 76.0973 105.393 76.5639 104.46C76.9839 103.527 77.3573 102.71 77.6839 102.01C78.0106 101.263 78.1739 100.843 78.1739 100.75ZM79.0139 102.78C79.3406 102.033 79.5039 101.59 79.5039 101.45C79.5039 101.45 79.2706 101.87 78.8039 102.71C78.4773 103.597 78.3373 104.04 78.3839 104.04L79.0139 102.78ZM77.9639 105.02C78.0106 104.927 78.0339 104.857 78.0339 104.81C78.0339 104.763 78.0573 104.693 78.1039 104.6C78.1039 104.507 78.1273 104.437 78.1739 104.39C78.1273 104.39 78.0339 104.53 77.8939 104.81C77.7539 105.09 77.6373 105.37 77.5439 105.65C77.4506 105.883 77.4506 105.93 77.5439 105.79C77.6839 105.65 77.8239 105.393 77.9639 105.02ZM77.1939 106.56C77.2406 106.513 77.2639 106.443 77.2639 106.35C77.2639 106.35 77.2173 106.397 77.1239 106.49C77.1239 106.63 77.1473 106.653 77.1939 106.56ZM76.9839 107.12C76.9839 107.073 76.9839 107.027 76.9839 106.98C77.0306 106.933 77.0539 106.887 77.0539 106.84C77.0539 106.793 77.0773 106.77 77.1239 106.77C77.0306 106.77 76.9373 106.887 76.8439 107.12C76.7973 107.213 76.7739 107.307 76.7739 107.4C76.7739 107.447 76.7506 107.47 76.7039 107.47C76.7506 107.47 76.8439 107.353 76.9839 107.12ZM72.4339 110.97C72.4339 110.83 72.3639 110.923 72.2239 111.25L72.0839 111.67L72.2239 111.39C72.4106 111.157 72.4806 111.017 72.4339 110.97ZM83.1439 111.39C83.1906 111.297 83.2373 111.203 83.2839 111.11C83.3306 111.017 83.3773 110.923 83.4239 110.83C83.4706 110.737 83.4939 110.667 83.4939 110.62C83.4473 110.62 83.3073 110.83 83.0739 111.25C82.8873 111.67 82.6773 112.16 82.4439 112.72C82.2106 113.28 81.9773 113.84 81.7439 114.4C81.5106 114.913 81.3706 115.287 81.3239 115.52C81.1839 115.94 81.1373 116.127 81.1839 116.08C81.2773 116.033 81.4173 115.8 81.6039 115.38C81.6973 114.867 81.9073 114.19 82.2339 113.35C82.6073 112.463 82.9106 111.81 83.1439 111.39ZM93.4339 112.58C93.5273 112.393 93.5739 112.23 93.5739 112.09C93.6206 111.903 93.6673 111.763 93.7139 111.67C93.7606 111.53 93.8073 111.413 93.8539 111.32C93.7606 111.32 93.6206 111.507 93.4339 111.88C93.2939 112.207 93.1073 112.627 92.8739 113.14C92.6873 113.607 92.5006 114.12 92.3139 114.68C92.1273 115.193 91.9873 115.613 91.8939 115.94C91.8006 116.313 91.7773 116.57 91.8239 116.71C91.8706 116.803 91.9639 116.687 92.1039 116.36C92.2439 115.753 92.4306 115.123 92.6639 114.47C92.9439 113.817 93.2006 113.187 93.4339 112.58ZM92.2439 112.93C92.2906 112.743 92.3373 112.557 92.3839 112.37C92.4773 112.183 92.5473 112.043 92.5939 111.95C92.6406 111.81 92.6873 111.693 92.7339 111.6C92.6873 111.6 92.5939 111.74 92.4539 112.02C92.3606 112.253 92.2206 112.557 92.0339 112.93C91.8939 113.257 91.7539 113.63 91.6139 114.05C91.4739 114.423 91.3573 114.773 91.2639 115.1C91.1239 115.567 91.0073 116.01 90.9139 116.43C90.8673 116.803 90.8906 116.943 90.9839 116.85C90.9839 116.757 91.0073 116.64 91.0539 116.5C91.1006 116.407 91.1239 116.29 91.1239 116.15C91.1706 115.963 91.2406 115.777 91.3339 115.59C91.4273 115.217 91.5673 114.773 91.7539 114.26C91.9406 113.747 92.1039 113.303 92.2439 112.93ZM80.9739 114.19C81.0673 113.91 81.0906 113.77 81.0439 113.77C80.9973 113.723 80.9273 113.84 80.8339 114.12C80.7406 114.4 80.6239 114.727 80.4839 115.1C80.3906 115.427 80.2973 115.753 80.2039 116.08C80.1573 116.407 80.1573 116.617 80.2039 116.71C80.2039 116.803 80.2273 116.757 80.2739 116.57C80.3206 116.383 80.3906 116.103 80.4839 115.73C80.5773 115.403 80.6473 115.1 80.6939 114.82C80.7873 114.493 80.8806 114.283 80.9739 114.19ZM93.7139 115.24C93.8539 115.193 93.8773 115.123 93.7839 115.03C93.7839 115.03 93.7606 115.077 93.7139 115.17V115.24ZM108.146 96.2C109.219 96.2 110.106 96.5267 110.806 97.18C111.553 97.7867 111.973 98.6267 112.066 99.7C112.113 100.213 111.996 100.82 111.716 101.52C111.483 102.22 111.179 102.92 110.806 103.62C110.479 104.32 110.129 105.02 109.756 105.72C109.429 106.42 109.219 107.027 109.126 107.54C109.639 106.98 110.456 106.07 111.576 104.81C112.743 103.55 113.979 102.29 115.286 101.03C116.639 99.7233 117.946 98.58 119.206 97.6C120.466 96.62 121.493 96.13 122.286 96.13C122.846 96.13 123.289 96.2933 123.616 96.62C123.943 96.9 124.223 97.2733 124.456 97.74C124.456 98.16 124.199 98.9067 123.686 99.98C123.173 101.053 122.566 102.197 121.866 103.41C121.213 104.623 120.559 105.767 119.906 106.84C119.253 107.913 118.833 108.637 118.646 109.01C118.739 109.057 118.856 109.01 118.996 108.87C119.183 108.683 119.299 108.543 119.346 108.45C119.719 108.077 120.256 107.517 120.956 106.77C121.703 106.023 122.543 105.207 123.476 104.32C124.409 103.387 125.389 102.453 126.416 101.52C127.443 100.54 128.446 99.6767 129.426 98.93C130.406 98.1367 131.293 97.4833 132.086 96.97C132.879 96.4567 133.533 96.2 134.046 96.2C134.419 96.2 134.793 96.3167 135.166 96.55C135.539 96.7367 135.749 97.04 135.796 97.46C135.843 98.2533 135.609 99.21 135.096 100.33C134.583 101.403 133.906 102.57 133.066 103.83C132.273 105.09 131.386 106.42 130.406 107.82C129.473 109.173 128.586 110.503 127.746 111.81C126.953 113.07 126.276 114.283 125.716 115.45C125.203 116.57 124.993 117.527 125.086 118.32C125.086 118.553 125.156 118.693 125.296 118.74L125.996 118.81C126.183 118.81 126.439 118.763 126.766 118.67C127.139 118.577 127.373 118.553 127.466 118.6C127.466 118.787 127.349 118.973 127.116 119.16C126.929 119.3 126.673 119.44 126.346 119.58C126.066 119.72 125.786 119.837 125.506 119.93C125.226 120.023 125.016 120.07 124.876 120.07C124.223 120.07 123.569 119.837 122.916 119.37C122.263 118.857 121.913 118.25 121.866 117.55C121.726 116.01 121.959 114.517 122.566 113.07C123.219 111.577 123.989 110.13 124.876 108.73C125.809 107.33 126.743 105.977 127.676 104.67C128.609 103.317 129.356 102.01 129.916 100.75C128.423 102.103 126.929 103.48 125.436 104.88C123.943 106.233 122.519 107.657 121.166 109.15C119.813 110.69 118.553 112.347 117.386 114.12C116.219 115.847 114.936 117.457 113.536 118.95H113.256C112.789 118.95 112.346 118.81 111.926 118.53C111.506 118.25 111.273 117.853 111.226 117.34C111.179 116.453 111.343 115.427 111.716 114.26C112.089 113.047 112.579 111.787 113.186 110.48C113.839 109.173 114.539 107.89 115.286 106.63C116.033 105.37 116.709 104.227 117.316 103.2C117.969 102.127 118.506 101.263 118.926 100.61C119.346 99.91 119.556 99.5133 119.556 99.42C119.136 99.42 118.506 99.8167 117.666 100.61C116.826 101.357 115.869 102.337 114.796 103.55C113.769 104.717 112.673 106.047 111.506 107.54C110.339 108.987 109.243 110.387 108.216 111.74C107.236 113.093 106.373 114.307 105.626 115.38C104.879 116.453 104.366 117.223 104.086 117.69C103.899 118.017 103.643 118.46 103.316 119.02C102.989 119.533 102.593 119.79 102.126 119.79C101.846 119.79 101.496 119.65 101.076 119.37C100.656 119.043 100.446 118.717 100.446 118.39C100.399 117.923 100.563 117.177 100.936 116.15C101.309 115.077 101.776 113.863 102.336 112.51C102.943 111.11 103.596 109.663 104.296 108.17C104.996 106.63 105.626 105.183 106.186 103.83C106.793 102.477 107.283 101.287 107.656 100.26C108.029 99.1867 108.216 98.44 108.216 98.02C108.169 97.6 108.029 97.2967 107.796 97.11C107.563 96.8767 107.446 96.6433 107.446 96.41V96.27L108.146 96.2ZM122.426 98.09C122.519 97.9967 122.543 97.9267 122.496 97.88C122.496 97.88 122.449 97.9267 122.356 98.02C122.309 98.1133 122.286 98.1833 122.286 98.23C122.333 98.23 122.379 98.1833 122.426 98.09ZM109.056 99.63C109.056 99.5367 109.056 99.4667 109.056 99.42C109.103 99.3733 109.126 99.3033 109.126 99.21C109.126 99.1167 109.149 99.0467 109.196 99C109.149 98.9533 109.033 99.2333 108.846 99.84C108.473 100.82 107.959 101.987 107.306 103.34C106.793 104.367 106.373 105.253 106.046 106C105.766 106.7 105.416 107.517 104.996 108.45C104.763 108.963 104.576 109.407 104.436 109.78C104.343 110.107 104.319 110.223 104.366 110.13C104.459 110.037 104.553 109.873 104.646 109.64C104.786 109.36 104.926 109.057 105.066 108.73C105.206 108.403 105.323 108.077 105.416 107.75C105.556 107.423 105.673 107.167 105.766 106.98C105.859 106.7 106.116 106.163 106.536 105.37C106.956 104.53 107.516 103.363 108.216 101.87C108.449 101.403 108.636 100.96 108.776 100.54C108.963 100.12 109.056 99.8167 109.056 99.63ZM109.756 100.75C109.896 100.377 109.919 100.213 109.826 100.26C109.733 100.307 109.616 100.54 109.476 100.96C109.336 101.193 109.126 101.613 108.846 102.22C108.613 102.827 108.333 103.457 108.006 104.11C107.586 104.997 107.143 105.977 106.676 107.05C106.209 108.077 105.766 109.057 105.346 109.99C104.926 110.923 104.576 111.717 104.296 112.37C104.063 112.977 103.946 113.303 103.946 113.35C103.993 113.35 104.203 112.953 104.576 112.16C104.949 111.367 105.346 110.48 105.766 109.5C105.999 108.987 106.326 108.263 106.746 107.33C107.213 106.35 107.679 105.393 108.146 104.46C108.566 103.527 108.939 102.71 109.266 102.01C109.593 101.263 109.756 100.843 109.756 100.75ZM110.596 102.78C110.923 102.033 111.086 101.59 111.086 101.45C111.086 101.45 110.853 101.87 110.386 102.71C110.059 103.597 109.919 104.04 109.966 104.04L110.596 102.78ZM109.546 105.02C109.593 104.927 109.616 104.857 109.616 104.81C109.616 104.763 109.639 104.693 109.686 104.6C109.686 104.507 109.709 104.437 109.756 104.39C109.709 104.39 109.616 104.53 109.476 104.81C109.336 105.09 109.219 105.37 109.126 105.65C109.033 105.883 109.033 105.93 109.126 105.79C109.266 105.65 109.406 105.393 109.546 105.02ZM108.776 106.56C108.823 106.513 108.846 106.443 108.846 106.35C108.846 106.35 108.799 106.397 108.706 106.49C108.706 106.63 108.729 106.653 108.776 106.56ZM108.566 107.12C108.566 107.073 108.566 107.027 108.566 106.98C108.613 106.933 108.636 106.887 108.636 106.84C108.636 106.793 108.659 106.77 108.706 106.77C108.613 106.77 108.519 106.887 108.426 107.12C108.379 107.213 108.356 107.307 108.356 107.4C108.356 107.447 108.333 107.47 108.286 107.47C108.333 107.47 108.426 107.353 108.566 107.12ZM104.016 110.97C104.016 110.83 103.946 110.923 103.806 111.25L103.666 111.67L103.806 111.39C103.993 111.157 104.063 111.017 104.016 110.97ZM114.726 111.39C114.773 111.297 114.819 111.203 114.866 111.11C114.913 111.017 114.959 110.923 115.006 110.83C115.053 110.737 115.076 110.667 115.076 110.62C115.029 110.62 114.889 110.83 114.656 111.25C114.469 111.67 114.259 112.16 114.026 112.72C113.793 113.28 113.559 113.84 113.326 114.4C113.093 114.913 112.953 115.287 112.906 115.52C112.766 115.94 112.719 116.127 112.766 116.08C112.859 116.033 112.999 115.8 113.186 115.38C113.279 114.867 113.489 114.19 113.816 113.35C114.189 112.463 114.493 111.81 114.726 111.39ZM125.016 112.58C125.109 112.393 125.156 112.23 125.156 112.09C125.203 111.903 125.249 111.763 125.296 111.67C125.343 111.53 125.389 111.413 125.436 111.32C125.343 111.32 125.203 111.507 125.016 111.88C124.876 112.207 124.689 112.627 124.456 113.14C124.269 113.607 124.083 114.12 123.896 114.68C123.709 115.193 123.569 115.613 123.476 115.94C123.383 116.313 123.359 116.57 123.406 116.71C123.453 116.803 123.546 116.687 123.686 116.36C123.826 115.753 124.013 115.123 124.246 114.47C124.526 113.817 124.783 113.187 125.016 112.58ZM123.826 112.93C123.873 112.743 123.919 112.557 123.966 112.37C124.059 112.183 124.129 112.043 124.176 111.95C124.223 111.81 124.269 111.693 124.316 111.6C124.269 111.6 124.176 111.74 124.036 112.02C123.943 112.253 123.803 112.557 123.616 112.93C123.476 113.257 123.336 113.63 123.196 114.05C123.056 114.423 122.939 114.773 122.846 115.1C122.706 115.567 122.589 116.01 122.496 116.43C122.449 116.803 122.473 116.943 122.566 116.85C122.566 116.757 122.589 116.64 122.636 116.5C122.683 116.407 122.706 116.29 122.706 116.15C122.753 115.963 122.823 115.777 122.916 115.59C123.009 115.217 123.149 114.773 123.336 114.26C123.523 113.747 123.686 113.303 123.826 112.93ZM112.556 114.19C112.649 113.91 112.673 113.77 112.626 113.77C112.579 113.723 112.509 113.84 112.416 114.12C112.323 114.4 112.206 114.727 112.066 115.1C111.973 115.427 111.879 115.753 111.786 116.08C111.739 116.407 111.739 116.617 111.786 116.71C111.786 116.803 111.809 116.757 111.856 116.57C111.903 116.383 111.973 116.103 112.066 115.73C112.159 115.403 112.229 115.1 112.276 114.82C112.369 114.493 112.463 114.283 112.556 114.19ZM125.296 115.24C125.436 115.193 125.459 115.123 125.366 115.03C125.366 115.03 125.343 115.077 125.296 115.17V115.24ZM138.328 96.69C138.328 96.5033 138.398 96.3867 138.538 96.34C138.725 96.2933 138.911 96.27 139.098 96.27H139.308C140.428 96.27 141.408 96.55 142.248 97.11C143.135 97.6233 143.578 98.51 143.578 99.77C143.578 100.843 143.228 102.173 142.528 103.76C141.875 105.3 141.081 106.91 140.148 108.59C139.261 110.27 138.375 111.903 137.488 113.49C136.601 115.077 135.948 116.43 135.528 117.55C137.721 116.01 139.845 114.097 141.898 111.81C143.951 109.523 145.701 107.26 147.148 105.02C147.335 104.74 147.661 104.133 148.128 103.2C148.641 102.267 149.178 101.31 149.738 100.33C150.298 99.35 150.811 98.4633 151.278 97.67C151.791 96.8767 152.141 96.4333 152.328 96.34C152.421 96.2933 152.538 96.27 152.678 96.27C152.818 96.27 152.935 96.27 153.028 96.27C153.401 96.27 153.798 96.41 154.218 96.69C154.638 96.9233 154.848 97.25 154.848 97.67C154.848 98.09 154.615 98.7667 154.148 99.7C153.728 100.633 153.191 101.73 152.538 102.99C151.885 104.25 151.161 105.603 150.368 107.05C149.575 108.45 148.851 109.827 148.198 111.18C147.545 112.487 146.985 113.723 146.518 114.89C146.098 116.01 145.888 116.92 145.888 117.62C145.888 117.947 145.935 118.227 146.028 118.46C146.168 118.693 146.425 118.81 146.798 118.81C147.125 118.81 147.428 118.74 147.708 118.6C148.035 118.413 148.291 118.32 148.478 118.32C148.571 118.32 148.618 118.39 148.618 118.53C148.618 118.763 148.501 118.973 148.268 119.16C148.081 119.347 147.848 119.51 147.568 119.65C147.288 119.79 147.008 119.907 146.728 120C146.448 120.093 146.215 120.14 146.028 120.14C144.955 120.14 144.068 119.79 143.368 119.09C142.668 118.343 142.318 117.457 142.318 116.43C142.318 115.777 142.411 115.17 142.598 114.61C142.785 114.003 142.878 113.373 142.878 112.72C142.505 113.14 141.991 113.747 141.338 114.54C140.685 115.287 139.961 116.057 139.168 116.85C138.421 117.643 137.651 118.343 136.858 118.95C136.111 119.51 135.458 119.79 134.898 119.79C134.198 119.79 133.545 119.58 132.938 119.16C132.285 118.74 131.958 118.157 131.958 117.41C131.958 116.197 132.355 114.727 133.148 113C133.941 111.227 134.805 109.43 135.738 107.61C136.671 105.79 137.535 104.063 138.328 102.43C139.121 100.75 139.518 99.3967 139.518 98.37C139.518 97.8567 139.308 97.4833 138.888 97.25C138.515 96.97 138.328 96.7833 138.328 96.69ZM140.358 99.21C140.218 99.21 140.125 99.49 140.078 100.05L139.728 101.24C139.635 101.427 139.588 101.567 139.588 101.66C139.635 101.707 139.681 101.66 139.728 101.52C139.821 101.333 139.915 101.123 140.008 100.89C140.101 100.657 140.171 100.423 140.218 100.19C140.311 99.9567 140.358 99.77 140.358 99.63V99.21ZM141.198 100.54V100.05C141.151 100.05 141.128 100.073 141.128 100.12C141.128 100.167 141.105 100.213 141.058 100.26C141.058 100.307 141.058 100.353 141.058 100.4C140.825 100.913 140.638 101.427 140.498 101.94C140.358 102.453 140.288 102.733 140.288 102.78C140.335 102.827 140.475 102.593 140.708 102.08C140.941 101.52 141.105 101.123 141.198 100.89V100.54ZM142.598 101.73C142.691 101.637 142.738 101.52 142.738 101.38C142.738 101.193 142.738 101.077 142.738 101.03C142.738 101.077 142.715 101.123 142.668 101.17C142.575 101.263 142.528 101.357 142.528 101.45C142.435 101.73 142.388 101.963 142.388 102.15L142.458 102.08C142.505 102.033 142.528 101.987 142.528 101.94C142.528 101.893 142.551 101.823 142.598 101.73ZM144.768 113.28C144.768 113.233 144.768 113.187 144.768 113.14C144.815 113.093 144.838 113.047 144.838 113V112.93C144.791 112.93 144.721 113.047 144.628 113.28C144.535 113.513 144.441 113.793 144.348 114.12C144.255 114.447 144.161 114.773 144.068 115.1C143.975 115.427 143.928 115.683 143.928 115.87V116.43C143.975 116.43 144.115 115.963 144.348 115.03C144.441 114.657 144.511 114.307 144.558 113.98C144.651 113.653 144.721 113.42 144.768 113.28ZM143.438 114.89C143.438 114.797 143.438 114.703 143.438 114.61C143.485 114.47 143.508 114.353 143.508 114.26V113.98C143.415 113.887 143.321 114.097 143.228 114.61C143.135 115.123 143.088 115.567 143.088 115.94V116.36V116.64V116.57C143.088 116.523 143.088 116.5 143.088 116.5C143.135 116.453 143.158 116.383 143.158 116.29C143.158 116.15 143.181 115.94 143.228 115.66C143.275 115.38 143.345 115.123 143.438 114.89ZM133.778 116.71C133.825 116.617 133.848 116.523 133.848 116.43C133.848 116.29 133.871 116.173 133.918 116.08C133.918 115.987 133.941 115.893 133.988 115.8C133.941 115.753 133.848 115.917 133.708 116.29C133.568 116.663 133.475 116.943 133.428 117.13C133.428 117.177 133.428 117.223 133.428 117.27C133.381 117.317 133.358 117.387 133.358 117.48C133.358 117.573 133.381 117.62 133.428 117.62C133.475 117.62 133.591 117.317 133.778 116.71ZM132.798 116.78C132.845 116.64 132.868 116.43 132.868 116.15C132.821 116.103 132.751 116.267 132.658 116.64C132.565 116.967 132.518 117.2 132.518 117.34V117.48C132.518 117.527 132.541 117.55 132.588 117.55C132.635 117.55 132.705 117.293 132.798 116.78ZM145.468 116.22C145.468 116.08 145.445 116.01 145.398 116.01V116.15C145.398 116.243 145.421 116.267 145.468 116.22ZM158.948 96.2C159.975 96.2 160.862 96.5267 161.608 97.18C162.355 97.8333 162.775 98.6733 162.868 99.7C162.915 100.493 162.798 101.31 162.518 102.15C162.285 102.99 161.982 103.83 161.608 104.67C161.235 105.51 160.838 106.327 160.418 107.12C159.998 107.913 159.648 108.66 159.368 109.36C159.835 108.987 160.488 108.403 161.328 107.61C162.168 106.817 163.078 105.93 164.058 104.95C165.085 103.97 166.135 102.967 167.208 101.94C168.328 100.913 169.402 99.98 170.428 99.14C171.502 98.2533 172.482 97.5533 173.368 97.04C174.255 96.48 174.978 96.2 175.538 96.2C175.958 96.2 176.332 96.34 176.658 96.62C176.985 96.9 177.172 97.25 177.218 97.67C177.265 98.1833 177.032 98.93 176.518 99.91C176.052 100.89 175.422 102.01 174.628 103.27C173.882 104.53 173.065 105.86 172.178 107.26C171.292 108.66 170.452 110.06 169.658 111.46C168.912 112.813 168.305 114.12 167.838 115.38C167.372 116.593 167.185 117.643 167.278 118.53C167.278 118.763 167.418 118.88 167.698 118.88C167.978 118.88 168.258 118.857 168.538 118.81C168.818 118.717 169.098 118.647 169.378 118.6C169.098 119.02 168.702 119.37 168.188 119.65C167.722 119.93 167.232 120.07 166.718 120.07C165.878 120.07 165.248 119.837 164.828 119.37C164.408 118.857 164.175 118.203 164.128 117.41C163.988 116.103 164.198 114.68 164.758 113.14C165.365 111.6 166.088 110.06 166.928 108.52C167.768 106.98 168.632 105.487 169.518 104.04C170.452 102.593 171.222 101.333 171.828 100.26C168.795 102.22 166.042 104.6 163.568 107.4C161.142 110.2 158.808 113 156.568 115.8C156.428 115.94 156.195 116.243 155.868 116.71C155.588 117.13 155.262 117.573 154.888 118.04C154.562 118.46 154.212 118.857 153.838 119.23C153.512 119.603 153.255 119.79 153.068 119.79C152.695 119.79 152.345 119.65 152.018 119.37C151.645 119.09 151.318 118.81 151.038 118.53C151.178 117.643 151.482 116.593 151.948 115.38C152.415 114.12 152.928 112.813 153.488 111.46C154.095 110.107 154.702 108.73 155.308 107.33C155.962 105.883 156.545 104.53 157.058 103.27C157.572 102.01 157.968 100.89 158.248 99.91C158.575 98.93 158.715 98.16 158.668 97.6C158.622 97.3667 158.528 97.11 158.388 96.83C158.295 96.55 158.295 96.34 158.388 96.2H158.948ZM159.578 98.93C159.625 98.5567 159.602 98.44 159.508 98.58C159.415 98.6733 159.322 98.9533 159.228 99.42C159.182 99.6533 159.088 99.98 158.948 100.4C158.855 100.773 158.738 101.17 158.598 101.59C158.505 102.01 158.388 102.383 158.248 102.71C158.108 103.037 158.015 103.247 157.968 103.34C157.875 103.527 157.828 103.643 157.828 103.69C157.922 103.783 158.038 103.667 158.178 103.34C158.318 102.967 158.505 102.5 158.738 101.94C158.972 101.427 159.158 100.89 159.298 100.33C159.438 99.77 159.532 99.3033 159.578 98.93ZM160.348 100.75C160.255 100.377 160.232 100.19 160.278 100.19C160.278 100.237 160.255 100.307 160.208 100.4C160.115 100.587 160.068 100.727 160.068 100.82C159.835 101.567 159.602 102.243 159.368 102.85C159.135 103.41 158.925 103.923 158.738 104.39C158.505 105.043 158.412 105.323 158.458 105.23C158.552 105.137 158.762 104.763 159.088 104.11C159.415 103.41 159.695 102.757 159.928 102.15C160.162 101.497 160.302 101.03 160.348 100.75ZM161.818 102.15C161.818 101.777 161.772 101.66 161.678 101.8C161.632 101.847 161.562 101.987 161.468 102.22C161.422 102.453 161.352 102.71 161.258 102.99C161.212 103.223 161.165 103.457 161.118 103.69C161.072 103.877 161.048 103.97 161.048 103.97C161.048 103.97 161.072 103.9 161.118 103.76C161.212 103.62 161.305 103.457 161.398 103.27C161.492 103.037 161.562 102.827 161.608 102.64C161.702 102.407 161.772 102.243 161.818 102.15ZM166.438 114.19C166.392 114.19 166.322 114.33 166.228 114.61C166.135 114.843 166.018 115.147 165.878 115.52C165.785 115.847 165.692 116.173 165.598 116.5C165.552 116.827 165.528 117.06 165.528 117.2C165.575 117.34 165.622 117.317 165.668 117.13C165.715 116.897 165.808 116.523 165.948 116.01C166.042 115.59 166.135 115.217 166.228 114.89C166.322 114.563 166.392 114.377 166.438 114.33V114.19ZM164.898 116.5C165.038 115.8 165.108 115.38 165.108 115.24C165.062 115.24 165.015 115.333 164.968 115.52C164.922 115.66 164.875 115.87 164.828 116.15C164.782 116.383 164.735 116.617 164.688 116.85C164.642 117.083 164.618 117.247 164.618 117.34C164.665 117.573 164.758 117.293 164.898 116.5ZM181.74 96.55C181.74 96.3633 181.903 96.2467 182.23 96.2C182.557 96.1533 182.743 96.13 182.79 96.13C183.583 96.13 184.283 96.4567 184.89 97.11C185.543 97.7167 185.87 98.4167 185.87 99.21C185.87 100.05 185.637 101.077 185.17 102.29C184.703 103.457 184.12 104.693 183.42 106C182.72 107.26 181.95 108.567 181.11 109.92C180.317 111.227 179.57 112.44 178.87 113.56C178.17 114.68 177.587 115.683 177.12 116.57C176.653 117.41 176.42 117.993 176.42 118.32C176.42 118.647 176.443 118.88 176.49 119.02C176.583 119.113 176.677 119.183 176.77 119.23C176.863 119.277 176.98 119.323 177.12 119.37C177.26 119.417 177.377 119.533 177.47 119.72C177.47 119.86 177.26 119.977 176.84 120.07C176.42 120.163 176.14 120.21 176 120.21C175.72 120.21 175.393 120.117 175.02 119.93C174.693 119.743 174.367 119.51 174.04 119.23C173.76 118.95 173.527 118.647 173.34 118.32C173.107 117.947 172.99 117.597 172.99 117.27C172.99 116.663 173.223 115.847 173.69 114.82C174.11 113.747 174.647 112.58 175.3 111.32C176 110.06 176.747 108.753 177.54 107.4C178.333 106.047 179.057 104.763 179.71 103.55C180.41 102.29 180.97 101.17 181.39 100.19C181.857 99.1633 182.09 98.3933 182.09 97.88C182.09 97.6467 182.02 97.4367 181.88 97.25C181.787 97.0167 181.74 96.7833 181.74 96.55ZM182.16 100.68C182.207 100.68 182.253 100.587 182.3 100.4C182.393 100.167 182.463 99.9333 182.51 99.7C182.603 99.4667 182.673 99.2567 182.72 99.07C182.813 98.8367 182.86 98.6733 182.86 98.58V98.37C182.767 98.37 182.673 98.58 182.58 99C182.487 99.3733 182.417 99.6067 182.37 99.7C182.323 99.84 182.277 100.003 182.23 100.19C182.183 100.33 182.16 100.493 182.16 100.68ZM182.58 102.15C182.627 102.15 182.697 102.033 182.79 101.8C182.93 101.567 183.047 101.31 183.14 101.03C183.28 100.75 183.397 100.47 183.49 100.19C183.583 99.91 183.63 99.7233 183.63 99.63V99.35C183.583 99.35 183.49 99.5133 183.35 99.84C183.257 100.167 183.187 100.377 183.14 100.47C183.093 100.563 182.977 100.843 182.79 101.31C182.65 101.777 182.58 102.057 182.58 102.15ZM184.54 102.15C184.727 101.823 184.82 101.497 184.82 101.17V100.89C184.727 101.123 184.657 101.333 184.61 101.52C184.563 101.707 184.54 101.917 184.54 102.15ZM174.67 117.2C174.763 117.2 174.88 116.92 175.02 116.36C175.16 115.8 175.253 115.427 175.3 115.24C175.207 115.38 175.067 115.683 174.88 116.15C174.693 116.57 174.6 116.85 174.6 116.99V117.13C174.6 117.177 174.623 117.2 174.67 117.2ZM173.69 117.2C173.83 116.967 173.923 116.733 173.97 116.5C174.017 116.267 174.063 116.033 174.11 115.8L173.69 117.2ZM184.68 90.32C184.68 89.5267 184.937 88.9433 185.45 88.57C186.01 88.15 186.64 87.94 187.34 87.94C187.993 87.94 188.6 88.1033 189.16 88.43C189.767 88.7567 190.07 89.2933 190.07 90.04C190.07 90.6933 189.86 91.2767 189.44 91.79C189.02 92.3033 188.483 92.56 187.83 92.56C187.27 92.56 186.593 92.35 185.8 91.93C185.053 91.51 184.68 90.9733 184.68 90.32ZM202.187 77.37C202.98 77.51 203.68 77.7433 204.287 78.07C204.94 78.3967 205.244 79.0267 205.197 79.96C205.15 81.5 204.87 83.0167 204.357 84.51C203.844 86.0033 203.494 87.4967 203.307 88.99C203.727 89.0833 204.17 89.1767 204.637 89.27C205.104 89.3633 205.547 89.5033 205.967 89.69C206.387 89.8767 206.737 90.1333 207.017 90.46C207.297 90.7867 207.437 91.23 207.437 91.79C207.437 92.35 207.274 92.7467 206.947 92.98C206.667 93.1667 206.27 93.26 205.757 93.26C205.104 93.26 204.45 93.19 203.797 93.05C203.144 92.91 202.49 92.84 201.837 92.84C201.184 94.1933 200.274 96.0133 199.107 98.3C197.987 100.587 196.844 102.967 195.677 105.44C194.557 107.867 193.577 110.2 192.737 112.44C191.897 114.633 191.454 116.313 191.407 117.48C191.407 117.62 191.407 117.783 191.407 117.97C191.407 118.11 191.454 118.25 191.547 118.39C191.78 118.483 192.037 118.577 192.317 118.67C192.597 118.763 192.854 118.903 193.087 119.09C192.62 119.697 192.06 120 191.407 120C190.754 120 190.217 119.837 189.797 119.51C189.377 119.137 189.027 118.693 188.747 118.18C188.467 117.62 188.28 117.06 188.187 116.5C188.047 115.893 187.977 115.333 187.977 114.82C188.024 113.093 188.397 111.297 189.097 109.43C189.797 107.517 190.59 105.627 191.477 103.76C192.41 101.893 193.367 100.05 194.347 98.23C195.327 96.41 196.12 94.6833 196.727 93.05C195.887 93.05 195 93.1433 194.067 93.33C193.134 93.5167 192.247 93.5633 191.407 93.47C191.314 93.33 191.244 93.0267 191.197 92.56C191.197 92.0933 191.197 91.7667 191.197 91.58C191.197 91.1133 191.524 90.74 192.177 90.46C192.877 90.1333 193.67 89.8767 194.557 89.69C195.444 89.4567 196.307 89.2933 197.147 89.2C197.987 89.1067 198.57 89.0367 198.897 88.99C199.597 87.1233 200.297 85.2333 200.997 83.32C201.697 81.36 202.094 79.3767 202.187 77.37ZM200.857 86.19C201.09 85.5367 201.23 85.0933 201.277 84.86C201.37 84.6267 201.3 84.7667 201.067 85.28C201.02 85.42 200.904 85.7 200.717 86.12C200.53 86.4933 200.367 86.89 200.227 87.31C199.854 88.1033 199.644 88.5933 199.597 88.78C199.55 88.92 199.574 88.99 199.667 88.99C199.854 88.99 200.25 88.0567 200.857 86.19ZM192.597 91.72C192.69 91.72 192.737 91.72 192.737 91.72C192.737 91.6733 192.69 91.65 192.597 91.65C192.55 91.65 192.504 91.6733 192.457 91.72C192.41 91.72 192.34 91.72 192.247 91.72C192.2 91.8133 192.2 91.86 192.247 91.86C192.387 91.86 192.504 91.8133 192.597 91.72ZM197.987 92.98C197.987 92.8867 197.94 92.84 197.847 92.84C197.8 92.84 197.66 93.05 197.427 93.47C197.24 93.89 196.984 94.4267 196.657 95.08C196.424 95.6867 196.097 96.3867 195.677 97.18C195.257 97.9733 194.93 98.65 194.697 99.21C194.324 99.8633 193.904 100.703 193.437 101.73C192.97 102.71 192.504 103.713 192.037 104.74C191.57 105.767 191.127 106.723 190.707 107.61C190.334 108.497 190.077 109.127 189.937 109.5C189.844 109.873 189.727 110.27 189.587 110.69C189.447 111.063 189.33 111.367 189.237 111.6C189.097 112.02 188.98 112.463 188.887 112.93C188.794 113.397 188.794 113.583 188.887 113.49C188.887 113.443 188.91 113.327 188.957 113.14C189.05 112.907 189.144 112.627 189.237 112.3C189.377 111.973 189.517 111.553 189.657 111.04C189.844 110.527 190.03 110.037 190.217 109.57C190.404 109.15 190.684 108.497 191.057 107.61C191.43 106.723 191.85 105.79 192.317 104.81C192.784 103.783 193.25 102.78 193.717 101.8C194.23 100.773 194.674 99.91 195.047 99.21C195.28 98.7433 195.56 98.16 195.887 97.46C196.214 96.76 196.54 96.0833 196.867 95.43C197.194 94.7767 197.45 94.2167 197.637 93.75C197.87 93.2367 197.987 92.98 197.987 92.98ZM198.407 94.8C198.594 94.3333 198.734 93.9367 198.827 93.61C198.967 93.2833 199.037 93.0967 199.037 93.05C199.037 93.0033 198.92 93.2133 198.687 93.68C198.454 94.1 198.197 94.6367 197.917 95.29C197.544 95.9433 197.124 96.76 196.657 97.74C196.237 98.72 195.84 99.56 195.467 100.26C194.254 102.64 193.18 104.88 192.247 106.98C191.314 109.033 190.707 110.527 190.427 111.46C190.194 112.113 190.1 112.417 190.147 112.37C190.24 112.323 190.45 111.903 190.777 111.11C190.964 110.643 191.244 109.967 191.617 109.08C192.037 108.193 192.48 107.237 192.947 106.21C193.46 105.137 193.974 104.04 194.487 102.92C195.047 101.8 195.56 100.75 196.027 99.77C196.494 98.8367 196.937 97.88 197.357 96.9C197.824 95.92 198.174 95.22 198.407 94.8ZM199.247 96.97C199.34 96.7833 199.41 96.5967 199.457 96.41C199.55 96.2233 199.644 96.06 199.737 95.92C199.784 95.7333 199.83 95.5933 199.877 95.5L199.807 95.57C199.714 95.6633 199.667 95.7333 199.667 95.78C199.574 96.0133 199.224 96.7367 198.617 97.95C198.057 99.1167 197.45 100.33 196.797 101.59C196.237 102.663 195.654 103.83 195.047 105.09C194.487 106.35 193.95 107.54 193.437 108.66C192.924 109.78 192.504 110.737 192.177 111.53C191.85 112.277 191.687 112.72 191.687 112.86C191.687 112.907 191.827 112.65 192.107 112.09C192.387 111.483 192.714 110.737 193.087 109.85C194.114 107.75 194.977 105.977 195.677 104.53C196.377 103.037 196.914 101.94 197.287 101.24C197.474 100.913 197.614 100.633 197.707 100.4C197.847 100.167 197.917 100.027 197.917 99.98C197.917 99.8867 198.034 99.6067 198.267 99.14C198.407 98.9533 198.57 98.65 198.757 98.23C198.944 97.7633 199.107 97.3433 199.247 96.97ZM201.796 117.83C201.889 117.83 202.286 117.48 202.986 116.78C203.733 116.033 204.526 115.217 205.366 114.33C206.253 113.443 207.069 112.603 207.816 111.81C208.563 110.97 209.029 110.433 209.216 110.2C209.963 109.407 210.686 108.567 211.386 107.68C212.133 106.793 212.739 105.86 213.206 104.88C213.346 104.553 213.626 103.923 214.046 102.99C214.513 102.057 215.003 101.1 215.516 100.12C216.029 99.0933 216.496 98.1833 216.916 97.39C217.383 96.55 217.709 96.0367 217.896 95.85C218.176 95.57 218.526 95.43 218.946 95.43C219.319 95.43 219.646 95.5467 219.926 95.78C220.253 95.9667 220.393 96.27 220.346 96.69C220.299 97.5767 220.019 98.7667 219.506 100.26C219.039 101.707 218.433 103.317 217.686 105.09C216.986 106.817 216.169 108.637 215.236 110.55C214.349 112.463 213.439 114.283 212.506 116.01C211.619 117.737 210.756 119.323 209.916 120.77C209.123 122.217 208.469 123.36 207.956 124.2C207.256 125.273 206.416 126.603 205.436 128.19C204.456 129.777 203.359 131.41 202.146 133.09C200.933 134.817 199.649 136.52 198.296 138.2C196.896 139.88 195.473 141.373 194.026 142.68C192.579 144.033 191.109 145.13 189.616 145.97C188.123 146.81 186.676 147.23 185.276 147.23C184.763 147.23 184.249 147.113 183.736 146.88C183.176 146.693 182.709 146.413 182.336 146.04C181.916 145.713 181.589 145.293 181.356 144.78C181.076 144.313 180.959 143.8 181.006 143.24C181.146 140.767 181.846 138.48 183.106 136.38C184.366 134.327 185.883 132.46 187.656 130.78C189.429 129.1 191.343 127.607 193.396 126.3C195.449 125.04 197.363 123.943 199.136 123.01C200.956 122.077 202.496 121.283 203.756 120.63C205.016 120.023 205.739 119.557 205.926 119.23C206.299 118.577 206.626 117.923 206.906 117.27C207.186 116.57 207.513 115.893 207.886 115.24C207.933 115.053 208.049 114.797 208.236 114.47C208.469 114.097 208.679 113.723 208.866 113.35C209.099 112.977 209.286 112.627 209.426 112.3C209.566 111.973 209.636 111.763 209.636 111.67C209.496 111.717 209.029 112.183 208.236 113.07C207.489 113.91 206.626 114.843 205.646 115.87C204.713 116.897 203.756 117.83 202.776 118.67C201.796 119.51 201.026 119.93 200.466 119.93C199.953 119.93 199.556 119.79 199.276 119.51C198.996 119.183 198.809 118.787 198.716 118.32C198.576 117.853 198.506 117.363 198.506 116.85C198.506 116.337 198.506 115.893 198.506 115.52C198.553 114.213 198.949 112.743 199.696 111.11C200.443 109.43 201.259 107.797 202.146 106.21C203.033 104.577 203.826 103.083 204.526 101.73C205.273 100.33 205.669 99.2333 205.716 98.44C205.716 98.16 205.693 97.88 205.646 97.6C205.646 97.32 205.646 97.0167 205.646 96.69C205.693 96.2233 205.949 95.99 206.416 95.99C207.349 95.99 208.119 96.2467 208.726 96.76C209.333 97.2733 209.589 97.9967 209.496 98.93C209.403 100.283 208.959 101.753 208.166 103.34C207.373 104.927 206.509 106.537 205.576 108.17C204.689 109.803 203.849 111.413 203.056 113C202.263 114.587 201.819 116.057 201.726 117.41C201.726 117.457 201.703 117.55 201.656 117.69C201.656 117.783 201.703 117.83 201.796 117.83ZM185.346 145.2C186.466 145.2 187.679 144.757 188.986 143.87C190.246 142.983 191.529 141.84 192.836 140.44C194.143 139.04 195.426 137.477 196.686 135.75C197.946 134.07 199.113 132.367 200.186 130.64C201.259 128.96 202.193 127.373 202.986 125.88C203.779 124.433 204.386 123.267 204.806 122.38C204.619 122.333 204.223 122.427 203.616 122.66C203.056 122.893 202.449 123.173 201.796 123.5C201.143 123.827 200.513 124.13 199.906 124.41C199.346 124.737 198.973 124.947 198.786 125.04C197.246 125.88 195.589 126.93 193.816 128.19C192.043 129.497 190.409 130.92 188.916 132.46C187.376 134.047 186.093 135.727 185.066 137.5C183.993 139.273 183.409 141.093 183.316 142.96C183.269 143.613 183.433 144.15 183.806 144.57C184.179 144.99 184.693 145.2 185.346 145.2ZM217.336 98.44C217.569 97.88 217.756 97.4133 217.896 97.04C218.083 96.62 218.176 96.3867 218.176 96.34C218.129 96.34 218.036 96.5033 217.896 96.83C217.756 97.11 217.359 97.9267 216.706 99.28C216.426 99.9333 216.169 100.493 215.936 100.96C215.749 101.427 215.656 101.683 215.656 101.73C215.703 101.823 215.866 101.567 216.146 100.96C216.473 100.353 216.869 99.5133 217.336 98.44ZM206.416 99.21C206.509 98.8367 206.533 98.65 206.486 98.65C206.486 98.65 206.439 98.6967 206.346 98.79C206.346 98.8833 206.276 99.14 206.136 99.56C205.996 99.9333 205.809 100.4 205.576 100.96C205.343 101.473 205.086 102.01 204.806 102.57C204.573 103.13 204.339 103.62 204.106 104.04C203.686 104.833 203.243 105.65 202.776 106.49C202.356 107.33 201.959 108.123 201.586 108.87C201.213 109.617 200.886 110.293 200.606 110.9C200.326 111.507 200.116 111.973 199.976 112.3C199.743 112.813 199.533 113.397 199.346 114.05C199.206 114.703 199.159 115.053 199.206 115.1C199.253 115.147 199.369 114.867 199.556 114.26C199.883 113.093 200.443 111.67 201.236 109.99C202.076 108.263 203.243 106 204.736 103.2C205.156 102.453 205.506 101.707 205.786 100.96C206.113 100.213 206.323 99.63 206.416 99.21ZM206.696 101.45C206.929 100.797 207.023 100.423 206.976 100.33C206.929 100.237 206.789 100.493 206.556 101.1C206.463 101.38 206.276 101.8 205.996 102.36C205.716 102.873 205.459 103.363 205.226 103.83C203.733 106.677 202.589 108.917 201.796 110.55C201.049 112.137 200.606 113.233 200.466 113.84C200.326 114.167 200.279 114.377 200.326 114.47C200.419 114.517 200.513 114.377 200.606 114.05C200.653 113.77 200.816 113.303 201.096 112.65C201.376 111.997 201.726 111.25 202.146 110.41C202.566 109.523 203.033 108.59 203.546 107.61C204.059 106.63 204.573 105.65 205.086 104.67C205.459 104.017 205.786 103.387 206.066 102.78C206.393 102.127 206.603 101.683 206.696 101.45ZM207.956 102.22C208.096 101.847 208.143 101.707 208.096 101.8C208.049 101.847 207.909 102.103 207.676 102.57C207.443 103.223 207.116 103.877 206.696 104.53C206.603 104.67 206.509 104.81 206.416 104.95C206.369 105.09 206.323 105.207 206.276 105.3C206.183 105.44 206.136 105.533 206.136 105.58C206.183 105.58 206.299 105.44 206.486 105.16C206.673 104.833 206.859 104.483 207.046 104.11C207.279 103.737 207.489 103.363 207.676 102.99C207.863 102.617 207.956 102.36 207.956 102.22ZM214.886 106.14C215.259 105.347 215.493 104.787 215.586 104.46C215.679 104.133 215.609 104.157 215.376 104.53C215.283 104.623 215.096 104.973 214.816 105.58C214.536 106.14 214.233 106.77 213.906 107.47C213.533 108.17 213.136 108.963 212.716 109.85C212.296 110.69 211.969 111.367 211.736 111.88C211.503 112.347 211.246 112.86 210.966 113.42C210.686 113.933 210.453 114.353 210.266 114.68L208.936 117.34C208.703 117.807 208.493 118.203 208.306 118.53C208.166 118.81 208.096 118.973 208.096 119.02C208.096 119.113 208.329 118.717 208.796 117.83C209.309 116.943 209.916 115.847 210.616 114.54C211.316 113.187 212.063 111.763 212.856 110.27C213.649 108.73 214.326 107.353 214.886 106.14ZM216.916 105.37C217.149 104.81 217.266 104.483 217.266 104.39C217.313 104.297 217.219 104.507 216.986 105.02C216.893 105.207 216.706 105.58 216.426 106.14C216.146 106.7 215.843 107.26 215.516 107.82C215.283 108.427 214.979 109.15 214.606 109.99C214.233 110.783 213.883 111.483 213.556 112.09C213.323 112.65 213.089 113.14 212.856 113.56C212.669 113.933 212.576 114.143 212.576 114.19C212.623 114.19 212.809 113.887 213.136 113.28C213.463 112.673 213.836 111.927 214.256 111.04C214.723 110.107 215.189 109.127 215.656 108.1C216.123 107.073 216.543 106.163 216.916 105.37ZM211.876 109.71C212.063 109.337 212.156 109.08 212.156 108.94C212.156 108.94 212.016 109.15 211.736 109.57C211.503 109.99 211.246 110.48 210.966 111.04C210.686 111.553 210.429 112.067 210.196 112.58C209.963 113.047 209.823 113.35 209.776 113.49C209.776 113.583 209.823 113.537 209.916 113.35C210.056 113.117 210.196 112.86 210.336 112.58C210.523 112.3 210.686 111.997 210.826 111.67C211.013 111.343 211.153 111.087 211.246 110.9C211.339 110.713 211.433 110.503 211.526 110.27C211.619 110.037 211.736 109.85 211.876 109.71ZM203.336 111.18C203.476 110.947 203.523 110.83 203.476 110.83C203.383 111.017 203.289 111.18 203.196 111.32C203.056 111.6 202.986 111.787 202.986 111.88C202.986 111.927 203.009 111.88 203.056 111.74C203.149 111.6 203.243 111.413 203.336 111.18ZM202.076 113.84C202.169 113.747 202.216 113.63 202.216 113.49V113.35C202.169 113.303 202.099 113.397 202.006 113.63C201.959 113.863 201.936 114.027 201.936 114.12C201.936 114.167 201.959 114.167 202.006 114.12C202.053 114.027 202.076 113.933 202.076 113.84ZM209.146 114.89C209.239 114.61 209.193 114.61 209.006 114.89V115.03C209.099 115.03 209.146 114.983 209.146 114.89ZM208.796 115.45C208.843 115.357 208.843 115.333 208.796 115.38C208.749 115.427 208.703 115.497 208.656 115.59C208.609 115.637 208.586 115.683 208.586 115.73C208.586 115.777 208.563 115.823 208.516 115.87C208.516 115.87 208.563 115.847 208.656 115.8C208.749 115.613 208.796 115.497 208.796 115.45Z" fill="white"/>
</svg>
