<svg width="350" height="143" viewBox="0 0 350 143" fill="none" xmlns="http://www.w3.org/2000/svg">
<path d="M102.49 16.5303C102.49 18.5892 102.035 20.2249 101.123 21.4375C100.212 22.6419 98.9909 23.2441 97.4609 23.2441C95.6543 23.2441 94.2708 22.6094 93.3105 21.3398V28.0781H91.8579V9.79199H93.2129L93.2861 11.6597C94.2383 10.2518 95.6177 9.54785 97.4243 9.54785C99.0031 9.54785 100.24 10.146 101.135 11.3423C102.039 12.5386 102.49 14.1987 102.49 16.3228V16.5303ZM101.025 16.2739C101.025 14.5894 100.68 13.2588 99.9878 12.2822C99.2961 11.3057 98.3317 10.8174 97.0947 10.8174C96.1995 10.8174 95.4305 11.033 94.7876 11.4644C94.1447 11.8957 93.6523 12.5223 93.3105 13.3442V19.6797C93.6605 20.4365 94.161 21.0143 94.812 21.4131C95.4631 21.8118 96.2321 22.0112 97.1191 22.0112C98.348 22.0112 99.3042 21.5229 99.9878 20.5464C100.68 19.5617 101.025 18.1375 101.025 16.2739ZM108.682 16.2007C108.682 14.9312 108.926 13.7878 109.414 12.7705C109.91 11.7533 110.606 10.9639 111.501 10.4023C112.405 9.83268 113.426 9.54785 114.565 9.54785C116.323 9.54785 117.747 10.1663 118.838 11.4033C119.928 12.6322 120.474 14.2638 120.474 16.2983V16.6035C120.474 17.8812 120.225 19.0327 119.729 20.0581C119.241 21.0754 118.549 21.8607 117.654 22.4141C116.759 22.9674 115.737 23.2441 114.59 23.2441C112.84 23.2441 111.416 22.6297 110.317 21.4009C109.227 20.1639 108.682 18.5282 108.682 16.4937V16.2007ZM110.146 16.6035C110.146 18.1823 110.553 19.4803 111.367 20.4976C112.189 21.5067 113.263 22.0112 114.59 22.0112C115.908 22.0112 116.974 21.5067 117.788 20.4976C118.61 19.4803 119.021 18.1416 119.021 16.4814V16.2007C119.021 15.1916 118.834 14.2679 118.459 13.4297C118.085 12.5915 117.56 11.9445 116.885 11.4888C116.209 11.0249 115.436 10.793 114.565 10.793C113.263 10.793 112.201 11.3057 111.379 12.3311C110.557 13.3483 110.146 14.6829 110.146 16.335V16.6035ZM130.413 19.9604L130.632 21.0957L130.925 19.8994L134.099 9.79199H135.344L138.481 19.814L138.823 21.2056L139.104 19.9238L141.814 9.79199H143.328L139.482 23H138.237L134.844 12.5264L134.685 11.8062L134.526 12.5386L131.194 23H129.949L126.116 9.79199H127.617L130.413 19.9604ZM154.963 23.2441C153.84 23.2441 152.823 22.9674 151.912 22.4141C151.008 21.8607 150.304 21.0916 149.8 20.1069C149.295 19.1141 149.043 18.0033 149.043 16.7744V16.2495C149.043 14.98 149.287 13.8366 149.775 12.8193C150.272 11.8021 150.959 11.0046 151.838 10.4268C152.717 9.84082 153.669 9.54785 154.695 9.54785C156.298 9.54785 157.568 10.0972 158.503 11.1958C159.447 12.2863 159.919 13.7796 159.919 15.6758V16.4937H150.496V16.7744C150.496 18.2718 150.923 19.521 151.777 20.522C152.64 21.5148 153.722 22.0112 155.024 22.0112C155.806 22.0112 156.493 21.8688 157.087 21.584C157.69 21.2992 158.235 20.8434 158.723 20.2168L159.639 20.9126C158.564 22.467 157.006 23.2441 154.963 23.2441ZM154.695 10.793C153.596 10.793 152.668 11.1958 151.912 12.0015C151.163 12.8071 150.707 13.8895 150.544 15.2485H158.467V15.0898C158.426 13.8203 158.064 12.7868 157.38 11.9893C156.697 11.1917 155.802 10.793 154.695 10.793ZM172.617 11.0371C172.308 10.9801 171.978 10.9517 171.628 10.9517C170.717 10.9517 169.944 11.208 169.309 11.7207C168.682 12.2253 168.235 12.9618 167.966 13.9302V23H166.514V9.79199H167.942L167.966 11.8916C168.739 10.3291 169.98 9.54785 171.689 9.54785C172.096 9.54785 172.418 9.60075 172.654 9.70654L172.617 11.0371ZM183.557 23.2441C182.434 23.2441 181.417 22.9674 180.505 22.4141C179.602 21.8607 178.898 21.0916 178.394 20.1069C177.889 19.1141 177.637 18.0033 177.637 16.7744V16.2495C177.637 14.98 177.881 13.8366 178.369 12.8193C178.866 11.8021 179.553 11.0046 180.432 10.4268C181.311 9.84082 182.263 9.54785 183.289 9.54785C184.892 9.54785 186.161 10.0972 187.097 11.1958C188.041 12.2863 188.513 13.7796 188.513 15.6758V16.4937H179.089V16.7744C179.089 18.2718 179.517 19.521 180.371 20.522C181.234 21.5148 182.316 22.0112 183.618 22.0112C184.399 22.0112 185.087 21.8688 185.681 21.584C186.283 21.2992 186.829 20.8434 187.317 20.2168L188.232 20.9126C187.158 22.467 185.6 23.2441 183.557 23.2441ZM183.289 10.793C182.19 10.793 181.262 11.1958 180.505 12.0015C179.757 12.8071 179.301 13.8895 179.138 15.2485H187.061V15.0898C187.02 13.8203 186.658 12.7868 185.974 11.9893C185.291 11.1917 184.395 10.793 183.289 10.793ZM194.521 16.2739C194.521 14.2231 194.977 12.5915 195.889 11.3789C196.808 10.1582 198.053 9.54785 199.624 9.54785C201.406 9.54785 202.765 10.2518 203.701 11.6597V4.25H205.154V23H203.787L203.726 21.2422C202.79 22.5768 201.414 23.2441 199.6 23.2441C198.078 23.2441 196.849 22.6338 195.913 21.4131C194.985 20.1842 194.521 18.5282 194.521 16.4448V16.2739ZM195.999 16.5303C195.999 18.2148 196.336 19.5454 197.012 20.522C197.687 21.4904 198.639 21.9746 199.868 21.9746C201.667 21.9746 202.944 21.1812 203.701 19.5942V13.3931C202.944 11.6759 201.675 10.8174 199.893 10.8174C198.664 10.8174 197.708 11.3016 197.024 12.27C196.34 13.2303 195.999 14.6504 195.999 16.5303ZM233.21 16.5303C233.21 18.5892 232.755 20.2249 231.843 21.4375C230.932 22.6419 229.707 23.2441 228.169 23.2441C226.33 23.2441 224.938 22.5605 223.994 21.1934L223.933 23H222.566V4.25H224.019V11.7085C224.946 10.2681 226.322 9.54785 228.145 9.54785C229.707 9.54785 230.94 10.146 231.843 11.3423C232.755 12.5304 233.21 14.1865 233.21 16.3105V16.5303ZM231.746 16.2739C231.746 14.5324 231.408 13.1896 230.732 12.2456C230.057 11.2935 229.105 10.8174 227.876 10.8174C226.94 10.8174 226.147 11.0493 225.496 11.5132C224.845 11.9689 224.352 12.6403 224.019 13.5273V19.4844C224.751 21.1445 226.045 21.9746 227.9 21.9746C229.105 21.9746 230.045 21.4985 230.72 20.5464C231.404 19.5942 231.746 18.1701 231.746 16.2739ZM244.236 20.9004L248.093 9.79199H249.668L244.028 25.2461L243.735 25.9297C243.011 27.5329 241.892 28.3345 240.378 28.3345C240.028 28.3345 239.654 28.2775 239.255 28.1636L239.243 26.9551L240 27.0283C240.716 27.0283 241.294 26.8493 241.733 26.4912C242.181 26.1413 242.559 25.535 242.869 24.6724L243.516 22.8901L238.535 9.79199H240.134L244.236 20.9004Z" fill="white"/>
<path d="M96.2806 81.2094C94.2006 81.2094 92.3416 80.7414 90.7036 79.8054C89.0916 78.8434 87.8176 77.5564 86.8816 75.9444C85.9716 74.3064 85.5166 72.4604 85.5166 70.4064C85.5166 68.3004 85.9716 66.4284 86.8816 64.7904C87.7916 63.1524 89.0396 61.8784 90.6256 60.9684C92.2116 60.0324 94.0316 59.5644 96.0856 59.5644C99.1536 59.5644 101.702 60.7344 103.73 63.0744C104.094 63.4904 104.224 63.9194 104.12 64.3614C104.016 64.8034 103.73 65.1934 103.262 65.5314C102.898 65.7914 102.495 65.8824 102.053 65.8044C101.611 65.7004 101.208 65.4664 100.844 65.1024C99.5696 63.7504 97.9836 63.0744 96.0856 63.0744C94.0836 63.0744 92.4586 63.7504 91.2106 65.1024C89.9626 66.4284 89.3386 68.1964 89.3386 70.4064C89.3386 71.8104 89.6246 73.0584 90.1966 74.1504C90.7946 75.2424 91.6136 76.1134 92.6536 76.7634C93.6936 77.3874 94.9026 77.6994 96.2806 77.6994C98.0486 77.6994 99.4786 77.2444 100.571 76.3344C100.987 75.9964 101.416 75.8144 101.858 75.7884C102.3 75.7364 102.69 75.8534 103.028 76.1394C103.47 76.5034 103.717 76.9194 103.769 77.3874C103.821 77.8294 103.665 78.2324 103.301 78.5964C101.429 80.3384 99.0886 81.2094 96.2806 81.2094ZM119.703 81.2094C117.597 81.2094 115.738 80.7544 114.126 79.8444C112.514 78.9084 111.24 77.6344 110.304 76.0224C109.394 74.3844 108.939 72.5124 108.939 70.4064C108.939 68.2744 109.394 66.4024 110.304 64.7904C111.24 63.1524 112.514 61.8784 114.126 60.9684C115.738 60.0324 117.597 59.5644 119.703 59.5644C121.783 59.5644 123.629 60.0324 125.241 60.9684C126.853 61.8784 128.114 63.1524 129.024 64.7904C129.96 66.4024 130.428 68.2744 130.428 70.4064C130.428 72.5124 129.973 74.3844 129.063 76.0224C128.153 77.6344 126.892 78.9084 125.28 79.8444C123.668 80.7544 121.809 81.2094 119.703 81.2094ZM119.703 77.6994C121.055 77.6994 122.251 77.3874 123.291 76.7634C124.331 76.1394 125.137 75.2814 125.709 74.1894C126.307 73.0974 126.606 71.8364 126.606 70.4064C126.606 68.9764 126.307 67.7154 125.709 66.6234C125.137 65.5054 124.331 64.6344 123.291 64.0104C122.251 63.3864 121.055 63.0744 119.703 63.0744C118.351 63.0744 117.155 63.3864 116.115 64.0104C115.075 64.6344 114.256 65.5054 113.658 66.6234C113.06 67.7154 112.761 68.9764 112.761 70.4064C112.761 71.8364 113.06 73.0974 113.658 74.1894C114.256 75.2814 115.075 76.1394 116.115 76.7634C117.155 77.3874 118.351 77.6994 119.703 77.6994ZM146.021 81.2094C143.993 81.2094 142.16 80.7414 140.522 79.8054C138.91 78.8434 137.623 77.5434 136.661 75.9054C135.725 74.2674 135.257 72.4214 135.257 70.3674C135.257 68.3134 135.686 66.4804 136.544 64.8684C137.428 63.2304 138.624 61.9434 140.132 61.0074C141.64 60.0454 143.343 59.5644 145.241 59.5644C146.775 59.5644 148.192 59.8894 149.492 60.5394C150.792 61.1634 151.884 62.0214 152.768 63.1134V52.5834C152.768 51.9854 152.95 51.5044 153.314 51.1404C153.704 50.7764 154.185 50.5944 154.757 50.5944C155.355 50.5944 155.836 50.7764 156.2 51.1404C156.564 51.5044 156.746 51.9854 156.746 52.5834V70.3674C156.746 72.4214 156.265 74.2674 155.303 75.9054C154.367 77.5434 153.093 78.8434 151.481 79.8054C149.869 80.7414 148.049 81.2094 146.021 81.2094ZM146.021 77.6994C147.347 77.6994 148.53 77.3874 149.57 76.7634C150.61 76.1134 151.429 75.2294 152.027 74.1114C152.625 72.9934 152.924 71.7454 152.924 70.3674C152.924 68.9634 152.625 67.7154 152.027 66.6234C151.429 65.5314 150.61 64.6734 149.57 64.0494C148.53 63.3994 147.347 63.0744 146.021 63.0744C144.721 63.0744 143.538 63.3994 142.472 64.0494C141.432 64.6734 140.6 65.5314 139.976 66.6234C139.378 67.7154 139.079 68.9634 139.079 70.3674C139.079 71.7454 139.378 72.9934 139.976 74.1114C140.6 75.2294 141.432 76.1134 142.472 76.7634C143.538 77.3874 144.721 77.6994 146.021 77.6994ZM172.663 81.2094C170.765 81.2094 169.062 80.7414 167.554 79.8054C166.046 78.8434 164.85 77.5564 163.966 75.9444C163.108 74.3064 162.679 72.4604 162.679 70.4064C162.679 68.3524 163.147 66.5064 164.083 64.8684C165.045 63.2304 166.332 61.9434 167.944 61.0074C169.582 60.0454 171.415 59.5644 173.443 59.5644C175.471 59.5644 177.291 60.0454 178.903 61.0074C180.515 61.9434 181.789 63.2304 182.725 64.8684C183.687 66.5064 184.168 68.3524 184.168 70.4064V79.1034C184.168 79.6754 183.973 80.1564 183.583 80.5464C183.219 80.9104 182.751 81.0924 182.179 81.0924C181.607 81.0924 181.126 80.9104 180.736 80.5464C180.372 80.1564 180.19 79.6754 180.19 79.1034V77.6604C179.28 78.7524 178.175 79.6234 176.875 80.2734C175.601 80.8974 174.197 81.2094 172.663 81.2094ZM173.443 77.6994C174.769 77.6994 175.952 77.3874 176.992 76.7634C178.032 76.1134 178.851 75.2424 179.449 74.1504C180.047 73.0324 180.346 71.7844 180.346 70.4064C180.346 69.0024 180.047 67.7544 179.449 66.6624C178.851 65.5444 178.032 64.6734 176.992 64.0494C175.952 63.3994 174.769 63.0744 173.443 63.0744C172.143 63.0744 170.96 63.3994 169.894 64.0494C168.854 64.6734 168.022 65.5444 167.398 66.6624C166.8 67.7544 166.501 69.0024 166.501 70.4064C166.501 71.7844 166.8 73.0324 167.398 74.1504C168.022 75.2424 168.854 76.1134 169.894 76.7634C170.96 77.3874 172.143 77.6994 173.443 77.6994ZM192.077 81.0924C191.505 81.0924 191.024 80.9104 190.634 80.5464C190.27 80.1564 190.088 79.6754 190.088 79.1034V61.7094C190.088 61.1114 190.27 60.6304 190.634 60.2664C191.024 59.9024 191.505 59.7204 192.077 59.7204C192.675 59.7204 193.156 59.9024 193.52 60.2664C193.884 60.6304 194.066 61.1114 194.066 61.7094V62.1384C194.872 61.3324 195.847 60.6954 196.991 60.2274C198.135 59.7594 199.37 59.5254 200.696 59.5254C202.49 59.5254 204.089 59.9154 205.493 60.6954C206.923 61.4494 208.041 62.5674 208.847 64.0494C209.679 65.5314 210.095 67.3514 210.095 69.5094V79.1034C210.095 79.6754 209.9 80.1564 209.51 80.5464C209.146 80.9104 208.678 81.0924 208.106 81.0924C207.534 81.0924 207.053 80.9104 206.663 80.5464C206.299 80.1564 206.117 79.6754 206.117 79.1034V69.5094C206.117 67.2994 205.519 65.6874 204.323 64.6734C203.153 63.6334 201.684 63.1134 199.916 63.1134C198.824 63.1134 197.836 63.3344 196.952 63.7764C196.068 64.2184 195.366 64.8164 194.846 65.5704C194.326 66.2984 194.066 67.1434 194.066 68.1054V79.1034C194.066 79.6754 193.884 80.1564 193.52 80.5464C193.156 80.9104 192.675 81.0924 192.077 81.0924ZM226.344 81.2094C224.316 81.2094 222.483 80.7414 220.845 79.8054C219.233 78.8434 217.946 77.5434 216.984 75.9054C216.048 74.2674 215.58 72.4214 215.58 70.3674C215.58 68.3134 216.009 66.4804 216.867 64.8684C217.751 63.2304 218.947 61.9434 220.455 61.0074C221.963 60.0454 223.666 59.5644 225.564 59.5644C227.098 59.5644 228.515 59.8894 229.815 60.5394C231.115 61.1634 232.207 62.0214 233.091 63.1134V52.5834C233.091 51.9854 233.273 51.5044 233.637 51.1404C234.027 50.7764 234.508 50.5944 235.08 50.5944C235.678 50.5944 236.159 50.7764 236.523 51.1404C236.887 51.5044 237.069 51.9854 237.069 52.5834V70.3674C237.069 72.4214 236.588 74.2674 235.626 75.9054C234.69 77.5434 233.416 78.8434 231.804 79.8054C230.192 80.7414 228.372 81.2094 226.344 81.2094ZM226.344 77.6994C227.67 77.6994 228.853 77.3874 229.893 76.7634C230.933 76.1134 231.752 75.2294 232.35 74.1114C232.948 72.9934 233.247 71.7454 233.247 70.3674C233.247 68.9634 232.948 67.7154 232.35 66.6234C231.752 65.5314 230.933 64.6734 229.893 64.0494C228.853 63.3994 227.67 63.0744 226.344 63.0744C225.044 63.0744 223.861 63.3994 222.795 64.0494C221.755 64.6734 220.923 65.5314 220.299 66.6234C219.701 67.7154 219.402 68.9634 219.402 70.3674C219.402 71.7454 219.701 72.9934 220.299 74.1114C220.923 75.2294 221.755 76.1134 222.795 76.7634C223.861 77.3874 225.044 77.6994 226.344 77.6994ZM253.766 81.2094C251.66 81.2094 249.801 80.7544 248.189 79.8444C246.577 78.9084 245.303 77.6344 244.367 76.0224C243.457 74.3844 243.002 72.5124 243.002 70.4064C243.002 68.2744 243.457 66.4024 244.367 64.7904C245.303 63.1524 246.577 61.8784 248.189 60.9684C249.801 60.0324 251.66 59.5644 253.766 59.5644C255.846 59.5644 257.692 60.0324 259.304 60.9684C260.916 61.8784 262.177 63.1524 263.087 64.7904C264.023 66.4024 264.491 68.2744 264.491 70.4064C264.491 72.5124 264.036 74.3844 263.126 76.0224C262.216 77.6344 260.955 78.9084 259.343 79.8444C257.731 80.7544 255.872 81.2094 253.766 81.2094ZM253.766 77.6994C255.118 77.6994 256.314 77.3874 257.354 76.7634C258.394 76.1394 259.2 75.2814 259.772 74.1894C260.37 73.0974 260.669 71.8364 260.669 70.4064C260.669 68.9764 260.37 67.7154 259.772 66.6234C259.2 65.5054 258.394 64.6344 257.354 64.0104C256.314 63.3864 255.118 63.0744 253.766 63.0744C252.414 63.0744 251.218 63.3864 250.178 64.0104C249.138 64.6344 248.319 65.5054 247.721 66.6234C247.123 67.7154 246.824 68.9764 246.824 70.4064C246.824 71.8364 247.123 73.0974 247.721 74.1894C248.319 75.2814 249.138 76.1394 250.178 76.7634C251.218 77.3874 252.414 77.6994 253.766 77.6994Z" fill="white"/>
<path d="M71.0442 124.954C62.8902 124.954 58.8132 120.877 58.8132 112.723V93.688C58.8132 88.774 56.3562 86.317 51.4422 86.317C50.7402 86.317 50.1462 86.101 49.6602 85.669C49.1742 85.183 48.9312 84.589 48.9312 83.887C48.9312 83.131 49.1742 82.537 49.6602 82.105C50.1462 81.619 50.7402 81.376 51.4422 81.376C56.3562 81.376 58.8132 78.919 58.8132 74.005V54.97C58.8132 46.762 62.8902 42.658 71.0442 42.658C71.8002 42.658 72.3942 42.901 72.8262 43.387C73.3122 43.819 73.5552 44.413 73.5552 45.169C73.5552 45.871 73.3122 46.465 72.8262 46.951C72.3942 47.383 71.8002 47.599 71.0442 47.599C66.1842 47.599 63.7542 50.056 63.7542 54.97V74.005C63.7542 76.111 63.4302 77.974 62.7822 79.594C62.1882 81.214 61.2972 82.645 60.1092 83.887C62.5392 86.317 63.7542 89.584 63.7542 93.688V112.723C63.7542 117.583 66.1842 120.013 71.0442 120.013C71.8002 120.013 72.3942 120.256 72.8262 120.742C73.3122 121.228 73.5552 121.822 73.5552 122.524C73.5552 123.226 73.3122 123.793 72.8262 124.225C72.3942 124.711 71.8002 124.954 71.0442 124.954Z" fill="white"/>
<path d="M275.971 124.954C275.269 124.954 274.675 124.711 274.189 124.225C273.703 123.793 273.46 123.226 273.46 122.524C273.46 121.822 273.703 121.228 274.189 120.742C274.675 120.256 275.269 120.013 275.971 120.013C280.831 120.013 283.261 117.583 283.261 112.723V93.688C283.261 89.584 284.476 86.317 286.906 83.887C285.718 82.645 284.8 81.214 284.152 79.594C283.558 77.974 283.261 76.111 283.261 74.005V54.97C283.261 50.056 280.831 47.599 275.971 47.599C275.269 47.599 274.675 47.383 274.189 46.951C273.703 46.465 273.46 45.871 273.46 45.169C273.46 44.413 273.703 43.819 274.189 43.387C274.675 42.901 275.269 42.658 275.971 42.658C284.125 42.658 288.202 46.762 288.202 54.97V74.005C288.202 78.919 290.659 81.376 295.573 81.376C296.275 81.376 296.869 81.619 297.355 82.105C297.841 82.537 298.084 83.131 298.084 83.887C298.084 84.589 297.841 85.183 297.355 85.669C296.869 86.101 296.275 86.317 295.573 86.317C290.659 86.317 288.202 88.774 288.202 93.688V112.723C288.202 120.877 284.125 124.954 275.971 124.954Z" fill="white"/>
<path d="M82.9913 109.617C82.9913 108.17 83.458 106.397 84.3913 104.297C85.3713 102.15 86.5846 100.097 88.0313 98.1365C89.5246 96.1298 91.1346 94.4265 92.8613 93.0265C94.588 91.5798 96.2446 90.8565 97.8313 90.8565C98.998 90.8565 100.048 91.2532 100.981 92.0465C101.961 92.8398 102.451 93.8432 102.451 95.0565C102.451 95.5232 102.311 96.0832 102.031 96.7365C101.751 97.3898 101.401 98.0432 100.981 98.6965C100.561 99.3032 100.071 99.8398 99.5113 100.307C98.998 100.727 98.508 100.937 98.0413 100.937C97.668 100.937 97.318 100.867 96.9913 100.727C96.7113 100.587 96.408 100.4 96.0813 100.167C96.548 99.3732 97.0146 98.4398 97.4813 97.3665C97.9946 96.2932 98.2513 95.3365 98.2513 94.4965C98.2513 94.4032 98.228 94.3565 98.1813 94.3565C97.5746 94.3565 96.8513 94.6832 96.0113 95.3365C95.1713 95.9898 94.308 96.8298 93.4213 97.8565C92.5346 98.8832 91.648 100.05 90.7613 101.357C89.9213 102.617 89.1513 103.877 88.4513 105.137C87.798 106.35 87.2613 107.493 86.8413 108.567C86.4213 109.593 86.2113 110.41 86.2113 111.017C86.2113 111.67 86.3513 112.277 86.6313 112.837C86.9113 113.397 87.448 113.677 88.2413 113.677C88.8013 113.677 89.478 113.49 90.2713 113.117C91.0646 112.697 91.8813 112.23 92.7213 111.717C93.5613 111.157 94.378 110.597 95.1713 110.037C95.9646 109.477 96.618 109.057 97.1313 108.777C97.7846 108.543 98.2046 108.707 98.3913 109.267V109.337C98.3913 109.897 97.948 110.503 97.0613 111.157C96.2213 111.81 95.218 112.417 94.0513 112.977C92.9313 113.49 91.788 113.933 90.6213 114.307C89.5013 114.68 88.6613 114.867 88.1013 114.867C86.328 114.867 85.0446 114.4 84.2513 113.467C83.4113 112.533 82.9913 111.25 82.9913 109.617ZM99.3013 93.7265C99.2546 93.7265 99.2313 93.7732 99.2313 93.8665V94.0065L99.3013 93.9365V93.7265ZM98.3913 97.2265C98.578 96.8532 98.718 96.5032 98.8113 96.1765C98.9046 95.8032 98.998 95.4298 99.0913 95.0565L99.0213 94.9865C98.928 94.9865 98.8113 95.2665 98.6713 95.8265C98.5313 96.3865 98.4146 96.8298 98.3213 97.1565L98.3913 97.2265ZM98.8113 97.9265C99.0446 97.5532 99.278 97.1798 99.5113 96.8065C99.7446 96.3865 99.8613 95.9665 99.8613 95.5465C99.7213 95.5465 99.6513 95.6398 99.6513 95.8265L98.8113 97.9265ZM84.3913 110.177C84.578 108.73 84.928 107.423 85.4413 106.257C85.9546 105.043 86.538 103.9 87.1913 102.827C87.8913 101.753 88.638 100.703 89.4313 99.6765C90.2713 98.6032 91.088 97.4832 91.8813 96.3165C91.1346 97.1565 90.318 98.1365 89.4313 99.2565C88.5913 100.33 87.798 101.473 87.0513 102.687C86.3046 103.853 85.6746 105.067 85.1613 106.327C84.648 107.587 84.3913 108.777 84.3913 109.897V110.177ZM88.6613 98.5565C88.8013 98.4165 88.9413 98.2765 89.0813 98.1365C89.268 97.9498 89.408 97.7632 89.5013 97.5765L88.6613 98.5565ZM87.3313 100.377C87.7046 100.097 87.9146 99.7932 87.9613 99.4665L87.3313 100.377ZM83.6913 110.177C83.6446 108.543 83.9946 106.887 84.7413 105.207C85.5346 103.48 86.3513 101.94 87.1913 100.587C86.3513 102.033 85.5346 103.527 84.7413 105.067C83.948 106.56 83.5513 108.17 83.5513 109.897C83.5513 110.363 83.5746 110.667 83.6213 110.807C83.6213 110.947 83.6446 111.063 83.6913 111.157V110.177ZM86.3513 107.377L85.7213 109.407C85.8146 109.313 85.9313 109.01 86.0713 108.497C86.258 107.983 86.3513 107.68 86.3513 107.587V107.377ZM85.6513 109.897C85.6046 109.897 85.5813 109.92 85.5813 109.967V110.037L85.6513 110.177V109.897ZM99.7475 110.107C99.7475 109.173 99.8409 108.31 100.028 107.517C100.214 106.723 100.471 105.86 100.798 104.927C101.264 103.807 101.988 102.453 102.968 100.867C103.948 99.2798 105.044 97.7632 106.258 96.3165C107.471 94.8232 108.778 93.5632 110.178 92.5365C111.578 91.4632 112.954 90.9265 114.308 90.9265C114.681 90.9265 115.101 91.0898 115.568 91.4165C116.034 91.7432 116.268 92.1632 116.268 92.6765L114.588 94.3565C113.561 95.2898 112.418 96.4798 111.158 97.9265C109.898 99.3265 108.708 100.843 107.588 102.477C106.514 104.063 105.581 105.673 104.788 107.307C104.041 108.893 103.644 110.34 103.598 111.647C103.598 111.88 103.621 112.113 103.668 112.347C103.714 112.58 103.878 112.743 104.158 112.837C104.578 112.79 105.091 112.533 105.698 112.067C106.351 111.553 107.004 110.993 107.658 110.387C108.358 109.733 108.988 109.103 109.548 108.497C110.108 107.843 110.504 107.377 110.738 107.097C112.091 105.603 113.281 103.947 114.308 102.127C115.334 100.307 115.894 98.3465 115.988 96.2465C115.988 95.8732 116.034 95.4765 116.128 95.0565C116.221 94.6365 116.571 94.4265 117.178 94.4265C117.644 94.4265 117.994 94.5198 118.228 94.7065C118.461 94.8932 118.624 95.1265 118.718 95.4065C118.811 95.6865 118.858 95.9898 118.858 96.3165C118.904 96.6432 118.928 96.9698 118.928 97.2965L118.858 97.6465C118.811 98.9065 118.321 100.377 117.388 102.057C116.501 103.737 115.381 105.393 114.028 107.027C112.721 108.66 111.274 110.177 109.688 111.577C108.148 112.93 106.724 113.933 105.418 114.587C105.138 114.773 104.764 114.867 104.298 114.867C102.898 114.867 101.778 114.377 100.938 113.397C100.098 112.417 99.7009 111.32 99.7475 110.107ZM108.568 96.8065C108.754 96.3865 108.544 96.5265 107.938 97.2265C107.471 97.7398 106.911 98.4632 106.258 99.3965C105.604 100.283 105.044 101.077 104.578 101.777C104.391 102.103 104.204 102.453 104.018 102.827C103.831 103.2 103.644 103.55 103.458 103.877C103.318 104.203 103.201 104.483 103.108 104.717C103.014 104.95 102.968 105.09 102.968 105.137C102.968 105.183 103.061 105.043 103.248 104.717C103.481 104.39 103.738 103.97 104.018 103.457C104.298 102.99 104.601 102.477 104.928 101.917C105.301 101.357 105.651 100.82 105.978 100.307C106.351 99.7465 106.678 99.2565 106.958 98.8365C107.284 98.3698 107.564 97.9965 107.798 97.7165C107.938 97.5298 108.078 97.3665 108.218 97.2265C108.358 97.0398 108.474 96.8998 108.568 96.8065ZM106.608 97.3665C106.888 97.0865 106.981 96.9465 106.888 96.9465C106.888 96.8998 106.794 97.0165 106.608 97.2965C106.374 97.5765 106.258 97.7398 106.258 97.7865C106.258 97.7865 106.374 97.6465 106.608 97.3665ZM106.188 97.8565C106.094 97.8565 105.908 98.0432 105.628 98.4165C105.348 98.7898 105.021 99.2565 104.648 99.8165C104.274 100.33 103.901 100.89 103.528 101.497C103.154 102.057 102.874 102.547 102.688 102.967C102.408 103.527 102.104 104.227 101.778 105.067C101.451 105.86 101.241 106.397 101.148 106.677C101.054 107.003 101.054 107.073 101.148 106.887C101.288 106.653 101.498 106.21 101.778 105.557C102.244 104.623 102.734 103.667 103.248 102.687C103.808 101.66 104.391 100.68 104.998 99.7465C105.278 99.2332 105.534 98.8132 105.768 98.4865C106.001 98.1598 106.141 97.9965 106.188 97.9965V97.8565ZM108.778 99.3965C108.871 99.3032 108.918 99.2098 108.918 99.1165V98.9765C108.871 98.9765 108.684 99.2098 108.358 99.6765C108.031 100.097 107.681 100.587 107.308 101.147C106.934 101.707 106.561 102.267 106.188 102.827C105.861 103.387 105.628 103.807 105.488 104.087C105.394 104.32 105.394 104.367 105.488 104.227C105.581 104.133 105.674 104.017 105.768 103.877C105.861 103.737 105.978 103.597 106.118 103.457C106.164 103.317 106.304 103.06 106.538 102.687C106.771 102.313 107.028 101.917 107.308 101.497C107.588 101.03 107.868 100.61 108.148 100.237C108.428 99.8165 108.638 99.5365 108.778 99.3965ZM123.564 91.0665C124.637 91.0665 125.524 91.3932 126.224 92.0465C126.971 92.6532 127.391 93.4932 127.484 94.5665C127.531 95.0798 127.414 95.6865 127.134 96.3865C126.901 97.0865 126.597 97.7865 126.224 98.4865C125.897 99.1865 125.547 99.8865 125.174 100.587C124.847 101.287 124.637 101.893 124.544 102.407C125.057 101.847 125.874 100.937 126.994 99.6765C128.161 98.4165 129.397 97.1565 130.704 95.8965C132.057 94.5898 133.364 93.4465 134.624 92.4665C135.884 91.4865 136.911 90.9965 137.704 90.9965C138.264 90.9965 138.707 91.1598 139.034 91.4865C139.361 91.7665 139.641 92.1398 139.874 92.6065C139.874 93.0265 139.617 93.7732 139.104 94.8465C138.591 95.9198 137.984 97.0632 137.284 98.2765C136.631 99.4898 135.977 100.633 135.324 101.707C134.671 102.78 134.251 103.503 134.064 103.877C134.157 103.923 134.274 103.877 134.414 103.737C134.601 103.55 134.717 103.41 134.764 103.317C135.137 102.943 135.674 102.383 136.374 101.637C137.121 100.89 137.961 100.073 138.894 99.1865C139.827 98.2532 140.807 97.3198 141.834 96.3865C142.861 95.4065 143.864 94.5432 144.844 93.7965C145.824 93.0032 146.711 92.3498 147.504 91.8365C148.297 91.3232 148.951 91.0665 149.464 91.0665C149.837 91.0665 150.211 91.1832 150.584 91.4165C150.957 91.6032 151.167 91.9065 151.214 92.3265C151.261 93.1198 151.027 94.0765 150.514 95.1965C150.001 96.2698 149.324 97.4365 148.484 98.6965C147.691 99.9565 146.804 101.287 145.824 102.687C144.891 104.04 144.004 105.37 143.164 106.677C142.371 107.937 141.694 109.15 141.134 110.317C140.621 111.437 140.411 112.393 140.504 113.187C140.504 113.42 140.574 113.56 140.714 113.607L141.414 113.677C141.601 113.677 141.857 113.63 142.184 113.537C142.557 113.443 142.791 113.42 142.884 113.467C142.884 113.653 142.767 113.84 142.534 114.027C142.347 114.167 142.091 114.307 141.764 114.447C141.484 114.587 141.204 114.703 140.924 114.797C140.644 114.89 140.434 114.937 140.294 114.937C139.641 114.937 138.987 114.703 138.334 114.237C137.681 113.723 137.331 113.117 137.284 112.417C137.144 110.877 137.377 109.383 137.984 107.937C138.637 106.443 139.407 104.997 140.294 103.597C141.227 102.197 142.161 100.843 143.094 99.5365C144.027 98.1832 144.774 96.8765 145.334 95.6165C143.841 96.9698 142.347 98.3465 140.854 99.7465C139.361 101.1 137.937 102.523 136.584 104.017C135.231 105.557 133.971 107.213 132.804 108.987C131.637 110.713 130.354 112.323 128.954 113.817H128.674C128.207 113.817 127.764 113.677 127.344 113.397C126.924 113.117 126.691 112.72 126.644 112.207C126.597 111.32 126.761 110.293 127.134 109.127C127.507 107.913 127.997 106.653 128.604 105.347C129.257 104.04 129.957 102.757 130.704 101.497C131.451 100.237 132.127 99.0932 132.734 98.0665C133.387 96.9932 133.924 96.1298 134.344 95.4765C134.764 94.7765 134.974 94.3798 134.974 94.2865C134.554 94.2865 133.924 94.6832 133.084 95.4765C132.244 96.2232 131.287 97.2032 130.214 98.4165C129.187 99.5832 128.091 100.913 126.924 102.407C125.757 103.853 124.661 105.253 123.634 106.607C122.654 107.96 121.791 109.173 121.044 110.247C120.297 111.32 119.784 112.09 119.504 112.557C119.317 112.883 119.061 113.327 118.734 113.887C118.407 114.4 118.011 114.657 117.544 114.657C117.264 114.657 116.914 114.517 116.494 114.237C116.074 113.91 115.864 113.583 115.864 113.257C115.817 112.79 115.981 112.043 116.354 111.017C116.727 109.943 117.194 108.73 117.754 107.377C118.361 105.977 119.014 104.53 119.714 103.037C120.414 101.497 121.044 100.05 121.604 98.6965C122.211 97.3432 122.701 96.1532 123.074 95.1265C123.447 94.0532 123.634 93.3065 123.634 92.8865C123.587 92.4665 123.447 92.1632 123.214 91.9765C122.981 91.7432 122.864 91.5098 122.864 91.2765V91.1365L123.564 91.0665ZM137.844 92.9565C137.937 92.8632 137.961 92.7932 137.914 92.7465C137.914 92.7465 137.867 92.7932 137.774 92.8865C137.727 92.9798 137.704 93.0498 137.704 93.0965C137.751 93.0965 137.797 93.0498 137.844 92.9565ZM124.474 94.4965C124.474 94.4032 124.474 94.3332 124.474 94.2865C124.521 94.2398 124.544 94.1698 124.544 94.0765C124.544 93.9832 124.567 93.9132 124.614 93.8665C124.567 93.8198 124.451 94.0998 124.264 94.7065C123.891 95.6865 123.377 96.8532 122.724 98.2065C122.211 99.2332 121.791 100.12 121.464 100.867C121.184 101.567 120.834 102.383 120.414 103.317C120.181 103.83 119.994 104.273 119.854 104.647C119.761 104.973 119.737 105.09 119.784 104.997C119.877 104.903 119.971 104.74 120.064 104.507C120.204 104.227 120.344 103.923 120.484 103.597C120.624 103.27 120.741 102.943 120.834 102.617C120.974 102.29 121.091 102.033 121.184 101.847C121.277 101.567 121.534 101.03 121.954 100.237C122.374 99.3965 122.934 98.2298 123.634 96.7365C123.867 96.2698 124.054 95.8265 124.194 95.4065C124.381 94.9865 124.474 94.6832 124.474 94.4965ZM125.174 95.6165C125.314 95.2432 125.337 95.0798 125.244 95.1265C125.151 95.1732 125.034 95.4065 124.894 95.8265C124.754 96.0598 124.544 96.4798 124.264 97.0865C124.031 97.6932 123.751 98.3232 123.424 98.9765C123.004 99.8632 122.561 100.843 122.094 101.917C121.627 102.943 121.184 103.923 120.764 104.857C120.344 105.79 119.994 106.583 119.714 107.237C119.481 107.843 119.364 108.17 119.364 108.217C119.411 108.217 119.621 107.82 119.994 107.027C120.367 106.233 120.764 105.347 121.184 104.367C121.417 103.853 121.744 103.13 122.164 102.197C122.631 101.217 123.097 100.26 123.564 99.3265C123.984 98.3932 124.357 97.5765 124.684 96.8765C125.011 96.1298 125.174 95.7098 125.174 95.6165ZM126.014 97.6465C126.341 96.8998 126.504 96.4565 126.504 96.3165C126.504 96.3165 126.271 96.7365 125.804 97.5765C125.477 98.4632 125.337 98.9065 125.384 98.9065L126.014 97.6465ZM124.964 99.8865C125.011 99.7932 125.034 99.7232 125.034 99.6765C125.034 99.6298 125.057 99.5598 125.104 99.4665C125.104 99.3732 125.127 99.3032 125.174 99.2565C125.127 99.2565 125.034 99.3965 124.894 99.6765C124.754 99.9565 124.637 100.237 124.544 100.517C124.451 100.75 124.451 100.797 124.544 100.657C124.684 100.517 124.824 100.26 124.964 99.8865ZM124.194 101.427C124.241 101.38 124.264 101.31 124.264 101.217C124.264 101.217 124.217 101.263 124.124 101.357C124.124 101.497 124.147 101.52 124.194 101.427ZM123.984 101.987C123.984 101.94 123.984 101.893 123.984 101.847C124.031 101.8 124.054 101.753 124.054 101.707C124.054 101.66 124.077 101.637 124.124 101.637C124.031 101.637 123.937 101.753 123.844 101.987C123.797 102.08 123.774 102.173 123.774 102.267C123.774 102.313 123.751 102.337 123.704 102.337C123.751 102.337 123.844 102.22 123.984 101.987ZM119.434 105.837C119.434 105.697 119.364 105.79 119.224 106.117L119.084 106.537L119.224 106.257C119.411 106.023 119.481 105.883 119.434 105.837ZM130.144 106.257C130.191 106.163 130.237 106.07 130.284 105.977C130.331 105.883 130.377 105.79 130.424 105.697C130.471 105.603 130.494 105.533 130.494 105.487C130.447 105.487 130.307 105.697 130.074 106.117C129.887 106.537 129.677 107.027 129.444 107.587C129.211 108.147 128.977 108.707 128.744 109.267C128.511 109.78 128.371 110.153 128.324 110.387C128.184 110.807 128.137 110.993 128.184 110.947C128.277 110.9 128.417 110.667 128.604 110.247C128.697 109.733 128.907 109.057 129.234 108.217C129.607 107.33 129.911 106.677 130.144 106.257ZM140.434 107.447C140.527 107.26 140.574 107.097 140.574 106.957C140.621 106.77 140.667 106.63 140.714 106.537C140.761 106.397 140.807 106.28 140.854 106.187C140.761 106.187 140.621 106.373 140.434 106.747C140.294 107.073 140.107 107.493 139.874 108.007C139.687 108.473 139.501 108.987 139.314 109.547C139.127 110.06 138.987 110.48 138.894 110.807C138.801 111.18 138.777 111.437 138.824 111.577C138.871 111.67 138.964 111.553 139.104 111.227C139.244 110.62 139.431 109.99 139.664 109.337C139.944 108.683 140.201 108.053 140.434 107.447ZM139.244 107.797C139.291 107.61 139.337 107.423 139.384 107.237C139.477 107.05 139.547 106.91 139.594 106.817C139.641 106.677 139.687 106.56 139.734 106.467C139.687 106.467 139.594 106.607 139.454 106.887C139.361 107.12 139.221 107.423 139.034 107.797C138.894 108.123 138.754 108.497 138.614 108.917C138.474 109.29 138.357 109.64 138.264 109.967C138.124 110.433 138.007 110.877 137.914 111.297C137.867 111.67 137.891 111.81 137.984 111.717C137.984 111.623 138.007 111.507 138.054 111.367C138.101 111.273 138.124 111.157 138.124 111.017C138.171 110.83 138.241 110.643 138.334 110.457C138.427 110.083 138.567 109.64 138.754 109.127C138.941 108.613 139.104 108.17 139.244 107.797ZM127.974 109.057C128.067 108.777 128.091 108.637 128.044 108.637C127.997 108.59 127.927 108.707 127.834 108.987C127.741 109.267 127.624 109.593 127.484 109.967C127.391 110.293 127.297 110.62 127.204 110.947C127.157 111.273 127.157 111.483 127.204 111.577C127.204 111.67 127.227 111.623 127.274 111.437C127.321 111.25 127.391 110.97 127.484 110.597C127.577 110.27 127.647 109.967 127.694 109.687C127.787 109.36 127.881 109.15 127.974 109.057ZM140.714 110.107C140.854 110.06 140.877 109.99 140.784 109.897C140.784 109.897 140.761 109.943 140.714 110.037V110.107ZM155.146 91.0665C156.219 91.0665 157.106 91.3932 157.806 92.0465C158.553 92.6532 158.973 93.4932 159.066 94.5665C159.113 95.0798 158.996 95.6865 158.716 96.3865C158.483 97.0865 158.179 97.7865 157.806 98.4865C157.479 99.1865 157.129 99.8865 156.756 100.587C156.429 101.287 156.219 101.893 156.126 102.407C156.639 101.847 157.456 100.937 158.576 99.6765C159.743 98.4165 160.979 97.1565 162.286 95.8965C163.639 94.5898 164.946 93.4465 166.206 92.4665C167.466 91.4865 168.493 90.9965 169.286 90.9965C169.846 90.9965 170.289 91.1598 170.616 91.4865C170.943 91.7665 171.223 92.1398 171.456 92.6065C171.456 93.0265 171.199 93.7732 170.686 94.8465C170.173 95.9198 169.566 97.0632 168.866 98.2765C168.213 99.4898 167.559 100.633 166.906 101.707C166.253 102.78 165.833 103.503 165.646 103.877C165.739 103.923 165.856 103.877 165.996 103.737C166.183 103.55 166.299 103.41 166.346 103.317C166.719 102.943 167.256 102.383 167.956 101.637C168.703 100.89 169.543 100.073 170.476 99.1865C171.409 98.2532 172.389 97.3198 173.416 96.3865C174.443 95.4065 175.446 94.5432 176.426 93.7965C177.406 93.0032 178.293 92.3498 179.086 91.8365C179.879 91.3232 180.533 91.0665 181.046 91.0665C181.419 91.0665 181.793 91.1832 182.166 91.4165C182.539 91.6032 182.749 91.9065 182.796 92.3265C182.843 93.1198 182.609 94.0765 182.096 95.1965C181.583 96.2698 180.906 97.4365 180.066 98.6965C179.273 99.9565 178.386 101.287 177.406 102.687C176.473 104.04 175.586 105.37 174.746 106.677C173.953 107.937 173.276 109.15 172.716 110.317C172.203 111.437 171.993 112.393 172.086 113.187C172.086 113.42 172.156 113.56 172.296 113.607L172.996 113.677C173.183 113.677 173.439 113.63 173.766 113.537C174.139 113.443 174.373 113.42 174.466 113.467C174.466 113.653 174.349 113.84 174.116 114.027C173.929 114.167 173.673 114.307 173.346 114.447C173.066 114.587 172.786 114.703 172.506 114.797C172.226 114.89 172.016 114.937 171.876 114.937C171.223 114.937 170.569 114.703 169.916 114.237C169.263 113.723 168.913 113.117 168.866 112.417C168.726 110.877 168.959 109.383 169.566 107.937C170.219 106.443 170.989 104.997 171.876 103.597C172.809 102.197 173.743 100.843 174.676 99.5365C175.609 98.1832 176.356 96.8765 176.916 95.6165C175.423 96.9698 173.929 98.3465 172.436 99.7465C170.943 101.1 169.519 102.523 168.166 104.017C166.813 105.557 165.553 107.213 164.386 108.987C163.219 110.713 161.936 112.323 160.536 113.817H160.256C159.789 113.817 159.346 113.677 158.926 113.397C158.506 113.117 158.273 112.72 158.226 112.207C158.179 111.32 158.343 110.293 158.716 109.127C159.089 107.913 159.579 106.653 160.186 105.347C160.839 104.04 161.539 102.757 162.286 101.497C163.033 100.237 163.709 99.0932 164.316 98.0665C164.969 96.9932 165.506 96.1298 165.926 95.4765C166.346 94.7765 166.556 94.3798 166.556 94.2865C166.136 94.2865 165.506 94.6832 164.666 95.4765C163.826 96.2232 162.869 97.2032 161.796 98.4165C160.769 99.5832 159.673 100.913 158.506 102.407C157.339 103.853 156.243 105.253 155.216 106.607C154.236 107.96 153.373 109.173 152.626 110.247C151.879 111.32 151.366 112.09 151.086 112.557C150.899 112.883 150.643 113.327 150.316 113.887C149.989 114.4 149.593 114.657 149.126 114.657C148.846 114.657 148.496 114.517 148.076 114.237C147.656 113.91 147.446 113.583 147.446 113.257C147.399 112.79 147.563 112.043 147.936 111.017C148.309 109.943 148.776 108.73 149.336 107.377C149.943 105.977 150.596 104.53 151.296 103.037C151.996 101.497 152.626 100.05 153.186 98.6965C153.793 97.3432 154.283 96.1532 154.656 95.1265C155.029 94.0532 155.216 93.3065 155.216 92.8865C155.169 92.4665 155.029 92.1632 154.796 91.9765C154.563 91.7432 154.446 91.5098 154.446 91.2765V91.1365L155.146 91.0665ZM169.426 92.9565C169.519 92.8632 169.543 92.7932 169.496 92.7465C169.496 92.7465 169.449 92.7932 169.356 92.8865C169.309 92.9798 169.286 93.0498 169.286 93.0965C169.333 93.0965 169.379 93.0498 169.426 92.9565ZM156.056 94.4965C156.056 94.4032 156.056 94.3332 156.056 94.2865C156.103 94.2398 156.126 94.1698 156.126 94.0765C156.126 93.9832 156.149 93.9132 156.196 93.8665C156.149 93.8198 156.033 94.0998 155.846 94.7065C155.473 95.6865 154.959 96.8532 154.306 98.2065C153.793 99.2332 153.373 100.12 153.046 100.867C152.766 101.567 152.416 102.383 151.996 103.317C151.763 103.83 151.576 104.273 151.436 104.647C151.343 104.973 151.319 105.09 151.366 104.997C151.459 104.903 151.553 104.74 151.646 104.507C151.786 104.227 151.926 103.923 152.066 103.597C152.206 103.27 152.323 102.943 152.416 102.617C152.556 102.29 152.673 102.033 152.766 101.847C152.859 101.567 153.116 101.03 153.536 100.237C153.956 99.3965 154.516 98.2298 155.216 96.7365C155.449 96.2698 155.636 95.8265 155.776 95.4065C155.963 94.9865 156.056 94.6832 156.056 94.4965ZM156.756 95.6165C156.896 95.2432 156.919 95.0798 156.826 95.1265C156.733 95.1732 156.616 95.4065 156.476 95.8265C156.336 96.0598 156.126 96.4798 155.846 97.0865C155.613 97.6932 155.333 98.3232 155.006 98.9765C154.586 99.8632 154.143 100.843 153.676 101.917C153.209 102.943 152.766 103.923 152.346 104.857C151.926 105.79 151.576 106.583 151.296 107.237C151.063 107.843 150.946 108.17 150.946 108.217C150.993 108.217 151.203 107.82 151.576 107.027C151.949 106.233 152.346 105.347 152.766 104.367C152.999 103.853 153.326 103.13 153.746 102.197C154.213 101.217 154.679 100.26 155.146 99.3265C155.566 98.3932 155.939 97.5765 156.266 96.8765C156.593 96.1298 156.756 95.7098 156.756 95.6165ZM157.596 97.6465C157.923 96.8998 158.086 96.4565 158.086 96.3165C158.086 96.3165 157.853 96.7365 157.386 97.5765C157.059 98.4632 156.919 98.9065 156.966 98.9065L157.596 97.6465ZM156.546 99.8865C156.593 99.7932 156.616 99.7232 156.616 99.6765C156.616 99.6298 156.639 99.5598 156.686 99.4665C156.686 99.3732 156.709 99.3032 156.756 99.2565C156.709 99.2565 156.616 99.3965 156.476 99.6765C156.336 99.9565 156.219 100.237 156.126 100.517C156.033 100.75 156.033 100.797 156.126 100.657C156.266 100.517 156.406 100.26 156.546 99.8865ZM155.776 101.427C155.823 101.38 155.846 101.31 155.846 101.217C155.846 101.217 155.799 101.263 155.706 101.357C155.706 101.497 155.729 101.52 155.776 101.427ZM155.566 101.987C155.566 101.94 155.566 101.893 155.566 101.847C155.613 101.8 155.636 101.753 155.636 101.707C155.636 101.66 155.659 101.637 155.706 101.637C155.613 101.637 155.519 101.753 155.426 101.987C155.379 102.08 155.356 102.173 155.356 102.267C155.356 102.313 155.333 102.337 155.286 102.337C155.333 102.337 155.426 102.22 155.566 101.987ZM151.016 105.837C151.016 105.697 150.946 105.79 150.806 106.117L150.666 106.537L150.806 106.257C150.993 106.023 151.063 105.883 151.016 105.837ZM161.726 106.257C161.773 106.163 161.819 106.07 161.866 105.977C161.913 105.883 161.959 105.79 162.006 105.697C162.053 105.603 162.076 105.533 162.076 105.487C162.029 105.487 161.889 105.697 161.656 106.117C161.469 106.537 161.259 107.027 161.026 107.587C160.793 108.147 160.559 108.707 160.326 109.267C160.093 109.78 159.953 110.153 159.906 110.387C159.766 110.807 159.719 110.993 159.766 110.947C159.859 110.9 159.999 110.667 160.186 110.247C160.279 109.733 160.489 109.057 160.816 108.217C161.189 107.33 161.493 106.677 161.726 106.257ZM172.016 107.447C172.109 107.26 172.156 107.097 172.156 106.957C172.203 106.77 172.249 106.63 172.296 106.537C172.343 106.397 172.389 106.28 172.436 106.187C172.343 106.187 172.203 106.373 172.016 106.747C171.876 107.073 171.689 107.493 171.456 108.007C171.269 108.473 171.083 108.987 170.896 109.547C170.709 110.06 170.569 110.48 170.476 110.807C170.383 111.18 170.359 111.437 170.406 111.577C170.453 111.67 170.546 111.553 170.686 111.227C170.826 110.62 171.013 109.99 171.246 109.337C171.526 108.683 171.783 108.053 172.016 107.447ZM170.826 107.797C170.873 107.61 170.919 107.423 170.966 107.237C171.059 107.05 171.129 106.91 171.176 106.817C171.223 106.677 171.269 106.56 171.316 106.467C171.269 106.467 171.176 106.607 171.036 106.887C170.943 107.12 170.803 107.423 170.616 107.797C170.476 108.123 170.336 108.497 170.196 108.917C170.056 109.29 169.939 109.64 169.846 109.967C169.706 110.433 169.589 110.877 169.496 111.297C169.449 111.67 169.473 111.81 169.566 111.717C169.566 111.623 169.589 111.507 169.636 111.367C169.683 111.273 169.706 111.157 169.706 111.017C169.753 110.83 169.823 110.643 169.916 110.457C170.009 110.083 170.149 109.64 170.336 109.127C170.523 108.613 170.686 108.17 170.826 107.797ZM159.556 109.057C159.649 108.777 159.673 108.637 159.626 108.637C159.579 108.59 159.509 108.707 159.416 108.987C159.323 109.267 159.206 109.593 159.066 109.967C158.973 110.293 158.879 110.62 158.786 110.947C158.739 111.273 158.739 111.483 158.786 111.577C158.786 111.67 158.809 111.623 158.856 111.437C158.903 111.25 158.973 110.97 159.066 110.597C159.159 110.27 159.229 109.967 159.276 109.687C159.369 109.36 159.463 109.15 159.556 109.057ZM172.296 110.107C172.436 110.06 172.459 109.99 172.366 109.897C172.366 109.897 172.343 109.943 172.296 110.037V110.107ZM185.328 91.5565C185.328 91.3698 185.398 91.2532 185.538 91.2065C185.725 91.1598 185.911 91.1365 186.098 91.1365H186.308C187.428 91.1365 188.408 91.4165 189.248 91.9765C190.135 92.4898 190.578 93.3765 190.578 94.6365C190.578 95.7098 190.228 97.0398 189.528 98.6265C188.875 100.167 188.081 101.777 187.148 103.457C186.261 105.137 185.375 106.77 184.488 108.357C183.601 109.943 182.948 111.297 182.528 112.417C184.721 110.877 186.845 108.963 188.898 106.677C190.951 104.39 192.701 102.127 194.148 99.8865C194.335 99.6065 194.661 98.9998 195.128 98.0665C195.641 97.1332 196.178 96.1765 196.738 95.1965C197.298 94.2165 197.811 93.3298 198.278 92.5365C198.791 91.7432 199.141 91.2998 199.328 91.2065C199.421 91.1598 199.538 91.1365 199.678 91.1365C199.818 91.1365 199.935 91.1365 200.028 91.1365C200.401 91.1365 200.798 91.2765 201.218 91.5565C201.638 91.7898 201.848 92.1165 201.848 92.5365C201.848 92.9565 201.615 93.6332 201.148 94.5665C200.728 95.4998 200.191 96.5965 199.538 97.8565C198.885 99.1165 198.161 100.47 197.368 101.917C196.575 103.317 195.851 104.693 195.198 106.047C194.545 107.353 193.985 108.59 193.518 109.757C193.098 110.877 192.888 111.787 192.888 112.487C192.888 112.813 192.935 113.093 193.028 113.327C193.168 113.56 193.425 113.677 193.798 113.677C194.125 113.677 194.428 113.607 194.708 113.467C195.035 113.28 195.291 113.187 195.478 113.187C195.571 113.187 195.618 113.257 195.618 113.397C195.618 113.63 195.501 113.84 195.268 114.027C195.081 114.213 194.848 114.377 194.568 114.517C194.288 114.657 194.008 114.773 193.728 114.867C193.448 114.96 193.215 115.007 193.028 115.007C191.955 115.007 191.068 114.657 190.368 113.957C189.668 113.21 189.318 112.323 189.318 111.297C189.318 110.643 189.411 110.037 189.598 109.477C189.785 108.87 189.878 108.24 189.878 107.587C189.505 108.007 188.991 108.613 188.338 109.407C187.685 110.153 186.961 110.923 186.168 111.717C185.421 112.51 184.651 113.21 183.858 113.817C183.111 114.377 182.458 114.657 181.898 114.657C181.198 114.657 180.545 114.447 179.938 114.027C179.285 113.607 178.958 113.023 178.958 112.277C178.958 111.063 179.355 109.593 180.148 107.867C180.941 106.093 181.805 104.297 182.738 102.477C183.671 100.657 184.535 98.9298 185.328 97.2965C186.121 95.6165 186.518 94.2632 186.518 93.2365C186.518 92.7232 186.308 92.3498 185.888 92.1165C185.515 91.8365 185.328 91.6498 185.328 91.5565ZM187.358 94.0765C187.218 94.0765 187.125 94.3565 187.078 94.9165L186.728 96.1065C186.635 96.2932 186.588 96.4332 186.588 96.5265C186.635 96.5732 186.681 96.5265 186.728 96.3865C186.821 96.1998 186.915 95.9898 187.008 95.7565C187.101 95.5232 187.171 95.2898 187.218 95.0565C187.311 94.8232 187.358 94.6365 187.358 94.4965V94.0765ZM188.198 95.4065V94.9165C188.151 94.9165 188.128 94.9398 188.128 94.9865C188.128 95.0332 188.105 95.0798 188.058 95.1265C188.058 95.1732 188.058 95.2198 188.058 95.2665C187.825 95.7798 187.638 96.2932 187.498 96.8065C187.358 97.3198 187.288 97.5998 187.288 97.6465C187.335 97.6932 187.475 97.4598 187.708 96.9465C187.941 96.3865 188.105 95.9898 188.198 95.7565V95.4065ZM189.598 96.5965C189.691 96.5032 189.738 96.3865 189.738 96.2465C189.738 96.0598 189.738 95.9432 189.738 95.8965C189.738 95.9432 189.715 95.9898 189.668 96.0365C189.575 96.1298 189.528 96.2232 189.528 96.3165C189.435 96.5965 189.388 96.8298 189.388 97.0165L189.458 96.9465C189.505 96.8998 189.528 96.8532 189.528 96.8065C189.528 96.7598 189.551 96.6898 189.598 96.5965ZM191.768 108.147C191.768 108.1 191.768 108.053 191.768 108.007C191.815 107.96 191.838 107.913 191.838 107.867V107.797C191.791 107.797 191.721 107.913 191.628 108.147C191.535 108.38 191.441 108.66 191.348 108.987C191.255 109.313 191.161 109.64 191.068 109.967C190.975 110.293 190.928 110.55 190.928 110.737V111.297C190.975 111.297 191.115 110.83 191.348 109.897C191.441 109.523 191.511 109.173 191.558 108.847C191.651 108.52 191.721 108.287 191.768 108.147ZM190.438 109.757C190.438 109.663 190.438 109.57 190.438 109.477C190.485 109.337 190.508 109.22 190.508 109.127V108.847C190.415 108.753 190.321 108.963 190.228 109.477C190.135 109.99 190.088 110.433 190.088 110.807V111.227V111.507V111.437C190.088 111.39 190.088 111.367 190.088 111.367C190.135 111.32 190.158 111.25 190.158 111.157C190.158 111.017 190.181 110.807 190.228 110.527C190.275 110.247 190.345 109.99 190.438 109.757ZM180.778 111.577C180.825 111.483 180.848 111.39 180.848 111.297C180.848 111.157 180.871 111.04 180.918 110.947C180.918 110.853 180.941 110.76 180.988 110.667C180.941 110.62 180.848 110.783 180.708 111.157C180.568 111.53 180.475 111.81 180.428 111.997C180.428 112.043 180.428 112.09 180.428 112.137C180.381 112.183 180.358 112.253 180.358 112.347C180.358 112.44 180.381 112.487 180.428 112.487C180.475 112.487 180.591 112.183 180.778 111.577ZM179.798 111.647C179.845 111.507 179.868 111.297 179.868 111.017C179.821 110.97 179.751 111.133 179.658 111.507C179.565 111.833 179.518 112.067 179.518 112.207V112.347C179.518 112.393 179.541 112.417 179.588 112.417C179.635 112.417 179.705 112.16 179.798 111.647ZM192.468 111.087C192.468 110.947 192.445 110.877 192.398 110.877V111.017C192.398 111.11 192.421 111.133 192.468 111.087ZM205.948 91.0665C206.975 91.0665 207.862 91.3932 208.608 92.0465C209.355 92.6998 209.775 93.5398 209.868 94.5665C209.915 95.3598 209.798 96.1765 209.518 97.0165C209.285 97.8565 208.982 98.6965 208.608 99.5365C208.235 100.377 207.838 101.193 207.418 101.987C206.998 102.78 206.648 103.527 206.368 104.227C206.835 103.853 207.488 103.27 208.328 102.477C209.168 101.683 210.078 100.797 211.058 99.8165C212.085 98.8365 213.135 97.8332 214.208 96.8065C215.328 95.7798 216.402 94.8465 217.428 94.0065C218.502 93.1198 219.482 92.4198 220.368 91.9065C221.255 91.3465 221.978 91.0665 222.538 91.0665C222.958 91.0665 223.332 91.2065 223.658 91.4865C223.985 91.7665 224.172 92.1165 224.218 92.5365C224.265 93.0498 224.032 93.7965 223.518 94.7765C223.052 95.7565 222.422 96.8765 221.628 98.1365C220.882 99.3965 220.065 100.727 219.178 102.127C218.292 103.527 217.452 104.927 216.658 106.327C215.912 107.68 215.305 108.987 214.838 110.247C214.372 111.46 214.185 112.51 214.278 113.397C214.278 113.63 214.418 113.747 214.698 113.747C214.978 113.747 215.258 113.723 215.538 113.677C215.818 113.583 216.098 113.513 216.378 113.467C216.098 113.887 215.702 114.237 215.188 114.517C214.722 114.797 214.232 114.937 213.718 114.937C212.878 114.937 212.248 114.703 211.828 114.237C211.408 113.723 211.175 113.07 211.128 112.277C210.988 110.97 211.198 109.547 211.758 108.007C212.365 106.467 213.088 104.927 213.928 103.387C214.768 101.847 215.632 100.353 216.518 98.9065C217.452 97.4598 218.222 96.1998 218.828 95.1265C215.795 97.0865 213.042 99.4665 210.568 102.267C208.142 105.067 205.808 107.867 203.568 110.667C203.428 110.807 203.195 111.11 202.868 111.577C202.588 111.997 202.262 112.44 201.888 112.907C201.562 113.327 201.212 113.723 200.838 114.097C200.512 114.47 200.255 114.657 200.068 114.657C199.695 114.657 199.345 114.517 199.018 114.237C198.645 113.957 198.318 113.677 198.038 113.397C198.178 112.51 198.482 111.46 198.948 110.247C199.415 108.987 199.928 107.68 200.488 106.327C201.095 104.973 201.702 103.597 202.308 102.197C202.962 100.75 203.545 99.3965 204.058 98.1365C204.572 96.8765 204.968 95.7565 205.248 94.7765C205.575 93.7965 205.715 93.0265 205.668 92.4665C205.622 92.2332 205.528 91.9765 205.388 91.6965C205.295 91.4165 205.295 91.2065 205.388 91.0665H205.948ZM206.578 93.7965C206.625 93.4232 206.602 93.3065 206.508 93.4465C206.415 93.5398 206.322 93.8198 206.228 94.2865C206.182 94.5198 206.088 94.8465 205.948 95.2665C205.855 95.6398 205.738 96.0365 205.598 96.4565C205.505 96.8765 205.388 97.2498 205.248 97.5765C205.108 97.9032 205.015 98.1132 204.968 98.2065C204.875 98.3932 204.828 98.5098 204.828 98.5565C204.922 98.6498 205.038 98.5332 205.178 98.2065C205.318 97.8332 205.505 97.3665 205.738 96.8065C205.972 96.2932 206.158 95.7565 206.298 95.1965C206.438 94.6365 206.532 94.1698 206.578 93.7965ZM207.348 95.6165C207.255 95.2432 207.232 95.0565 207.278 95.0565C207.278 95.1032 207.255 95.1732 207.208 95.2665C207.115 95.4532 207.068 95.5932 207.068 95.6865C206.835 96.4332 206.602 97.1098 206.368 97.7165C206.135 98.2765 205.925 98.7898 205.738 99.2565C205.505 99.9098 205.412 100.19 205.458 100.097C205.552 100.003 205.762 99.6298 206.088 98.9765C206.415 98.2765 206.695 97.6232 206.928 97.0165C207.162 96.3632 207.302 95.8965 207.348 95.6165ZM208.818 97.0165C208.818 96.6432 208.772 96.5265 208.678 96.6665C208.632 96.7132 208.562 96.8532 208.468 97.0865C208.422 97.3198 208.352 97.5765 208.258 97.8565C208.212 98.0898 208.165 98.3232 208.118 98.5565C208.072 98.7432 208.048 98.8365 208.048 98.8365C208.048 98.8365 208.072 98.7665 208.118 98.6265C208.212 98.4865 208.305 98.3232 208.398 98.1365C208.492 97.9032 208.562 97.6932 208.608 97.5065C208.702 97.2732 208.772 97.1098 208.818 97.0165ZM213.438 109.057C213.392 109.057 213.322 109.197 213.228 109.477C213.135 109.71 213.018 110.013 212.878 110.387C212.785 110.713 212.692 111.04 212.598 111.367C212.552 111.693 212.528 111.927 212.528 112.067C212.575 112.207 212.622 112.183 212.668 111.997C212.715 111.763 212.808 111.39 212.948 110.877C213.042 110.457 213.135 110.083 213.228 109.757C213.322 109.43 213.392 109.243 213.438 109.197V109.057ZM211.898 111.367C212.038 110.667 212.108 110.247 212.108 110.107C212.062 110.107 212.015 110.2 211.968 110.387C211.922 110.527 211.875 110.737 211.828 111.017C211.782 111.25 211.735 111.483 211.688 111.717C211.642 111.95 211.618 112.113 211.618 112.207C211.665 112.44 211.758 112.16 211.898 111.367ZM228.74 91.4165C228.74 91.2298 228.903 91.1132 229.23 91.0665C229.557 91.0198 229.743 90.9965 229.79 90.9965C230.583 90.9965 231.283 91.3232 231.89 91.9765C232.543 92.5832 232.87 93.2832 232.87 94.0765C232.87 94.9165 232.637 95.9432 232.17 97.1565C231.703 98.3232 231.12 99.5598 230.42 100.867C229.72 102.127 228.95 103.433 228.11 104.787C227.317 106.093 226.57 107.307 225.87 108.427C225.17 109.547 224.587 110.55 224.12 111.437C223.653 112.277 223.42 112.86 223.42 113.187C223.42 113.513 223.443 113.747 223.49 113.887C223.583 113.98 223.677 114.05 223.77 114.097C223.863 114.143 223.98 114.19 224.12 114.237C224.26 114.283 224.377 114.4 224.47 114.587C224.47 114.727 224.26 114.843 223.84 114.937C223.42 115.03 223.14 115.077 223 115.077C222.72 115.077 222.393 114.983 222.02 114.797C221.693 114.61 221.367 114.377 221.04 114.097C220.76 113.817 220.527 113.513 220.34 113.187C220.107 112.813 219.99 112.463 219.99 112.137C219.99 111.53 220.223 110.713 220.69 109.687C221.11 108.613 221.647 107.447 222.3 106.187C223 104.927 223.747 103.62 224.54 102.267C225.333 100.913 226.057 99.6298 226.71 98.4165C227.41 97.1565 227.97 96.0365 228.39 95.0565C228.857 94.0298 229.09 93.2598 229.09 92.7465C229.09 92.5132 229.02 92.3032 228.88 92.1165C228.787 91.8832 228.74 91.6498 228.74 91.4165ZM229.16 95.5465C229.207 95.5465 229.253 95.4532 229.3 95.2665C229.393 95.0332 229.463 94.7998 229.51 94.5665C229.603 94.3332 229.673 94.1232 229.72 93.9365C229.813 93.7032 229.86 93.5398 229.86 93.4465V93.2365C229.767 93.2365 229.673 93.4465 229.58 93.8665C229.487 94.2398 229.417 94.4732 229.37 94.5665C229.323 94.7065 229.277 94.8698 229.23 95.0565C229.183 95.1965 229.16 95.3598 229.16 95.5465ZM229.58 97.0165C229.627 97.0165 229.697 96.8998 229.79 96.6665C229.93 96.4332 230.047 96.1765 230.14 95.8965C230.28 95.6165 230.397 95.3365 230.49 95.0565C230.583 94.7765 230.63 94.5898 230.63 94.4965V94.2165C230.583 94.2165 230.49 94.3798 230.35 94.7065C230.257 95.0332 230.187 95.2432 230.14 95.3365C230.093 95.4298 229.977 95.7098 229.79 96.1765C229.65 96.6432 229.58 96.9232 229.58 97.0165ZM231.54 97.0165C231.727 96.6898 231.82 96.3632 231.82 96.0365V95.7565C231.727 95.9898 231.657 96.1998 231.61 96.3865C231.563 96.5732 231.54 96.7832 231.54 97.0165ZM221.67 112.067C221.763 112.067 221.88 111.787 222.02 111.227C222.16 110.667 222.253 110.293 222.3 110.107C222.207 110.247 222.067 110.55 221.88 111.017C221.693 111.437 221.6 111.717 221.6 111.857V111.997C221.6 112.043 221.623 112.067 221.67 112.067ZM220.69 112.067C220.83 111.833 220.923 111.6 220.97 111.367C221.017 111.133 221.063 110.9 221.11 110.667L220.69 112.067ZM231.68 85.1865C231.68 84.3932 231.937 83.8098 232.45 83.4365C233.01 83.0165 233.64 82.8065 234.34 82.8065C234.993 82.8065 235.6 82.9698 236.16 83.2965C236.767 83.6232 237.07 84.1598 237.07 84.9065C237.07 85.5598 236.86 86.1432 236.44 86.6565C236.02 87.1698 235.483 87.4265 234.83 87.4265C234.27 87.4265 233.593 87.2165 232.8 86.7965C232.053 86.3765 231.68 85.8398 231.68 85.1865ZM249.187 72.2365C249.98 72.3765 250.68 72.6098 251.287 72.9365C251.94 73.2632 252.244 73.8932 252.197 74.8265C252.15 76.3665 251.87 77.8832 251.357 79.3765C250.844 80.8698 250.494 82.3632 250.307 83.8565C250.727 83.9498 251.17 84.0432 251.637 84.1365C252.104 84.2298 252.547 84.3698 252.967 84.5565C253.387 84.7432 253.737 84.9998 254.017 85.3265C254.297 85.6532 254.437 86.0965 254.437 86.6565C254.437 87.2165 254.274 87.6132 253.947 87.8465C253.667 88.0332 253.27 88.1265 252.757 88.1265C252.104 88.1265 251.45 88.0565 250.797 87.9165C250.144 87.7765 249.49 87.7065 248.837 87.7065C248.184 89.0598 247.274 90.8798 246.107 93.1665C244.987 95.4532 243.844 97.8332 242.677 100.307C241.557 102.733 240.577 105.067 239.737 107.307C238.897 109.5 238.454 111.18 238.407 112.347C238.407 112.487 238.407 112.65 238.407 112.837C238.407 112.977 238.454 113.117 238.547 113.257C238.78 113.35 239.037 113.443 239.317 113.537C239.597 113.63 239.854 113.77 240.087 113.957C239.62 114.563 239.06 114.867 238.407 114.867C237.754 114.867 237.217 114.703 236.797 114.377C236.377 114.003 236.027 113.56 235.747 113.047C235.467 112.487 235.28 111.927 235.187 111.367C235.047 110.76 234.977 110.2 234.977 109.687C235.024 107.96 235.397 106.163 236.097 104.297C236.797 102.383 237.59 100.493 238.477 98.6265C239.41 96.7598 240.367 94.9165 241.347 93.0965C242.327 91.2765 243.12 89.5498 243.727 87.9165C242.887 87.9165 242 88.0098 241.067 88.1965C240.134 88.3832 239.247 88.4298 238.407 88.3365C238.314 88.1965 238.244 87.8932 238.197 87.4265C238.197 86.9598 238.197 86.6332 238.197 86.4465C238.197 85.9798 238.524 85.6065 239.177 85.3265C239.877 84.9998 240.67 84.7432 241.557 84.5565C242.444 84.3232 243.307 84.1598 244.147 84.0665C244.987 83.9732 245.57 83.9032 245.897 83.8565C246.597 81.9898 247.297 80.0998 247.997 78.1865C248.697 76.2265 249.094 74.2432 249.187 72.2365ZM247.857 81.0565C248.09 80.4032 248.23 79.9598 248.277 79.7265C248.37 79.4932 248.3 79.6332 248.067 80.1465C248.02 80.2865 247.904 80.5665 247.717 80.9865C247.53 81.3598 247.367 81.7565 247.227 82.1765C246.854 82.9698 246.644 83.4598 246.597 83.6465C246.55 83.7865 246.574 83.8565 246.667 83.8565C246.854 83.8565 247.25 82.9232 247.857 81.0565ZM239.597 86.5865C239.69 86.5865 239.737 86.5865 239.737 86.5865C239.737 86.5398 239.69 86.5165 239.597 86.5165C239.55 86.5165 239.504 86.5398 239.457 86.5865C239.41 86.5865 239.34 86.5865 239.247 86.5865C239.2 86.6798 239.2 86.7265 239.247 86.7265C239.387 86.7265 239.504 86.6798 239.597 86.5865ZM244.987 87.8465C244.987 87.7532 244.94 87.7065 244.847 87.7065C244.8 87.7065 244.66 87.9165 244.427 88.3365C244.24 88.7565 243.984 89.2932 243.657 89.9465C243.424 90.5532 243.097 91.2532 242.677 92.0465C242.257 92.8398 241.93 93.5165 241.697 94.0765C241.324 94.7298 240.904 95.5698 240.437 96.5965C239.97 97.5765 239.504 98.5798 239.037 99.6065C238.57 100.633 238.127 101.59 237.707 102.477C237.334 103.363 237.077 103.993 236.937 104.367C236.844 104.74 236.727 105.137 236.587 105.557C236.447 105.93 236.33 106.233 236.237 106.467C236.097 106.887 235.98 107.33 235.887 107.797C235.794 108.263 235.794 108.45 235.887 108.357C235.887 108.31 235.91 108.193 235.957 108.007C236.05 107.773 236.144 107.493 236.237 107.167C236.377 106.84 236.517 106.42 236.657 105.907C236.844 105.393 237.03 104.903 237.217 104.437C237.404 104.017 237.684 103.363 238.057 102.477C238.43 101.59 238.85 100.657 239.317 99.6765C239.784 98.6498 240.25 97.6465 240.717 96.6665C241.23 95.6398 241.674 94.7765 242.047 94.0765C242.28 93.6098 242.56 93.0265 242.887 92.3265C243.214 91.6265 243.54 90.9498 243.867 90.2965C244.194 89.6432 244.45 89.0832 244.637 88.6165C244.87 88.1032 244.987 87.8465 244.987 87.8465ZM245.407 89.6665C245.594 89.1998 245.734 88.8032 245.827 88.4765C245.967 88.1498 246.037 87.9632 246.037 87.9165C246.037 87.8698 245.92 88.0798 245.687 88.5465C245.454 88.9665 245.197 89.5032 244.917 90.1565C244.544 90.8098 244.124 91.6265 243.657 92.6065C243.237 93.5865 242.84 94.4265 242.467 95.1265C241.254 97.5065 240.18 99.7465 239.247 101.847C238.314 103.9 237.707 105.393 237.427 106.327C237.194 106.98 237.1 107.283 237.147 107.237C237.24 107.19 237.45 106.77 237.777 105.977C237.964 105.51 238.244 104.833 238.617 103.947C239.037 103.06 239.48 102.103 239.947 101.077C240.46 100.003 240.974 98.9065 241.487 97.7865C242.047 96.6665 242.56 95.6165 243.027 94.6365C243.494 93.7032 243.937 92.7465 244.357 91.7665C244.824 90.7865 245.174 90.0865 245.407 89.6665ZM246.247 91.8365C246.34 91.6498 246.41 91.4632 246.457 91.2765C246.55 91.0898 246.644 90.9265 246.737 90.7865C246.784 90.5998 246.83 90.4598 246.877 90.3665L246.807 90.4365C246.714 90.5298 246.667 90.5998 246.667 90.6465C246.574 90.8798 246.224 91.6032 245.617 92.8165C245.057 93.9832 244.45 95.1965 243.797 96.4565C243.237 97.5298 242.654 98.6965 242.047 99.9565C241.487 101.217 240.95 102.407 240.437 103.527C239.924 104.647 239.504 105.603 239.177 106.397C238.85 107.143 238.687 107.587 238.687 107.727C238.687 107.773 238.827 107.517 239.107 106.957C239.387 106.35 239.714 105.603 240.087 104.717C241.114 102.617 241.977 100.843 242.677 99.3965C243.377 97.9032 243.914 96.8065 244.287 96.1065C244.474 95.7798 244.614 95.4998 244.707 95.2665C244.847 95.0332 244.917 94.8932 244.917 94.8465C244.917 94.7532 245.034 94.4732 245.267 94.0065C245.407 93.8198 245.57 93.5165 245.757 93.0965C245.944 92.6298 246.107 92.2098 246.247 91.8365ZM248.796 112.697C248.889 112.697 249.286 112.347 249.986 111.647C250.733 110.9 251.526 110.083 252.366 109.197C253.253 108.31 254.069 107.47 254.816 106.677C255.563 105.837 256.029 105.3 256.216 105.067C256.963 104.273 257.686 103.433 258.386 102.547C259.133 101.66 259.739 100.727 260.206 99.7465C260.346 99.4198 260.626 98.7898 261.046 97.8565C261.513 96.9232 262.003 95.9665 262.516 94.9865C263.029 93.9598 263.496 93.0498 263.916 92.2565C264.383 91.4165 264.709 90.9032 264.896 90.7165C265.176 90.4365 265.526 90.2965 265.946 90.2965C266.319 90.2965 266.646 90.4132 266.926 90.6465C267.253 90.8332 267.393 91.1365 267.346 91.5565C267.299 92.4432 267.019 93.6332 266.506 95.1265C266.039 96.5732 265.433 98.1832 264.686 99.9565C263.986 101.683 263.169 103.503 262.236 105.417C261.349 107.33 260.439 109.15 259.506 110.877C258.619 112.603 257.756 114.19 256.916 115.637C256.123 117.083 255.469 118.227 254.956 119.067C254.256 120.14 253.416 121.47 252.436 123.057C251.456 124.643 250.359 126.277 249.146 127.957C247.933 129.683 246.649 131.387 245.296 133.067C243.896 134.747 242.473 136.24 241.026 137.547C239.579 138.9 238.109 139.997 236.616 140.837C235.123 141.677 233.676 142.097 232.276 142.097C231.763 142.097 231.249 141.98 230.736 141.747C230.176 141.56 229.709 141.28 229.336 140.907C228.916 140.58 228.589 140.16 228.356 139.647C228.076 139.18 227.959 138.667 228.006 138.107C228.146 135.633 228.846 133.347 230.106 131.247C231.366 129.193 232.883 127.327 234.656 125.647C236.429 123.967 238.343 122.473 240.396 121.167C242.449 119.907 244.363 118.81 246.136 117.877C247.956 116.943 249.496 116.15 250.756 115.497C252.016 114.89 252.739 114.423 252.926 114.097C253.299 113.443 253.626 112.79 253.906 112.137C254.186 111.437 254.513 110.76 254.886 110.107C254.933 109.92 255.049 109.663 255.236 109.337C255.469 108.963 255.679 108.59 255.866 108.217C256.099 107.843 256.286 107.493 256.426 107.167C256.566 106.84 256.636 106.63 256.636 106.537C256.496 106.583 256.029 107.05 255.236 107.937C254.489 108.777 253.626 109.71 252.646 110.737C251.713 111.763 250.756 112.697 249.776 113.537C248.796 114.377 248.026 114.797 247.466 114.797C246.953 114.797 246.556 114.657 246.276 114.377C245.996 114.05 245.809 113.653 245.716 113.187C245.576 112.72 245.506 112.23 245.506 111.717C245.506 111.203 245.506 110.76 245.506 110.387C245.553 109.08 245.949 107.61 246.696 105.977C247.443 104.297 248.259 102.663 249.146 101.077C250.033 99.4432 250.826 97.9498 251.526 96.5965C252.273 95.1965 252.669 94.0998 252.716 93.3065C252.716 93.0265 252.693 92.7465 252.646 92.4665C252.646 92.1865 252.646 91.8832 252.646 91.5565C252.693 91.0898 252.949 90.8565 253.416 90.8565C254.349 90.8565 255.119 91.1132 255.726 91.6265C256.333 92.1398 256.589 92.8632 256.496 93.7965C256.403 95.1498 255.959 96.6198 255.166 98.2065C254.373 99.7932 253.509 101.403 252.576 103.037C251.689 104.67 250.849 106.28 250.056 107.867C249.263 109.453 248.819 110.923 248.726 112.277C248.726 112.323 248.703 112.417 248.656 112.557C248.656 112.65 248.703 112.697 248.796 112.697ZM232.346 140.067C233.466 140.067 234.679 139.623 235.986 138.737C237.246 137.85 238.529 136.707 239.836 135.307C241.143 133.907 242.426 132.343 243.686 130.617C244.946 128.937 246.113 127.233 247.186 125.507C248.259 123.827 249.193 122.24 249.986 120.747C250.779 119.3 251.386 118.133 251.806 117.247C251.619 117.2 251.223 117.293 250.616 117.527C250.056 117.76 249.449 118.04 248.796 118.367C248.143 118.693 247.513 118.997 246.906 119.277C246.346 119.603 245.973 119.813 245.786 119.907C244.246 120.747 242.589 121.797 240.816 123.057C239.043 124.363 237.409 125.787 235.916 127.327C234.376 128.913 233.093 130.593 232.066 132.367C230.993 134.14 230.409 135.96 230.316 137.827C230.269 138.48 230.433 139.017 230.806 139.437C231.179 139.857 231.693 140.067 232.346 140.067ZM264.336 93.3065C264.569 92.7465 264.756 92.2798 264.896 91.9065C265.083 91.4865 265.176 91.2532 265.176 91.2065C265.129 91.2065 265.036 91.3698 264.896 91.6965C264.756 91.9765 264.359 92.7932 263.706 94.1465C263.426 94.7998 263.169 95.3598 262.936 95.8265C262.749 96.2932 262.656 96.5498 262.656 96.5965C262.703 96.6898 262.866 96.4332 263.146 95.8265C263.473 95.2198 263.869 94.3798 264.336 93.3065ZM253.416 94.0765C253.509 93.7032 253.533 93.5165 253.486 93.5165C253.486 93.5165 253.439 93.5632 253.346 93.6565C253.346 93.7498 253.276 94.0065 253.136 94.4265C252.996 94.7998 252.809 95.2665 252.576 95.8265C252.343 96.3398 252.086 96.8765 251.806 97.4365C251.573 97.9965 251.339 98.4865 251.106 98.9065C250.686 99.6998 250.243 100.517 249.776 101.357C249.356 102.197 248.959 102.99 248.586 103.737C248.213 104.483 247.886 105.16 247.606 105.767C247.326 106.373 247.116 106.84 246.976 107.167C246.743 107.68 246.533 108.263 246.346 108.917C246.206 109.57 246.159 109.92 246.206 109.967C246.253 110.013 246.369 109.733 246.556 109.127C246.883 107.96 247.443 106.537 248.236 104.857C249.076 103.13 250.243 100.867 251.736 98.0665C252.156 97.3198 252.506 96.5732 252.786 95.8265C253.113 95.0798 253.323 94.4965 253.416 94.0765ZM253.696 96.3165C253.929 95.6632 254.023 95.2898 253.976 95.1965C253.929 95.1032 253.789 95.3598 253.556 95.9665C253.463 96.2465 253.276 96.6665 252.996 97.2265C252.716 97.7398 252.459 98.2298 252.226 98.6965C250.733 101.543 249.589 103.783 248.796 105.417C248.049 107.003 247.606 108.1 247.466 108.707C247.326 109.033 247.279 109.243 247.326 109.337C247.419 109.383 247.513 109.243 247.606 108.917C247.653 108.637 247.816 108.17 248.096 107.517C248.376 106.863 248.726 106.117 249.146 105.277C249.566 104.39 250.033 103.457 250.546 102.477C251.059 101.497 251.573 100.517 252.086 99.5365C252.459 98.8832 252.786 98.2532 253.066 97.6465C253.393 96.9932 253.603 96.5498 253.696 96.3165ZM254.956 97.0865C255.096 96.7132 255.143 96.5732 255.096 96.6665C255.049 96.7132 254.909 96.9698 254.676 97.4365C254.443 98.0898 254.116 98.7432 253.696 99.3965C253.603 99.5365 253.509 99.6765 253.416 99.8165C253.369 99.9565 253.323 100.073 253.276 100.167C253.183 100.307 253.136 100.4 253.136 100.447C253.183 100.447 253.299 100.307 253.486 100.027C253.673 99.6998 253.859 99.3498 254.046 98.9765C254.279 98.6032 254.489 98.2298 254.676 97.8565C254.863 97.4832 254.956 97.2265 254.956 97.0865ZM261.886 101.007C262.259 100.213 262.493 99.6532 262.586 99.3265C262.679 98.9998 262.609 99.0232 262.376 99.3965C262.283 99.4898 262.096 99.8398 261.816 100.447C261.536 101.007 261.233 101.637 260.906 102.337C260.533 103.037 260.136 103.83 259.716 104.717C259.296 105.557 258.969 106.233 258.736 106.747C258.503 107.213 258.246 107.727 257.966 108.287C257.686 108.8 257.453 109.22 257.266 109.547L255.936 112.207C255.703 112.673 255.493 113.07 255.306 113.397C255.166 113.677 255.096 113.84 255.096 113.887C255.096 113.98 255.329 113.583 255.796 112.697C256.309 111.81 256.916 110.713 257.616 109.407C258.316 108.053 259.063 106.63 259.856 105.137C260.649 103.597 261.326 102.22 261.886 101.007ZM263.916 100.237C264.149 99.6765 264.266 99.3498 264.266 99.2565C264.313 99.1632 264.219 99.3732 263.986 99.8865C263.893 100.073 263.706 100.447 263.426 101.007C263.146 101.567 262.843 102.127 262.516 102.687C262.283 103.293 261.979 104.017 261.606 104.857C261.233 105.65 260.883 106.35 260.556 106.957C260.323 107.517 260.089 108.007 259.856 108.427C259.669 108.8 259.576 109.01 259.576 109.057C259.623 109.057 259.809 108.753 260.136 108.147C260.463 107.54 260.836 106.793 261.256 105.907C261.723 104.973 262.189 103.993 262.656 102.967C263.123 101.94 263.543 101.03 263.916 100.237ZM258.876 104.577C259.063 104.203 259.156 103.947 259.156 103.807C259.156 103.807 259.016 104.017 258.736 104.437C258.503 104.857 258.246 105.347 257.966 105.907C257.686 106.42 257.429 106.933 257.196 107.447C256.963 107.913 256.823 108.217 256.776 108.357C256.776 108.45 256.823 108.403 256.916 108.217C257.056 107.983 257.196 107.727 257.336 107.447C257.523 107.167 257.686 106.863 257.826 106.537C258.013 106.21 258.153 105.953 258.246 105.767C258.339 105.58 258.433 105.37 258.526 105.137C258.619 104.903 258.736 104.717 258.876 104.577ZM250.336 106.047C250.476 105.813 250.523 105.697 250.476 105.697C250.383 105.883 250.289 106.047 250.196 106.187C250.056 106.467 249.986 106.653 249.986 106.747C249.986 106.793 250.009 106.747 250.056 106.607C250.149 106.467 250.243 106.28 250.336 106.047ZM249.076 108.707C249.169 108.613 249.216 108.497 249.216 108.357V108.217C249.169 108.17 249.099 108.263 249.006 108.497C248.959 108.73 248.936 108.893 248.936 108.987C248.936 109.033 248.959 109.033 249.006 108.987C249.053 108.893 249.076 108.8 249.076 108.707ZM256.146 109.757C256.239 109.477 256.193 109.477 256.006 109.757V109.897C256.099 109.897 256.146 109.85 256.146 109.757ZM255.796 110.317C255.843 110.223 255.843 110.2 255.796 110.247C255.749 110.293 255.703 110.363 255.656 110.457C255.609 110.503 255.586 110.55 255.586 110.597C255.586 110.643 255.563 110.69 255.516 110.737C255.516 110.737 255.563 110.713 255.656 110.667C255.749 110.48 255.796 110.363 255.796 110.317Z" fill="white"/>
</svg>
