<svg width="460" height="109" viewBox="0 0 460 109" fill="none" xmlns="http://www.w3.org/2000/svg">
<path d="M10.5968 6.72C10.7368 5.34 10.9068 4.25 11.1068 3.45C11.3068 2.63 11.5268 2.01 11.7668 1.59C12.0068 1.17 12.2668 0.899998 12.5468 0.779999C12.8268 0.659998 13.1068 0.599998 13.3868 0.599998H15.6668C15.8668 0.599998 16.0168 0.659998 16.1168 0.779999C16.2168 0.899998 16.2668 1.05 16.2668 1.23V35.37C16.2668 35.55 16.2168 35.7 16.1168 35.82C16.0168 35.94 15.8668 36 15.6668 36H13.9868C13.4068 36 12.9668 35.84 12.6668 35.52C12.3668 35.18 12.2268 34.75 12.2468 34.23L13.1468 11.43L10.3568 34.5C10.3168 34.92 10.0868 35.28 9.6668 35.58C9.2468 35.86 8.7868 36 8.2868 36H8.2268C7.7268 36 7.2668 35.86 6.8468 35.58C6.4268 35.28 6.1968 34.92 6.1568 34.5L3.3368 11.37L4.2368 34.23C4.2568 34.75 4.1168 35.18 3.8168 35.52C3.5168 35.84 3.0768 36 2.4968 36H0.816797C0.616797 36 0.466798 35.94 0.366798 35.82C0.266797 35.7 0.216797 35.55 0.216797 35.37V1.23C0.216797 1.05 0.266797 0.899998 0.366798 0.779999C0.466798 0.659998 0.616797 0.599998 0.816797 0.599998H2.8568C3.1368 0.599998 3.4168 0.659998 3.6968 0.779999C3.9768 0.879999 4.2368 1.14 4.4768 1.56C4.7168 1.98 4.9368 2.6 5.1368 3.42C5.3368 4.22 5.5068 5.32 5.6468 6.72L8.2568 25.5L10.5968 6.72ZM40.7815 0.599998C40.9615 0.599998 41.1015 0.659998 41.2015 0.779999C41.3015 0.899998 41.3615 1.04 41.3815 1.2L44.6815 35.25C44.7015 35.43 44.6415 35.6 44.5015 35.76C44.3815 35.92 44.1815 36 43.9015 36H42.4315C41.9315 36 41.5115 35.86 41.1715 35.58C40.8515 35.28 40.6715 34.92 40.6315 34.5L40.3315 29.67H37.8415L37.5415 34.5C37.5015 34.92 37.3115 35.28 36.9715 35.58C36.6515 35.86 36.2415 36 35.7415 36H34.2715C33.9915 36 33.7815 35.92 33.6415 35.76C33.5215 35.6 33.4715 35.43 33.4915 35.25L36.7915 1.2C36.8115 1.04 36.8715 0.899998 36.9715 0.779999C37.0715 0.659998 37.2115 0.599998 37.3915 0.599998H40.7815ZM38.0515 26.31H40.1215L39.0715 9.24L38.0515 26.31ZM68.4509 34.92C68.4509 35.22 68.3409 35.48 68.1209 35.7C67.9209 35.9 67.6709 36 67.3709 36H65.5109C65.2109 36 64.9509 35.9 64.7309 35.7C64.5309 35.48 64.4309 35.22 64.4309 34.92V21.75L61.3709 1.23C61.3309 1.05 61.3709 0.899998 61.4909 0.779999C61.6109 0.659998 61.7709 0.599998 61.9709 0.599998H63.6509C64.2309 0.599998 64.6509 0.769998 64.9109 1.11C65.1909 1.43 65.3509 1.85 65.3909 2.37L66.4409 15.09L67.5209 2.37C67.5609 1.85 67.7109 1.43 67.9709 1.11C68.2509 0.769998 68.6809 0.599998 69.2609 0.599998H70.9409C71.1409 0.599998 71.3009 0.659998 71.4209 0.779999C71.5409 0.899998 71.5809 1.05 71.5409 1.23L68.4509 21.75V34.92ZM123.324 0.599998C123.504 0.599998 123.654 0.649998 123.774 0.749998C123.894 0.849998 123.954 0.999998 123.954 1.2V2.22C123.954 2.74 123.814 3.16 123.534 3.48C123.254 3.8 122.884 3.96 122.424 3.96H120.564V34.92C120.564 35.22 120.454 35.48 120.234 35.7C120.034 35.9 119.784 36 119.484 36H117.624C117.324 36 117.064 35.9 116.844 35.7C116.644 35.48 116.544 35.22 116.544 34.92V3.96H114.684C114.224 3.96 113.854 3.8 113.574 3.48C113.294 3.16 113.154 2.74 113.154 2.22V1.2C113.154 0.999998 113.214 0.849998 113.334 0.749998C113.454 0.649998 113.604 0.599998 113.784 0.599998H123.324ZM143.415 0.599998C143.935 0.599998 144.355 0.739999 144.675 1.02C144.995 1.3 145.155 1.67 145.155 2.13V16.53H148.635V2.13C148.635 1.67 148.795 1.3 149.115 1.02C149.435 0.739999 149.855 0.599998 150.375 0.599998H152.055C152.255 0.599998 152.405 0.659998 152.505 0.779999C152.605 0.899998 152.655 1.05 152.655 1.23V35.37C152.655 35.55 152.605 35.7 152.505 35.82C152.405 35.94 152.255 36 152.055 36H150.375C149.795 36 149.355 35.84 149.055 35.52C148.775 35.18 148.635 34.75 148.635 34.23V19.89H145.155V34.23C145.155 34.75 145.005 35.18 144.705 35.52C144.425 35.84 143.995 36 143.415 36H141.735C141.535 36 141.385 35.94 141.285 35.82C141.185 35.7 141.135 35.55 141.135 35.37V1.23C141.135 1.05 141.185 0.899998 141.285 0.779999C141.385 0.659998 141.535 0.599998 141.735 0.599998H143.415ZM179.288 0.599998C179.468 0.599998 179.618 0.649998 179.738 0.749998C179.858 0.849998 179.918 0.999998 179.918 1.2V2.22C179.918 2.74 179.778 3.16 179.498 3.48C179.218 3.8 178.848 3.96 178.388 3.96H174.698V16.83H178.688C178.868 16.83 179.018 16.88 179.138 16.98C179.258 17.08 179.318 17.23 179.318 17.43V18.45C179.318 18.97 179.178 19.39 178.898 19.71C178.618 20.03 178.248 20.19 177.788 20.19H174.698V32.64H178.388C178.848 32.64 179.218 32.8 179.498 33.12C179.778 33.44 179.918 33.86 179.918 34.38V35.4C179.918 35.6 179.858 35.75 179.738 35.85C179.618 35.95 179.468 36 179.288 36H171.278C171.078 36 170.928 35.94 170.828 35.82C170.728 35.7 170.678 35.55 170.678 35.37V1.23C170.678 1.05 170.728 0.899998 170.828 0.779999C170.928 0.659998 171.078 0.599998 171.278 0.599998H179.288ZM229.529 22.11C229.529 21.59 229.669 21.16 229.949 20.82C230.229 20.48 230.649 20.31 231.209 20.31H232.949C233.149 20.31 233.299 20.37 233.399 20.49C233.499 20.61 233.549 20.76 233.549 20.94V31.32C233.549 32.92 233.039 34.18 232.019 35.1C231.019 36.02 229.609 36.48 227.789 36.48C226.909 36.48 226.119 36.36 225.419 36.12C224.719 35.88 224.109 35.54 223.589 35.1C223.089 34.64 222.699 34.1 222.419 33.48C222.159 32.84 222.029 32.12 222.029 31.32V5.28C222.029 3.68 222.529 2.42 223.529 1.5C224.549 0.579997 225.969 0.119997 227.789 0.119997C228.649 0.119997 229.429 0.239998 230.129 0.48C230.849 0.719999 231.459 1.07 231.959 1.53C232.479 1.97 232.869 2.51 233.129 3.15C233.409 3.77 233.549 4.48 233.549 5.28V16.05C233.549 16.23 233.499 16.38 233.399 16.5C233.299 16.62 233.149 16.68 232.949 16.68H231.269C230.689 16.68 230.249 16.52 229.949 16.2C229.669 15.86 229.529 15.43 229.529 14.91V5.28C229.529 4.74 229.389 4.31 229.109 3.99C228.829 3.65 228.389 3.48 227.789 3.48C227.209 3.48 226.769 3.65 226.469 3.99C226.189 4.31 226.049 4.74 226.049 5.28V31.32C226.049 31.86 226.189 32.3 226.469 32.64C226.749 32.96 227.189 33.12 227.789 33.12C228.369 33.12 228.799 32.96 229.079 32.64C229.379 32.3 229.529 31.86 229.529 31.32V22.11ZM249.756 5.28C249.756 3.68 250.256 2.42 251.256 1.5C252.276 0.579997 253.696 0.119997 255.516 0.119997C256.376 0.119997 257.156 0.239998 257.856 0.48C258.576 0.719999 259.186 1.07 259.686 1.53C260.206 1.97 260.596 2.51 260.856 3.15C261.136 3.77 261.276 4.48 261.276 5.28V31.32C261.276 32.92 260.766 34.18 259.746 35.1C258.746 36.02 257.336 36.48 255.516 36.48C254.636 36.48 253.846 36.36 253.146 36.12C252.446 35.88 251.836 35.54 251.316 35.1C250.816 34.64 250.426 34.1 250.146 33.48C249.886 32.84 249.756 32.12 249.756 31.32V5.28ZM257.256 5.28C257.256 4.74 257.116 4.31 256.836 3.99C256.556 3.65 256.116 3.48 255.516 3.48C254.936 3.48 254.496 3.65 254.196 3.99C253.916 4.31 253.776 4.74 253.776 5.28V31.32C253.776 31.86 253.916 32.3 254.196 32.64C254.476 32.96 254.916 33.12 255.516 33.12C256.096 33.12 256.526 32.96 256.806 32.64C257.106 32.3 257.256 31.86 257.256 31.32V5.28ZM289.679 6.72C289.819 5.34 289.989 4.25 290.189 3.45C290.389 2.63 290.609 2.01 290.849 1.59C291.089 1.17 291.349 0.899998 291.629 0.779999C291.909 0.659998 292.189 0.599998 292.469 0.599998H294.749C294.949 0.599998 295.099 0.659998 295.199 0.779999C295.299 0.899998 295.349 1.05 295.349 1.23V35.37C295.349 35.55 295.299 35.7 295.199 35.82C295.099 35.94 294.949 36 294.749 36H293.069C292.489 36 292.049 35.84 291.749 35.52C291.449 35.18 291.309 34.75 291.329 34.23L292.229 11.43L289.439 34.5C289.399 34.92 289.169 35.28 288.749 35.58C288.329 35.86 287.869 36 287.369 36H287.309C286.809 36 286.349 35.86 285.929 35.58C285.509 35.28 285.279 34.92 285.239 34.5L282.419 11.37L283.319 34.23C283.339 34.75 283.199 35.18 282.899 35.52C282.599 35.84 282.159 36 281.579 36H279.899C279.699 36 279.549 35.94 279.449 35.82C279.349 35.7 279.299 35.55 279.299 35.37V1.23C279.299 1.05 279.349 0.899998 279.449 0.779999C279.549 0.659998 279.699 0.599998 279.899 0.599998H281.939C282.219 0.599998 282.499 0.659998 282.779 0.779999C283.059 0.879999 283.319 1.14 283.559 1.56C283.799 1.98 284.019 2.6 284.219 3.42C284.419 4.22 284.589 5.32 284.729 6.72L287.339 25.5L289.679 6.72ZM324.874 31.32C324.874 32.92 324.364 34.18 323.344 35.1C322.344 36.02 320.934 36.48 319.114 36.48C318.234 36.48 317.444 36.36 316.744 36.12C316.044 35.88 315.434 35.54 314.914 35.1C314.414 34.64 314.024 34.1 313.744 33.48C313.484 32.84 313.354 32.12 313.354 31.32V1.23C313.354 1.05 313.404 0.899998 313.504 0.779999C313.604 0.659998 313.754 0.599998 313.954 0.599998H315.634C316.154 0.599998 316.574 0.739999 316.894 1.02C317.214 1.3 317.374 1.67 317.374 2.13V31.32C317.374 31.86 317.514 32.3 317.794 32.64C318.074 32.96 318.514 33.12 319.114 33.12C319.694 33.12 320.124 32.96 320.404 32.64C320.704 32.3 320.854 31.86 320.854 31.32V2.13C320.854 1.67 321.014 1.3 321.334 1.02C321.654 0.739999 322.074 0.599998 322.594 0.599998H324.274C324.474 0.599998 324.624 0.659998 324.724 0.779999C324.824 0.899998 324.874 1.05 324.874 1.23V31.32ZM353.816 0.599998C354.016 0.599998 354.166 0.659998 354.266 0.779999C354.366 0.899998 354.416 1.05 354.416 1.23V35.37C354.416 35.55 354.366 35.7 354.266 35.82C354.166 35.94 354.016 36 353.816 36H352.136C351.616 36 351.216 35.88 350.936 35.64C350.656 35.38 350.486 35.04 350.426 34.62C350.426 34.38 350.346 33.9 350.186 33.18C350.046 32.46 349.856 31.6 349.616 30.6C349.396 29.58 349.146 28.47 348.866 27.27C348.586 26.05 348.306 24.81 348.026 23.55C347.746 22.29 347.476 21.05 347.216 19.83C346.976 18.61 346.776 17.5 346.616 16.5L346.916 34.23C346.936 34.75 346.796 35.18 346.496 35.52C346.196 35.84 345.756 36 345.176 36H343.496C343.296 36 343.146 35.94 343.046 35.82C342.946 35.7 342.896 35.55 342.896 35.37V1.23C342.896 1.05 342.946 0.899998 343.046 0.779999C343.146 0.659998 343.296 0.599998 343.496 0.599998H345.176C345.676 0.599998 346.076 0.739999 346.376 1.02C346.696 1.28 346.876 1.63 346.916 2.07C346.956 2.39 347.046 2.97 347.186 3.81C347.326 4.63 347.506 5.6 347.726 6.72C347.946 7.84 348.186 9.06 348.446 10.38C348.706 11.7 348.966 13.02 349.226 14.34C349.506 15.64 349.766 16.88 350.006 18.06C350.266 19.24 350.496 20.26 350.696 21.12L350.396 2.13C350.396 1.67 350.556 1.3 350.876 1.02C351.196 0.739999 351.616 0.599998 352.136 0.599998H353.816ZM372.439 2.13C372.439 1.67 372.599 1.3 372.919 1.02C373.239 0.739999 373.659 0.599998 374.179 0.599998H375.859C376.059 0.599998 376.209 0.659998 376.309 0.779999C376.409 0.899998 376.459 1.05 376.459 1.23V34.92C376.459 35.22 376.349 35.48 376.129 35.7C375.929 35.9 375.679 36 375.379 36H373.519C373.219 36 372.959 35.9 372.739 35.7C372.539 35.48 372.439 35.22 372.439 34.92V2.13ZM403.812 0.599998C403.992 0.599998 404.142 0.649998 404.262 0.749998C404.382 0.849998 404.442 0.999998 404.442 1.2V2.22C404.442 2.74 404.302 3.16 404.022 3.48C403.742 3.8 403.372 3.96 402.912 3.96H401.052V34.92C401.052 35.22 400.942 35.48 400.722 35.7C400.522 35.9 400.272 36 399.972 36H398.112C397.812 36 397.552 35.9 397.332 35.7C397.132 35.48 397.032 35.22 397.032 34.92V3.96H395.172C394.712 3.96 394.342 3.8 394.062 3.48C393.782 3.16 393.642 2.74 393.642 2.22V1.2C393.642 0.999998 393.702 0.849998 393.822 0.749998C393.942 0.649998 394.092 0.599998 394.272 0.599998H403.812ZM430.953 0.599998C431.133 0.599998 431.283 0.649998 431.403 0.749998C431.523 0.849998 431.583 0.999998 431.583 1.2V2.22C431.583 2.74 431.443 3.16 431.163 3.48C430.883 3.8 430.513 3.96 430.053 3.96H428.193V34.92C428.193 35.22 428.083 35.48 427.863 35.7C427.663 35.9 427.413 36 427.113 36H425.253C424.953 36 424.693 35.9 424.473 35.7C424.273 35.48 424.173 35.22 424.173 34.92V3.96H422.313C421.853 3.96 421.483 3.8 421.203 3.48C420.923 3.16 420.783 2.74 420.783 2.22V1.2C420.783 0.999998 420.843 0.849998 420.963 0.749998C421.083 0.649998 421.233 0.599998 421.413 0.599998H430.953ZM456.213 34.92C456.213 35.22 456.103 35.48 455.883 35.7C455.683 35.9 455.433 36 455.133 36H453.273C452.973 36 452.713 35.9 452.493 35.7C452.293 35.48 452.193 35.22 452.193 34.92V21.75L449.133 1.23C449.093 1.05 449.133 0.899998 449.253 0.779999C449.373 0.659998 449.533 0.599998 449.733 0.599998H451.413C451.993 0.599998 452.413 0.769998 452.673 1.11C452.953 1.43 453.113 1.85 453.153 2.37L454.203 15.09L455.283 2.37C455.323 1.85 455.473 1.43 455.733 1.11C456.013 0.769998 456.443 0.599998 457.023 0.599998H458.703C458.903 0.599998 459.063 0.659998 459.183 0.779999C459.303 0.899998 459.343 1.05 459.303 1.23L456.213 21.75V34.92ZM91.676 72.6C92.536 72.6 93.316 72.72 94.016 72.96C94.736 73.2 95.346 73.55 95.846 74.01C96.366 74.45 96.756 74.99 97.016 75.63C97.296 76.25 97.436 76.96 97.436 77.76V86.43C97.436 87.31 97.256 88.03 96.896 88.59C96.556 89.15 96.076 89.6 95.456 89.94C96.076 90.28 96.556 90.73 96.896 91.29C97.256 91.83 97.436 92.53 97.436 93.39V102.84C97.436 104.44 96.916 105.7 95.876 106.62C94.836 107.54 93.436 108 91.676 108H86.516C86.316 108 86.166 107.94 86.066 107.82C85.966 107.7 85.916 107.55 85.916 107.37V73.23C85.916 73.05 85.966 72.9 86.066 72.78C86.166 72.66 86.316 72.6 86.516 72.6H91.676ZM89.936 91.59V104.64H91.676C92.296 104.64 92.736 104.47 92.996 104.13C93.276 103.79 93.416 103.36 93.416 102.84V93.39C93.416 92.87 93.276 92.44 92.996 92.1C92.716 91.76 92.276 91.59 91.676 91.59H89.936ZM91.676 88.23C92.276 88.23 92.716 88.06 92.996 87.72C93.276 87.38 93.416 86.95 93.416 86.43V77.76C93.416 77.22 93.276 76.79 92.996 76.47C92.716 76.13 92.276 75.96 91.676 75.96H89.936V88.23H91.676ZM124.069 72.6C124.249 72.6 124.399 72.65 124.519 72.75C124.639 72.85 124.699 73 124.699 73.2V74.22C124.699 74.74 124.559 75.16 124.279 75.48C123.999 75.8 123.629 75.96 123.169 75.96H119.479V88.83H123.469C123.649 88.83 123.799 88.88 123.919 88.98C124.039 89.08 124.099 89.23 124.099 89.43V90.45C124.099 90.97 123.959 91.39 123.679 91.71C123.399 92.03 123.029 92.19 122.569 92.19H119.479V104.64H123.169C123.629 104.64 123.999 104.8 124.279 105.12C124.559 105.44 124.699 105.86 124.699 106.38V107.4C124.699 107.6 124.639 107.75 124.519 107.85C124.399 107.95 124.249 108 124.069 108H116.059C115.859 108 115.709 107.94 115.609 107.82C115.509 107.7 115.459 107.55 115.459 107.37V73.23C115.459 73.05 115.509 72.9 115.609 72.78C115.709 72.66 115.859 72.6 116.059 72.6H124.069ZM178.121 108C177.941 108 177.801 107.94 177.701 107.82C177.601 107.7 177.541 107.56 177.521 107.4L175.721 85.53L173.951 107.4C173.931 107.56 173.871 107.7 173.771 107.82C173.671 107.94 173.531 108 173.351 108H169.961C169.781 108 169.641 107.94 169.541 107.82C169.441 107.7 169.381 107.56 169.361 107.4L166.061 73.35C166.041 73.17 166.091 73 166.211 72.84C166.351 72.68 166.561 72.6 166.841 72.6H168.311C168.811 72.6 169.221 72.75 169.541 73.05C169.881 73.33 170.071 73.68 170.111 74.1L171.701 100.02L173.501 74.1C173.541 73.7 173.711 73.36 174.011 73.08C174.331 72.8 174.721 72.64 175.181 72.6H176.171C176.671 72.6 177.081 72.75 177.401 73.05C177.741 73.33 177.931 73.68 177.971 74.1L179.771 100.02L181.361 74.1C181.401 73.68 181.581 73.33 181.901 73.05C182.241 72.75 182.661 72.6 183.161 72.6H184.631C184.911 72.6 185.111 72.68 185.231 72.84C185.371 73 185.431 73.17 185.411 73.35L182.111 107.4C182.091 107.56 182.031 107.7 181.931 107.82C181.831 107.94 181.691 108 181.511 108H178.121ZM202.682 74.13C202.682 73.67 202.842 73.3 203.162 73.02C203.482 72.74 203.902 72.6 204.422 72.6H206.102C206.302 72.6 206.452 72.66 206.552 72.78C206.652 72.9 206.702 73.05 206.702 73.23V106.92C206.702 107.22 206.592 107.48 206.372 107.7C206.172 107.9 205.922 108 205.622 108H203.762C203.462 108 203.202 107.9 202.982 107.7C202.782 107.48 202.682 107.22 202.682 106.92V74.13ZM234.055 72.6C234.235 72.6 234.385 72.65 234.505 72.75C234.625 72.85 234.685 73 234.685 73.2V74.22C234.685 74.74 234.545 75.16 234.265 75.48C233.985 75.8 233.615 75.96 233.155 75.96H231.295V106.92C231.295 107.22 231.185 107.48 230.965 107.7C230.765 107.9 230.515 108 230.215 108H228.355C228.055 108 227.795 107.9 227.575 107.7C227.375 107.48 227.275 107.22 227.275 106.92V75.96H225.415C224.955 75.96 224.585 75.8 224.305 75.48C224.025 75.16 223.885 74.74 223.885 74.22V73.2C223.885 73 223.945 72.85 224.065 72.75C224.185 72.65 224.335 72.6 224.515 72.6H234.055ZM254.145 72.6C254.665 72.6 255.085 72.74 255.405 73.02C255.725 73.3 255.885 73.67 255.885 74.13V88.53H259.365V74.13C259.365 73.67 259.525 73.3 259.845 73.02C260.165 72.74 260.585 72.6 261.105 72.6H262.785C262.985 72.6 263.135 72.66 263.235 72.78C263.335 72.9 263.385 73.05 263.385 73.23V107.37C263.385 107.55 263.335 107.7 263.235 107.82C263.135 107.94 262.985 108 262.785 108H261.105C260.525 108 260.085 107.84 259.785 107.52C259.505 107.18 259.365 106.75 259.365 106.23V91.89H255.885V106.23C255.885 106.75 255.735 107.18 255.435 107.52C255.155 107.84 254.725 108 254.145 108H252.465C252.265 108 252.115 107.94 252.015 107.82C251.915 107.7 251.865 107.55 251.865 107.37V73.23C251.865 73.05 251.915 72.9 252.015 72.78C252.115 72.66 252.265 72.6 252.465 72.6H254.145ZM312.951 106.92C312.951 107.22 312.841 107.48 312.621 107.7C312.421 107.9 312.171 108 311.871 108H310.011C309.711 108 309.451 107.9 309.231 107.7C309.031 107.48 308.931 107.22 308.931 106.92V93.75L305.871 73.23C305.831 73.05 305.871 72.9 305.991 72.78C306.111 72.66 306.271 72.6 306.471 72.6H308.151C308.731 72.6 309.151 72.77 309.411 73.11C309.691 73.43 309.851 73.85 309.891 74.37L310.941 87.09L312.021 74.37C312.061 73.85 312.211 73.43 312.471 73.11C312.751 72.77 313.181 72.6 313.761 72.6H315.441C315.641 72.6 315.801 72.66 315.921 72.78C316.041 72.9 316.081 73.05 316.041 73.23L312.951 93.75V106.92ZM331.998 77.28C331.998 75.68 332.498 74.42 333.498 73.5C334.518 72.58 335.938 72.12 337.758 72.12C338.618 72.12 339.398 72.24 340.098 72.48C340.818 72.72 341.428 73.07 341.928 73.53C342.448 73.97 342.838 74.51 343.098 75.15C343.378 75.77 343.518 76.48 343.518 77.28V103.32C343.518 104.92 343.008 106.18 341.988 107.1C340.988 108.02 339.578 108.48 337.758 108.48C336.878 108.48 336.088 108.36 335.388 108.12C334.688 107.88 334.078 107.54 333.558 107.1C333.058 106.64 332.668 106.1 332.388 105.48C332.128 104.84 331.998 104.12 331.998 103.32V77.28ZM339.498 77.28C339.498 76.74 339.358 76.31 339.078 75.99C338.798 75.65 338.358 75.48 337.758 75.48C337.178 75.48 336.738 75.65 336.438 75.99C336.158 76.31 336.018 76.74 336.018 77.28V103.32C336.018 103.86 336.158 104.3 336.438 104.64C336.718 104.96 337.158 105.12 337.758 105.12C338.338 105.12 338.768 104.96 339.048 104.64C339.348 104.3 339.498 103.86 339.498 103.32V77.28ZM373.061 103.32C373.061 104.92 372.551 106.18 371.531 107.1C370.531 108.02 369.121 108.48 367.301 108.48C366.421 108.48 365.631 108.36 364.931 108.12C364.231 107.88 363.621 107.54 363.101 107.1C362.601 106.64 362.211 106.1 361.931 105.48C361.671 104.84 361.541 104.12 361.541 103.32V73.23C361.541 73.05 361.591 72.9 361.691 72.78C361.791 72.66 361.941 72.6 362.141 72.6H363.821C364.341 72.6 364.761 72.74 365.081 73.02C365.401 73.3 365.561 73.67 365.561 74.13V103.32C365.561 103.86 365.701 104.3 365.981 104.64C366.261 104.96 366.701 105.12 367.301 105.12C367.881 105.12 368.311 104.96 368.591 104.64C368.891 104.3 369.041 103.86 369.041 103.32V74.13C369.041 73.67 369.201 73.3 369.521 73.02C369.841 72.74 370.261 72.6 370.781 72.6H372.461C372.661 72.6 372.811 72.66 372.911 72.78C373.011 72.9 373.061 73.05 373.061 73.23V103.32Z" fill="white"/>
</svg>
