<svg width="467" height="109" viewBox="0 0 467 109" fill="none" xmlns="http://www.w3.org/2000/svg">
<path d="M11.1398 6.72C11.2798 5.34 11.4498 4.25 11.6498 3.45C11.8498 2.63 12.0698 2.01 12.3098 1.59C12.5498 1.17 12.8098 0.899998 13.0898 0.779999C13.3698 0.659998 13.6498 0.599998 13.9298 0.599998H16.2098C16.4098 0.599998 16.5598 0.659998 16.6598 0.779999C16.7598 0.899998 16.8098 1.05 16.8098 1.23V35.37C16.8098 35.55 16.7598 35.7 16.6598 35.82C16.5598 35.94 16.4098 36 16.2098 36H14.5298C13.9498 36 13.5098 35.84 13.2098 35.52C12.9098 35.18 12.7698 34.75 12.7898 34.23L13.6898 11.43L10.8998 34.5C10.8598 34.92 10.6298 35.28 10.2098 35.58C9.78977 35.86 9.32977 36 8.82977 36H8.76977C8.26977 36 7.80977 35.86 7.38977 35.58C6.96977 35.28 6.73977 34.92 6.69977 34.5L3.87977 11.37L4.77977 34.23C4.79977 34.75 4.65977 35.18 4.35977 35.52C4.05977 35.84 3.61977 36 3.03977 36H1.35977C1.15977 36 1.00977 35.94 0.909766 35.82C0.809766 35.7 0.759766 35.55 0.759766 35.37V1.23C0.759766 1.05 0.809766 0.899998 0.909766 0.779999C1.00977 0.659998 1.15977 0.599998 1.35977 0.599998H3.39977C3.67977 0.599998 3.95977 0.659998 4.23977 0.779999C4.51977 0.879999 4.77977 1.14 5.01977 1.56C5.25977 1.98 5.47977 2.6 5.67977 3.42C5.87977 4.22 6.04977 5.32 6.18977 6.72L8.79977 25.5L11.1398 6.72ZM41.3245 0.599998C41.5045 0.599998 41.6445 0.659998 41.7445 0.779999C41.8445 0.899998 41.9045 1.04 41.9245 1.2L45.2245 35.25C45.2445 35.43 45.1845 35.6 45.0445 35.76C44.9245 35.92 44.7245 36 44.4445 36H42.9745C42.4745 36 42.0545 35.86 41.7145 35.58C41.3945 35.28 41.2145 34.92 41.1745 34.5L40.8745 29.67H38.3845L38.0845 34.5C38.0445 34.92 37.8545 35.28 37.5145 35.58C37.1945 35.86 36.7845 36 36.2845 36H34.8145C34.5345 36 34.3245 35.92 34.1845 35.76C34.0645 35.6 34.0145 35.43 34.0345 35.25L37.3345 1.2C37.3545 1.04 37.4145 0.899998 37.5145 0.779999C37.6145 0.659998 37.7545 0.599998 37.9345 0.599998H41.3245ZM38.5945 26.31H40.6645L39.6145 9.24L38.5945 26.31ZM68.9938 34.92C68.9938 35.22 68.8838 35.48 68.6638 35.7C68.4638 35.9 68.2138 36 67.9138 36H66.0538C65.7538 36 65.4938 35.9 65.2738 35.7C65.0738 35.48 64.9738 35.22 64.9738 34.92V21.75L61.9138 1.23C61.8738 1.05 61.9138 0.899998 62.0338 0.779999C62.1538 0.659998 62.3138 0.599998 62.5138 0.599998H64.1938C64.7738 0.599998 65.1938 0.769998 65.4538 1.11C65.7338 1.43 65.8938 1.85 65.9338 2.37L66.9838 15.09L68.0638 2.37C68.1038 1.85 68.2538 1.43 68.5138 1.11C68.7938 0.769998 69.2238 0.599998 69.8038 0.599998H71.4838C71.6838 0.599998 71.8438 0.659998 71.9638 0.779999C72.0838 0.899998 72.1238 1.05 72.0838 1.23L68.9938 21.75V34.92ZM123.867 0.599998C124.047 0.599998 124.197 0.649998 124.317 0.749998C124.437 0.849998 124.497 0.999998 124.497 1.2V2.22C124.497 2.74 124.357 3.16 124.077 3.48C123.797 3.8 123.427 3.96 122.967 3.96H121.107V34.92C121.107 35.22 120.997 35.48 120.777 35.7C120.577 35.9 120.327 36 120.027 36H118.167C117.867 36 117.607 35.9 117.387 35.7C117.187 35.48 117.087 35.22 117.087 34.92V3.96H115.227C114.767 3.96 114.397 3.8 114.117 3.48C113.837 3.16 113.697 2.74 113.697 2.22V1.2C113.697 0.999998 113.757 0.849998 113.877 0.749998C113.997 0.649998 114.147 0.599998 114.327 0.599998H123.867ZM143.958 0.599998C144.478 0.599998 144.898 0.739999 145.218 1.02C145.538 1.3 145.698 1.67 145.698 2.13V16.53H149.178V2.13C149.178 1.67 149.338 1.3 149.658 1.02C149.978 0.739999 150.398 0.599998 150.918 0.599998H152.598C152.798 0.599998 152.948 0.659998 153.048 0.779999C153.148 0.899998 153.198 1.05 153.198 1.23V35.37C153.198 35.55 153.148 35.7 153.048 35.82C152.948 35.94 152.798 36 152.598 36H150.918C150.338 36 149.898 35.84 149.598 35.52C149.318 35.18 149.178 34.75 149.178 34.23V19.89H145.698V34.23C145.698 34.75 145.548 35.18 145.248 35.52C144.968 35.84 144.538 36 143.958 36H142.278C142.078 36 141.928 35.94 141.828 35.82C141.728 35.7 141.678 35.55 141.678 35.37V1.23C141.678 1.05 141.728 0.899998 141.828 0.779999C141.928 0.659998 142.078 0.599998 142.278 0.599998H143.958ZM179.831 0.599998C180.011 0.599998 180.161 0.649998 180.281 0.749998C180.401 0.849998 180.461 0.999998 180.461 1.2V2.22C180.461 2.74 180.321 3.16 180.041 3.48C179.761 3.8 179.391 3.96 178.931 3.96H175.241V16.83H179.231C179.411 16.83 179.561 16.88 179.681 16.98C179.801 17.08 179.861 17.23 179.861 17.43V18.45C179.861 18.97 179.721 19.39 179.441 19.71C179.161 20.03 178.791 20.19 178.331 20.19H175.241V32.64H178.931C179.391 32.64 179.761 32.8 180.041 33.12C180.321 33.44 180.461 33.86 180.461 34.38V35.4C180.461 35.6 180.401 35.75 180.281 35.85C180.161 35.95 180.011 36 179.831 36H171.821C171.621 36 171.471 35.94 171.371 35.82C171.271 35.7 171.221 35.55 171.221 35.37V1.23C171.221 1.05 171.271 0.899998 171.371 0.779999C171.471 0.659998 171.621 0.599998 171.821 0.599998H179.831ZM230.072 22.11C230.072 21.59 230.212 21.16 230.492 20.82C230.772 20.48 231.192 20.31 231.752 20.31H233.492C233.692 20.31 233.842 20.37 233.942 20.49C234.042 20.61 234.092 20.76 234.092 20.94V31.32C234.092 32.92 233.582 34.18 232.562 35.1C231.562 36.02 230.152 36.48 228.332 36.48C227.452 36.48 226.662 36.36 225.962 36.12C225.262 35.88 224.652 35.54 224.132 35.1C223.632 34.64 223.242 34.1 222.962 33.48C222.702 32.84 222.572 32.12 222.572 31.32V5.28C222.572 3.68 223.072 2.42 224.072 1.5C225.092 0.579997 226.512 0.119997 228.332 0.119997C229.192 0.119997 229.972 0.239998 230.672 0.48C231.392 0.719999 232.002 1.07 232.502 1.53C233.022 1.97 233.412 2.51 233.672 3.15C233.952 3.77 234.092 4.48 234.092 5.28V16.05C234.092 16.23 234.042 16.38 233.942 16.5C233.842 16.62 233.692 16.68 233.492 16.68H231.812C231.232 16.68 230.792 16.52 230.492 16.2C230.212 15.86 230.072 15.43 230.072 14.91V5.28C230.072 4.74 229.932 4.31 229.652 3.99C229.372 3.65 228.932 3.48 228.332 3.48C227.752 3.48 227.312 3.65 227.012 3.99C226.732 4.31 226.592 4.74 226.592 5.28V31.32C226.592 31.86 226.732 32.3 227.012 32.64C227.292 32.96 227.732 33.12 228.332 33.12C228.912 33.12 229.342 32.96 229.622 32.64C229.922 32.3 230.072 31.86 230.072 31.32V22.11ZM250.299 5.28C250.299 3.68 250.799 2.42 251.799 1.5C252.819 0.579997 254.239 0.119997 256.059 0.119997C256.919 0.119997 257.699 0.239998 258.399 0.48C259.119 0.719999 259.729 1.07 260.229 1.53C260.749 1.97 261.139 2.51 261.399 3.15C261.679 3.77 261.819 4.48 261.819 5.28V31.32C261.819 32.92 261.309 34.18 260.289 35.1C259.289 36.02 257.879 36.48 256.059 36.48C255.179 36.48 254.389 36.36 253.689 36.12C252.989 35.88 252.379 35.54 251.859 35.1C251.359 34.64 250.969 34.1 250.689 33.48C250.429 32.84 250.299 32.12 250.299 31.32V5.28ZM257.799 5.28C257.799 4.74 257.659 4.31 257.379 3.99C257.099 3.65 256.659 3.48 256.059 3.48C255.479 3.48 255.039 3.65 254.739 3.99C254.459 4.31 254.319 4.74 254.319 5.28V31.32C254.319 31.86 254.459 32.3 254.739 32.64C255.019 32.96 255.459 33.12 256.059 33.12C256.639 33.12 257.069 32.96 257.349 32.64C257.649 32.3 257.799 31.86 257.799 31.32V5.28ZM290.222 6.72C290.362 5.34 290.532 4.25 290.732 3.45C290.932 2.63 291.152 2.01 291.392 1.59C291.632 1.17 291.892 0.899998 292.172 0.779999C292.452 0.659998 292.732 0.599998 293.012 0.599998H295.292C295.492 0.599998 295.642 0.659998 295.742 0.779999C295.842 0.899998 295.892 1.05 295.892 1.23V35.37C295.892 35.55 295.842 35.7 295.742 35.82C295.642 35.94 295.492 36 295.292 36H293.612C293.032 36 292.592 35.84 292.292 35.52C291.992 35.18 291.852 34.75 291.872 34.23L292.772 11.43L289.982 34.5C289.942 34.92 289.712 35.28 289.292 35.58C288.872 35.86 288.412 36 287.912 36H287.852C287.352 36 286.892 35.86 286.472 35.58C286.052 35.28 285.822 34.92 285.782 34.5L282.962 11.37L283.862 34.23C283.882 34.75 283.742 35.18 283.442 35.52C283.142 35.84 282.702 36 282.122 36H280.442C280.242 36 280.092 35.94 279.992 35.82C279.892 35.7 279.842 35.55 279.842 35.37V1.23C279.842 1.05 279.892 0.899998 279.992 0.779999C280.092 0.659998 280.242 0.599998 280.442 0.599998H282.482C282.762 0.599998 283.042 0.659998 283.322 0.779999C283.602 0.879999 283.862 1.14 284.102 1.56C284.342 1.98 284.562 2.6 284.762 3.42C284.962 4.22 285.132 5.32 285.272 6.72L287.882 25.5L290.222 6.72ZM324.276 6.72C324.416 5.34 324.586 4.25 324.786 3.45C324.986 2.63 325.206 2.01 325.446 1.59C325.686 1.17 325.946 0.899998 326.226 0.779999C326.506 0.659998 326.786 0.599998 327.066 0.599998H329.346C329.546 0.599998 329.696 0.659998 329.796 0.779999C329.896 0.899998 329.946 1.05 329.946 1.23V35.37C329.946 35.55 329.896 35.7 329.796 35.82C329.696 35.94 329.546 36 329.346 36H327.666C327.086 36 326.646 35.84 326.346 35.52C326.046 35.18 325.906 34.75 325.926 34.23L326.826 11.43L324.036 34.5C323.996 34.92 323.766 35.28 323.346 35.58C322.926 35.86 322.466 36 321.966 36H321.906C321.406 36 320.946 35.86 320.526 35.58C320.106 35.28 319.876 34.92 319.836 34.5L317.016 11.37L317.916 34.23C317.936 34.75 317.796 35.18 317.496 35.52C317.196 35.84 316.756 36 316.176 36H314.496C314.296 36 314.146 35.94 314.046 35.82C313.946 35.7 313.896 35.55 313.896 35.37V1.23C313.896 1.05 313.946 0.899998 314.046 0.779999C314.146 0.659998 314.296 0.599998 314.496 0.599998H316.536C316.816 0.599998 317.096 0.659998 317.376 0.779999C317.656 0.879999 317.916 1.14 318.156 1.56C318.396 1.98 318.616 2.6 318.816 3.42C319.016 4.22 319.186 5.32 319.326 6.72L321.936 25.5L324.276 6.72ZM359.471 31.32C359.471 32.92 358.961 34.18 357.941 35.1C356.941 36.02 355.531 36.48 353.711 36.48C352.831 36.48 352.041 36.36 351.341 36.12C350.641 35.88 350.031 35.54 349.511 35.1C349.011 34.64 348.621 34.1 348.341 33.48C348.081 32.84 347.951 32.12 347.951 31.32V1.23C347.951 1.05 348.001 0.899998 348.101 0.779999C348.201 0.659998 348.351 0.599998 348.551 0.599998H350.231C350.751 0.599998 351.171 0.739999 351.491 1.02C351.811 1.3 351.971 1.67 351.971 2.13V31.32C351.971 31.86 352.111 32.3 352.391 32.64C352.671 32.96 353.111 33.12 353.711 33.12C354.291 33.12 354.721 32.96 355.001 32.64C355.301 32.3 355.451 31.86 355.451 31.32V2.13C355.451 1.67 355.611 1.3 355.931 1.02C356.251 0.739999 356.671 0.599998 357.191 0.599998H358.871C359.071 0.599998 359.221 0.659998 359.321 0.779999C359.421 0.899998 359.471 1.05 359.471 1.23V31.32ZM388.414 0.599998C388.614 0.599998 388.764 0.659998 388.864 0.779999C388.964 0.899998 389.014 1.05 389.014 1.23V35.37C389.014 35.55 388.964 35.7 388.864 35.82C388.764 35.94 388.614 36 388.414 36H386.734C386.214 36 385.814 35.88 385.534 35.64C385.254 35.38 385.084 35.04 385.024 34.62C385.024 34.38 384.944 33.9 384.784 33.18C384.644 32.46 384.454 31.6 384.214 30.6C383.994 29.58 383.744 28.47 383.464 27.27C383.184 26.05 382.904 24.81 382.624 23.55C382.344 22.29 382.074 21.05 381.814 19.83C381.574 18.61 381.374 17.5 381.214 16.5L381.514 34.23C381.534 34.75 381.394 35.18 381.094 35.52C380.794 35.84 380.354 36 379.774 36H378.094C377.894 36 377.744 35.94 377.644 35.82C377.544 35.7 377.494 35.55 377.494 35.37V1.23C377.494 1.05 377.544 0.899998 377.644 0.779999C377.744 0.659998 377.894 0.599998 378.094 0.599998H379.774C380.274 0.599998 380.674 0.739999 380.974 1.02C381.294 1.28 381.474 1.63 381.514 2.07C381.554 2.39 381.644 2.97 381.784 3.81C381.924 4.63 382.104 5.6 382.324 6.72C382.544 7.84 382.784 9.06 383.044 10.38C383.304 11.7 383.564 13.02 383.824 14.34C384.104 15.64 384.364 16.88 384.604 18.06C384.864 19.24 385.094 20.26 385.294 21.12L384.994 2.13C384.994 1.67 385.154 1.3 385.474 1.02C385.794 0.739999 386.214 0.599998 386.734 0.599998H388.414ZM407.037 2.13C407.037 1.67 407.197 1.3 407.517 1.02C407.837 0.739999 408.257 0.599998 408.777 0.599998H410.457C410.657 0.599998 410.807 0.659998 410.907 0.779999C411.007 0.899998 411.057 1.05 411.057 1.23V34.92C411.057 35.22 410.947 35.48 410.727 35.7C410.527 35.9 410.277 36 409.977 36H408.117C407.817 36 407.557 35.9 407.337 35.7C407.137 35.48 407.037 35.22 407.037 34.92V2.13ZM438.41 0.599998C438.59 0.599998 438.74 0.649998 438.86 0.749998C438.98 0.849998 439.04 0.999998 439.04 1.2V2.22C439.04 2.74 438.9 3.16 438.62 3.48C438.34 3.8 437.97 3.96 437.51 3.96H435.65V34.92C435.65 35.22 435.54 35.48 435.32 35.7C435.12 35.9 434.87 36 434.57 36H432.71C432.41 36 432.15 35.9 431.93 35.7C431.73 35.48 431.63 35.22 431.63 34.92V3.96H429.77C429.31 3.96 428.94 3.8 428.66 3.48C428.38 3.16 428.24 2.74 428.24 2.22V1.2C428.24 0.999998 428.3 0.849998 428.42 0.749998C428.54 0.649998 428.69 0.599998 428.87 0.599998H438.41ZM463.67 34.92C463.67 35.22 463.56 35.48 463.34 35.7C463.14 35.9 462.89 36 462.59 36H460.73C460.43 36 460.17 35.9 459.95 35.7C459.75 35.48 459.65 35.22 459.65 34.92V21.75L456.59 1.23C456.55 1.05 456.59 0.899998 456.71 0.779999C456.83 0.659998 456.99 0.599998 457.19 0.599998H458.87C459.45 0.599998 459.87 0.769998 460.13 1.11C460.41 1.43 460.57 1.85 460.61 2.37L461.66 15.09L462.74 2.37C462.78 1.85 462.93 1.43 463.19 1.11C463.47 0.769998 463.9 0.599998 464.48 0.599998H466.16C466.36 0.599998 466.52 0.659998 466.64 0.779999C466.76 0.899998 466.8 1.05 466.76 1.23L463.67 21.75V34.92ZM95.676 72.6C96.536 72.6 97.316 72.72 98.016 72.96C98.736 73.2 99.346 73.55 99.846 74.01C100.366 74.45 100.756 74.99 101.016 75.63C101.296 76.25 101.436 76.96 101.436 77.76V86.43C101.436 87.31 101.256 88.03 100.896 88.59C100.556 89.15 100.076 89.6 99.456 89.94C100.076 90.28 100.556 90.73 100.896 91.29C101.256 91.83 101.436 92.53 101.436 93.39V102.84C101.436 104.44 100.916 105.7 99.876 106.62C98.836 107.54 97.436 108 95.676 108H90.516C90.316 108 90.166 107.94 90.066 107.82C89.966 107.7 89.916 107.55 89.916 107.37V73.23C89.916 73.05 89.966 72.9 90.066 72.78C90.166 72.66 90.316 72.6 90.516 72.6H95.676ZM93.936 91.59V104.64H95.676C96.296 104.64 96.736 104.47 96.996 104.13C97.276 103.79 97.416 103.36 97.416 102.84V93.39C97.416 92.87 97.276 92.44 96.996 92.1C96.716 91.76 96.276 91.59 95.676 91.59H93.936ZM95.676 88.23C96.276 88.23 96.716 88.06 96.996 87.72C97.276 87.38 97.416 86.95 97.416 86.43V77.76C97.416 77.22 97.276 76.79 96.996 76.47C96.716 76.13 96.276 75.96 95.676 75.96H93.936V88.23H95.676ZM128.069 72.6C128.249 72.6 128.399 72.65 128.519 72.75C128.639 72.85 128.699 73 128.699 73.2V74.22C128.699 74.74 128.559 75.16 128.279 75.48C127.999 75.8 127.629 75.96 127.169 75.96H123.479V88.83H127.469C127.649 88.83 127.799 88.88 127.919 88.98C128.039 89.08 128.099 89.23 128.099 89.43V90.45C128.099 90.97 127.959 91.39 127.679 91.71C127.399 92.03 127.029 92.19 126.569 92.19H123.479V104.64H127.169C127.629 104.64 127.999 104.8 128.279 105.12C128.559 105.44 128.699 105.86 128.699 106.38V107.4C128.699 107.6 128.639 107.75 128.519 107.85C128.399 107.95 128.249 108 128.069 108H120.059C119.859 108 119.709 107.94 119.609 107.82C119.509 107.7 119.459 107.55 119.459 107.37V73.23C119.459 73.05 119.509 72.9 119.609 72.78C119.709 72.66 119.859 72.6 120.059 72.6H128.069ZM182.121 108C181.941 108 181.801 107.94 181.701 107.82C181.601 107.7 181.541 107.56 181.521 107.4L179.721 85.53L177.951 107.4C177.931 107.56 177.871 107.7 177.771 107.82C177.671 107.94 177.531 108 177.351 108H173.961C173.781 108 173.641 107.94 173.541 107.82C173.441 107.7 173.381 107.56 173.361 107.4L170.061 73.35C170.041 73.17 170.091 73 170.211 72.84C170.351 72.68 170.561 72.6 170.841 72.6H172.311C172.811 72.6 173.221 72.75 173.541 73.05C173.881 73.33 174.071 73.68 174.111 74.1L175.701 100.02L177.501 74.1C177.541 73.7 177.711 73.36 178.011 73.08C178.331 72.8 178.721 72.64 179.181 72.6H180.171C180.671 72.6 181.081 72.75 181.401 73.05C181.741 73.33 181.931 73.68 181.971 74.1L183.771 100.02L185.361 74.1C185.401 73.68 185.581 73.33 185.901 73.05C186.241 72.75 186.661 72.6 187.161 72.6H188.631C188.911 72.6 189.111 72.68 189.231 72.84C189.371 73 189.431 73.17 189.411 73.35L186.111 107.4C186.091 107.56 186.031 107.7 185.931 107.82C185.831 107.94 185.691 108 185.511 108H182.121ZM206.682 74.13C206.682 73.67 206.842 73.3 207.162 73.02C207.482 72.74 207.902 72.6 208.422 72.6H210.102C210.302 72.6 210.452 72.66 210.552 72.78C210.652 72.9 210.702 73.05 210.702 73.23V106.92C210.702 107.22 210.592 107.48 210.372 107.7C210.172 107.9 209.922 108 209.622 108H207.762C207.462 108 207.202 107.9 206.982 107.7C206.782 107.48 206.682 107.22 206.682 106.92V74.13ZM238.055 72.6C238.235 72.6 238.385 72.65 238.505 72.75C238.625 72.85 238.685 73 238.685 73.2V74.22C238.685 74.74 238.545 75.16 238.265 75.48C237.985 75.8 237.615 75.96 237.155 75.96H235.295V106.92C235.295 107.22 235.185 107.48 234.965 107.7C234.765 107.9 234.515 108 234.215 108H232.355C232.055 108 231.795 107.9 231.575 107.7C231.375 107.48 231.275 107.22 231.275 106.92V75.96H229.415C228.955 75.96 228.585 75.8 228.305 75.48C228.025 75.16 227.885 74.74 227.885 74.22V73.2C227.885 73 227.945 72.85 228.065 72.75C228.185 72.65 228.335 72.6 228.515 72.6H238.055ZM258.145 72.6C258.665 72.6 259.085 72.74 259.405 73.02C259.725 73.3 259.885 73.67 259.885 74.13V88.53H263.365V74.13C263.365 73.67 263.525 73.3 263.845 73.02C264.165 72.74 264.585 72.6 265.105 72.6H266.785C266.985 72.6 267.135 72.66 267.235 72.78C267.335 72.9 267.385 73.05 267.385 73.23V107.37C267.385 107.55 267.335 107.7 267.235 107.82C267.135 107.94 266.985 108 266.785 108H265.105C264.525 108 264.085 107.84 263.785 107.52C263.505 107.18 263.365 106.75 263.365 106.23V91.89H259.885V106.23C259.885 106.75 259.735 107.18 259.435 107.52C259.155 107.84 258.725 108 258.145 108H256.465C256.265 108 256.115 107.94 256.015 107.82C255.915 107.7 255.865 107.55 255.865 107.37V73.23C255.865 73.05 255.915 72.9 256.015 72.78C256.115 72.66 256.265 72.6 256.465 72.6H258.145ZM316.951 106.92C316.951 107.22 316.841 107.48 316.621 107.7C316.421 107.9 316.171 108 315.871 108H314.011C313.711 108 313.451 107.9 313.231 107.7C313.031 107.48 312.931 107.22 312.931 106.92V93.75L309.871 73.23C309.831 73.05 309.871 72.9 309.991 72.78C310.111 72.66 310.271 72.6 310.471 72.6H312.151C312.731 72.6 313.151 72.77 313.411 73.11C313.691 73.43 313.851 73.85 313.891 74.37L314.941 87.09L316.021 74.37C316.061 73.85 316.211 73.43 316.471 73.11C316.751 72.77 317.181 72.6 317.761 72.6H319.441C319.641 72.6 319.801 72.66 319.921 72.78C320.041 72.9 320.081 73.05 320.041 73.23L316.951 93.75V106.92ZM335.998 77.28C335.998 75.68 336.498 74.42 337.498 73.5C338.518 72.58 339.938 72.12 341.758 72.12C342.618 72.12 343.398 72.24 344.098 72.48C344.818 72.72 345.428 73.07 345.928 73.53C346.448 73.97 346.838 74.51 347.098 75.15C347.378 75.77 347.518 76.48 347.518 77.28V103.32C347.518 104.92 347.008 106.18 345.988 107.1C344.988 108.02 343.578 108.48 341.758 108.48C340.878 108.48 340.088 108.36 339.388 108.12C338.688 107.88 338.078 107.54 337.558 107.1C337.058 106.64 336.668 106.1 336.388 105.48C336.128 104.84 335.998 104.12 335.998 103.32V77.28ZM343.498 77.28C343.498 76.74 343.358 76.31 343.078 75.99C342.798 75.65 342.358 75.48 341.758 75.48C341.178 75.48 340.738 75.65 340.438 75.99C340.158 76.31 340.018 76.74 340.018 77.28V103.32C340.018 103.86 340.158 104.3 340.438 104.64C340.718 104.96 341.158 105.12 341.758 105.12C342.338 105.12 342.768 104.96 343.048 104.64C343.348 104.3 343.498 103.86 343.498 103.32V77.28ZM377.061 103.32C377.061 104.92 376.551 106.18 375.531 107.1C374.531 108.02 373.121 108.48 371.301 108.48C370.421 108.48 369.631 108.36 368.931 108.12C368.231 107.88 367.621 107.54 367.101 107.1C366.601 106.64 366.211 106.1 365.931 105.48C365.671 104.84 365.541 104.12 365.541 103.32V73.23C365.541 73.05 365.591 72.9 365.691 72.78C365.791 72.66 365.941 72.6 366.141 72.6H367.821C368.341 72.6 368.761 72.74 369.081 73.02C369.401 73.3 369.561 73.67 369.561 74.13V103.32C369.561 103.86 369.701 104.3 369.981 104.64C370.261 104.96 370.701 105.12 371.301 105.12C371.881 105.12 372.311 104.96 372.591 104.64C372.891 104.3 373.041 103.86 373.041 103.32V74.13C373.041 73.67 373.201 73.3 373.521 73.02C373.841 72.74 374.261 72.6 374.781 72.6H376.461C376.661 72.6 376.811 72.66 376.911 72.78C377.011 72.9 377.061 73.05 377.061 73.23V103.32Z" fill="white"/>
</svg>
