<svg width="57" height="58" viewBox="0 0 57 58" fill="none" xmlns="http://www.w3.org/2000/svg">
<path d="M28.4999 0C12.7854 0 0 13.0097 0 28.9999C0 44.9902 12.7854 57.9999 28.4999 57.9999C44.2145 57.9999 56.9999 44.9902 56.9999 28.9999C56.9999 13.0097 44.2146 0 28.4999 0ZM28.4999 55.4782C14.1508 55.4782 2.47822 43.6008 2.47822 28.9999C2.47822 14.3991 14.1508 2.5217 28.4999 2.5217C42.8491 2.5217 54.5217 14.3991 54.5217 28.9999C54.5217 43.6008 42.8491 55.4782 28.4999 55.4782Z" fill="white"/>
<path d="M28.4998 27.7391C19.6177 27.7391 12.3911 35.0925 12.3911 44.1305C12.3911 44.8265 12.9463 45.3914 13.6303 45.3914C14.3143 45.3914 14.8694 44.8264 14.8694 44.1304C14.8694 36.4819 20.9833 30.2608 28.4998 30.2608C36.0164 30.2608 42.1302 36.4819 42.1302 44.1304C42.1302 44.8264 42.6854 45.3913 43.3694 45.3913C44.0534 45.3913 44.6086 44.8264 44.6086 44.1304C44.6086 35.0925 37.382 27.7391 28.4998 27.7391Z" fill="white"/>
<path d="M28.4999 7.56522C23.7169 7.56522 19.8259 11.5243 19.8259 16.3913C19.8259 21.2584 23.7168 25.2175 28.4999 25.2175C33.283 25.2175 37.1738 21.2582 37.1738 16.3913C37.1738 11.5244 33.283 7.56522 28.4999 7.56522ZM28.4999 22.6956C25.0849 22.6956 22.3043 19.8663 22.3043 16.3913C22.3043 12.9164 25.0849 10.087 28.4999 10.087C31.9149 10.087 34.6955 12.9164 34.6955 16.3913C34.6955 19.8663 31.915 22.6956 28.4999 22.6956Z" fill="white"/>
</svg>
