<svg width="30" height="30" viewBox="0 0 30 30" fill="none" xmlns="http://www.w3.org/2000/svg">
<path d="M15 0C6.72915 0 0 6.72915 0 15C0 23.2708 6.72915 29.9999 15 29.9999C23.2708 29.9999 29.9999 23.2708 29.9999 15C29.9999 6.72915 23.2709 0 15 0ZM15 28.6956C7.4478 28.6956 1.30433 22.5521 1.30433 15C1.30433 7.4478 7.4478 1.30433 15 1.30433C22.5521 1.30433 28.6956 7.4478 28.6956 15C28.6956 22.5521 22.5521 28.6956 15 28.6956Z" fill="white"/>
<path d="M15 14.3478C10.3252 14.3478 6.52173 18.1513 6.52173 22.8261C6.52173 23.1861 6.81392 23.4783 7.17392 23.4783C7.53392 23.4783 7.82612 23.1861 7.82612 22.8261C7.82612 18.87 11.0439 15.6522 15 15.6522C18.9561 15.6522 22.1739 18.87 22.1739 22.8261C22.1739 23.1861 22.4661 23.4782 22.8261 23.4782C23.1861 23.4782 23.4783 23.1861 23.4783 22.8261C23.4783 18.1513 19.6748 14.3478 15 14.3478Z" fill="white"/>
<path d="M15 3.91302C12.4827 3.91302 10.4348 5.96083 10.4348 8.47826C10.4348 10.9957 12.4826 13.0435 15 13.0435C17.5175 13.0435 19.5653 10.9956 19.5653 8.47826C19.5653 5.96089 17.5175 3.91302 15 3.91302ZM15 11.7391C13.2027 11.7391 11.7392 10.2756 11.7392 8.47826C11.7392 6.68089 13.2027 5.21741 15 5.21741C16.7974 5.21741 18.2609 6.68089 18.2609 8.47826C18.2609 10.2756 16.7975 11.7391 15 11.7391Z" fill="white"/>
</svg>
