<svg width="58" height="65" viewBox="0 0 58 65" fill="none" xmlns="http://www.w3.org/2000/svg">
<path d="M24.4694 62.9979C35.204 63.1627 40.5025 53.5922 41.8099 48.7864C45.3196 39.724 52.1314 39.1061 54.4022 38.6942C56.2188 38.3646 56.1225 36.6345 55.8473 35.8107C52.8746 30.0437 47.5899 31.2795 45.7319 32.9272L41.8097 36.6345C41.328 37.1151 39.9518 37.9115 38.3003 37.2524C36.6488 36.5933 36.5112 34.3689 36.6488 33.3391L38.7132 10.2711C38.782 8.9667 38.259 6.31663 35.6166 6.15186C32.9743 5.98709 31.9008 8.00554 31.6944 9.03536L29.8365 28.19L31.6944 5.9459C31.7632 4.77877 31.1989 2.36212 28.3914 2.03258C25.5839 1.70303 24.4691 3.95491 24.2627 5.12203L22.1984 29.4258C22.1296 30.0437 21.6203 31.2794 20.134 31.2794C18.6477 31.2794 18.0009 30.0437 17.8632 29.4258L13.5281 10.0652C13.1152 8.6921 11.5876 6.15188 8.7801 6.97573C5.97258 7.79959 5.8212 10.4771 6.09644 11.7129L11.2573 32.5153L8.36723 21.5992C8.02329 20.5693 6.71611 18.7157 4.23889 19.5395C1.76167 20.3634 1.83048 22.629 2.17454 23.6588L4.23889 30.4556C5.68393 34.3689 6.30313 40.5478 6.0967 44.2552C5.93155 47.2211 6.57838 49.8849 6.92244 50.846C8.29867 54.828 13.7348 62.8331 24.4694 62.9979Z" stroke="#FFC42E" stroke-width="3"/>
</svg>
