<svg width="1440" height="1024" viewBox="0 0 1440 1024" fill="none" xmlns="http://www.w3.org/2000/svg">
<g clip-path="url(#clip0)">
<rect width="1440" height="1024" fill="#141648"/>
<g clip-path="url(#clip1)">
<path d="M918.397 -2.91107C915.32 -111.696 929.778 -235.493 996.761 -324.883C1063.74 -414.272 1181.8 -469.318 1292.17 -458.688C1402.28 -448.653 1502.99 -373.602 1572.29 -293.779C1641.6 -213.956 1679.51 -129.363 1685.9 -51.3933C1692.3 26.576 1666.91 97.3251 1659.43 179.366C1651.95 261.406 1662.71 353.876 1626.36 428.823C1590.6 503.503 1507.48 560.064 1447.6 520.373C1387.11 480.947 1350.13 345.864 1272.46 291.966C1195.65 238.396 1078.15 266.011 1009.82 232.963C940.899 200.181 920.88 106.141 918.397 -2.91107Z" fill="#FF0066"/>
<path d="M1342.99 765.321C1321.05 752.122 1311.34 724.075 1304.48 698.922C1297.65 673.558 1293.81 651.005 1301.86 631.562C1309.91 612.119 1329.96 595.913 1349.15 595.798C1368.43 595.811 1386.94 612.043 1412.84 629.795C1438.78 647.335 1472.31 666.438 1476.76 690.986C1481.34 715.449 1457.15 745.526 1428.1 761.305C1398.83 777.041 1364.8 778.605 1342.99 765.321Z" fill="#FF0066"/>
</g>
<g clip-path="url(#clip2)">
<path d="M179.939 1318.87C113.757 1278.24 76.5648 1170.71 14.6896 1112.63C-47.4957 1054.14 -134.054 1045.52 -162.479 1006.52C-190.904 967.524 -161.507 897.725 -149.772 811.969C-138.347 725.796 -144.173 623.358 -99.0402 591.015C-53.9073 558.672 42.1844 596.424 98.6901 650.735C155.918 705.156 173.045 777.167 213.737 810.26C254.327 844.077 318.378 839.698 384.344 874.016C450.62 908.75 518.811 982.181 527.593 1061.06C536.788 1139.63 485.852 1223.54 413.521 1278.74C340.879 1333.53 245.708 1359.81 179.939 1318.87Z" fill="#FF0066"/>
</g>
<path d="M148.149 440.535C168.267 456.369 174.402 485.409 178.072 511.221C181.676 537.238 182.679 560.095 172.262 578.381C161.845 596.668 139.939 610.246 120.882 607.965C101.756 605.546 85.4102 587.131 61.9307 566.286C38.3851 545.646 7.50171 522.508 6.1429 497.597C4.64915 472.753 32.4073 445.929 63.2017 433.899C94.1999 421.939 128.166 424.634 148.149 440.535Z" fill="#FF0066"/>
<path d="M1000.03 490.351L1000.01 490.351L1000 490.351C981.412 490.239 961.209 476.746 941.595 453.894C922.305 431.42 905.088 401.619 892.335 372.813L892.331 372.802L892.326 372.792C866.561 315.011 859.532 264.198 878.83 219.988L878.839 219.967L878.848 219.945C898.181 174.988 944.806 135.846 999.793 130.316C1027.32 127.548 1057.28 133.154 1083.22 145.224C1109.22 157.317 1130.43 175.534 1141.39 197.317L1141.4 197.345L1141.42 197.373C1152.51 219.021 1154.16 245.31 1148.77 274.708C1143.39 304.096 1131.1 335.879 1115.2 367.821C1099.29 399.784 1080.25 430.971 1059.89 453.981C1039.2 477.353 1018.72 490.52 1000.03 490.351Z" stroke="#53FAFA" stroke-width="17"/>
<path d="M630.67 891.131L630.673 891.11C634.125 869.957 635.937 847.558 634.002 828.294C632.037 808.726 626.4 794.249 616.791 786.566C607.009 778.861 591.207 776.516 569.225 776.686C560.166 776.756 550.532 777.23 540.322 777.733C538.415 777.826 536.487 777.921 534.54 778.015C522.263 778.603 509.313 779.125 496.217 778.894L496.198 778.893L496.179 778.893C483.139 778.603 470.085 777.547 457.495 776.464C456.218 776.354 454.946 776.244 453.679 776.135C442.374 775.156 431.504 774.216 421.051 773.792C397.611 772.841 377.991 774.614 362.857 783.22L362.839 783.23L362.82 783.241C347.792 791.688 335.919 807.638 327.97 828.29C320.052 848.86 316.332 873.361 317.095 897.647L630.67 891.131ZM630.67 891.131L630.666 891.153M630.67 891.131L630.666 891.153M630.666 891.153C624.048 933.069 611.101 968.132 587.376 1003.72M630.666 891.153L587.376 1003.72M587.376 1003.72C575.32 1021.75 560.585 1039.78 543.912 1053.99M587.376 1003.72L543.912 1053.99M543.912 1053.99C527.211 1068.22 508.99 1078.27 489.899 1081.13M543.912 1053.99L489.899 1081.13M489.899 1081.13C451.418 1086.89 405.101 1064.1 371.433 1028.24M489.899 1081.13L371.433 1028.24M371.433 1028.24C338.378 992.785 318.614 945.816 317.095 897.648L371.433 1028.24Z" stroke="#53FAFA" stroke-width="17"/>
</g>
<defs>
<clipPath id="clip0">
<rect width="1440" height="1024" fill="white"/>
</clipPath>
<clipPath id="clip1">
<rect width="1305.62" height="1302.4" fill="white" transform="translate(996.899 1007.05) rotate(-114.137)"/>
</clipPath>
<clipPath id="clip2">
<rect width="1028.06" height="1037.78" fill="white" transform="translate(865.467 1024.1) rotate(143.303)"/>
</clipPath>
</defs>
</svg>
