<svg width="644" height="626" viewBox="0 0 644 626" fill="none" xmlns="http://www.w3.org/2000/svg">
<path d="M630.67 493.131L630.674 493.11C634.125 471.957 635.937 449.558 634.003 430.294C632.038 410.726 626.4 396.249 616.792 388.566C607.009 380.861 591.208 378.516 569.225 378.686C560.166 378.756 550.533 379.23 540.322 379.733C538.415 379.826 536.487 379.921 534.54 380.015C522.263 380.603 509.313 381.125 496.217 380.894L496.198 380.893L496.179 380.893C483.139 380.603 470.086 379.547 457.495 378.464C456.218 378.354 454.946 378.244 453.68 378.135C442.374 377.156 431.504 376.216 421.052 375.792C397.611 374.841 377.991 376.614 362.857 385.22L362.839 385.23L362.821 385.241C347.792 393.688 335.919 409.638 327.97 430.29C320.052 450.86 316.333 475.361 317.095 499.647L630.67 493.131ZM630.67 493.131L630.667 493.153M630.67 493.131L630.667 493.153M630.667 493.153C624.048 535.071 611.1 570.135 587.373 605.726M630.667 493.153L587.373 605.726M587.373 605.726C575.317 623.754 560.583 641.779 543.912 655.987C527.211 670.221 508.991 680.269 489.899 683.127C451.416 688.889 405.097 666.097 371.429 630.231C338.376 594.78 318.614 547.813 317.095 499.648L587.373 605.726Z" stroke="#53FAFA" stroke-width="17"/>
<path d="M148.149 42.5355C168.267 58.3691 174.402 87.4088 178.072 113.221C181.676 139.238 182.679 162.095 172.262 180.381C161.845 198.668 139.939 212.246 120.882 209.965C101.756 207.546 85.4103 189.131 61.9307 168.286C38.3851 147.646 7.50171 124.508 6.1429 99.5967C4.64915 74.753 32.4073 47.9295 63.2017 35.8993C94.1999 23.9386 128.166 26.634 148.149 42.5355Z" fill="#FF0066"/>
<path d="M179.939 920.87C113.757 880.242 76.5648 772.707 14.6896 714.631C-47.4957 656.14 -134.054 647.523 -162.479 608.524C-190.904 569.524 -161.507 499.725 -149.772 413.969C-138.347 327.796 -144.173 225.359 -99.0402 193.015C-53.9073 160.672 42.1844 198.424 98.6901 252.735C155.918 307.156 173.045 379.167 213.737 412.26C254.327 446.077 318.378 441.698 384.344 476.016C450.62 510.75 518.811 584.181 527.593 663.059C536.788 741.63 485.852 825.54 413.521 880.742C340.879 935.529 245.708 961.806 179.939 920.87Z" fill="#FF0066"/>
</svg>
