<svg width="866" height="832" viewBox="0 0 866 832" fill="none" xmlns="http://www.w3.org/2000/svg">
<g clip-path="url(#clip0)">
<path d="M179.939 1126.87C113.757 1086.24 76.5648 978.707 14.6896 920.631C-47.4957 862.14 -134.054 853.523 -162.479 814.524C-190.904 775.524 -161.507 705.725 -149.772 619.969C-138.347 533.796 -144.173 431.359 -99.0402 399.015C-53.9073 366.672 42.1844 404.424 98.6901 458.735C155.918 513.156 173.045 585.167 213.737 618.26C254.327 652.077 318.378 647.698 384.344 682.016C450.62 716.75 518.811 790.181 527.593 869.059C536.788 947.63 485.852 1031.54 413.521 1086.74C340.879 1141.53 245.708 1167.81 179.939 1126.87Z" fill="#D13C74"/>
</g>
<g clip-path="url(#clip1)">
<path d="M148.149 248.536C168.267 264.369 174.402 293.409 178.072 319.221C181.676 345.238 182.679 368.095 172.262 386.381C161.845 404.668 139.939 418.246 120.882 415.965C101.756 413.546 85.4103 395.131 61.9307 374.286C38.3851 353.646 7.50171 330.508 6.1429 305.597C4.64915 280.753 32.4073 253.93 63.2017 241.899C94.1999 229.939 128.166 232.634 148.149 248.536Z" fill="#D13C74"/>
</g>
<path d="M630.67 699.131L630.673 699.11C634.125 677.957 635.937 655.558 634.002 636.294C632.037 616.726 626.4 602.249 616.791 594.566C607.009 586.861 591.207 584.516 569.225 584.686C560.166 584.756 550.532 585.23 540.322 585.733C538.415 585.826 536.487 585.921 534.54 586.015C522.263 586.603 509.313 587.125 496.217 586.894L496.198 586.893L496.179 586.893C483.139 586.603 470.085 585.547 457.495 584.464C456.218 584.354 454.946 584.244 453.679 584.135C442.374 583.156 431.504 582.216 421.051 581.792C397.611 580.841 377.991 582.614 362.857 591.22L362.839 591.23L362.82 591.241C347.792 599.688 335.919 615.638 327.97 636.29C320.052 656.86 316.332 681.361 317.095 705.647L630.67 699.131ZM630.67 699.131L630.666 699.153M630.67 699.131L630.666 699.153M630.666 699.153C624.048 741.071 611.1 776.135 587.373 811.727M630.666 699.153L587.373 811.727M587.373 811.727C575.317 829.754 560.583 847.779 543.912 861.987C527.211 876.221 508.99 886.269 489.899 889.127C451.416 894.889 405.097 872.097 371.428 836.231C338.376 800.78 318.614 753.813 317.095 705.648L587.373 811.727Z" stroke="#48DBDB" stroke-width="17"/>
<defs>
<clipPath id="clip0">
<rect width="1028.06" height="1037.78" fill="white" transform="translate(865.467 832.095) rotate(143.303)"/>
</clipPath>
<clipPath id="clip1">
<rect width="302" height="307" fill="white" transform="translate(-88 268.538) rotate(-26.6668)"/>
</clipPath>
</defs>
</svg>
