<svg width="977" height="1008" viewBox="0 0 977 1008" fill="none" xmlns="http://www.w3.org/2000/svg">
<g clip-path="url(#clip0)">
<path d="M455.397 -2.91107C452.32 -111.696 466.778 -235.493 533.761 -324.883C600.744 -414.272 718.796 -469.318 829.17 -458.688C939.278 -448.653 1039.99 -373.602 1109.29 -293.779C1178.6 -213.956 1216.51 -129.363 1222.9 -51.3933C1229.3 26.576 1203.91 97.3251 1196.43 179.366C1188.95 261.406 1199.71 353.876 1163.36 428.823C1127.6 503.503 1044.48 560.064 984.596 520.373C924.114 480.947 887.131 345.864 809.46 291.966C732.649 238.396 615.15 266.011 546.822 232.963C477.899 200.181 457.881 106.141 455.397 -2.91107Z" fill="#D13C74"/>
<g clip-path="url(#clip1)">
<path d="M879.987 765.321C858.05 752.122 848.339 724.075 841.477 698.922C834.654 673.558 830.807 651.005 838.861 631.562C846.915 612.119 866.955 595.913 886.148 595.798C905.426 595.811 923.942 612.043 949.839 629.795C975.776 647.335 1009.31 666.438 1013.76 690.986C1018.34 715.449 994.15 745.526 965.098 761.305C935.835 777.041 901.798 778.605 879.987 765.321Z" fill="#D13C74"/>
</g>
</g>
<g clip-path="url(#clip2)">
<path d="M537.025 490.351L537.012 490.351L537 490.351C518.412 490.239 498.209 476.746 478.595 453.894C459.305 431.42 442.088 401.619 429.335 372.813L429.331 372.802L429.326 372.792C403.561 315.011 396.532 264.198 415.83 219.988L415.839 219.967L415.848 219.945C435.181 174.988 481.806 135.846 536.793 130.316C564.321 127.548 594.282 133.154 620.225 145.224C646.218 157.317 667.431 175.534 678.39 197.317L678.404 197.345L678.418 197.373C689.509 219.021 691.16 245.31 685.774 274.708C680.39 304.096 668.096 335.879 652.2 367.821C636.293 399.784 617.255 430.971 596.89 453.981C576.204 477.353 555.724 490.52 537.025 490.351Z" stroke="#48DBDB" stroke-width="17"/>
</g>
<defs>
<clipPath id="clip0">
<rect width="1305.62" height="1302.4" fill="white" transform="translate(533.9 1007.05) rotate(-114.137)"/>
</clipPath>
<clipPath id="clip1">
<rect width="302" height="307" fill="white" transform="translate(1111.79 716.007) rotate(146.165)"/>
</clipPath>
<clipPath id="clip2">
<rect width="463.789" height="464.934" fill="white" transform="translate(886.286 187.945) rotate(118.935)"/>
</clipPath>
</defs>
</svg>
