<svg width="1129" height="1299" viewBox="0 0 1129 1299" fill="none" xmlns="http://www.w3.org/2000/svg">
<g clip-path="url(#clip0)">
<path d="M586.299 50.4814C638.745 -52.8472 715.228 -161.3 823.348 -210.855C931.468 -260.409 1069.89 -251.865 1167.74 -185.788C1265.64 -120.404 1321.68 1.0202 1345.91 110.938C1370.15 220.856 1362.59 319.268 1328.92 395.456C1295.25 471.645 1235.52 524.918 1186.8 597.859C1138.08 670.8 1101.11 762.77 1029 814.393C957.571 866.07 851.051 876.708 815.215 809.121C778.687 741.481 812.79 596.31 767.543 506.389C722.934 417.214 598.975 383.29 551.864 317.626C504.062 251.908 533.162 153.757 586.299 50.4814Z" fill="#D13C74"/>
<path d="M592.785 985.059C578.977 961.555 584.156 930.379 590.529 903.361C597.046 876.164 604.917 853.11 622.339 839.018C639.761 824.925 666.75 819.957 684.762 829.611C702.789 839.428 711.855 864.028 727.053 893.804C742.395 923.403 764.045 958.325 755.73 983.555C747.576 1008.77 709.647 1024.6 674.445 1024.59C639.068 1024.42 606.433 1008.58 592.785 985.059Z" fill="#D13C74"/>
</g>
<g clip-path="url(#clip1)">
<path d="M569.289 78.3L569.291 78.295C621.71 -24.9793 698.063 -133.175 805.866 -182.585C913.686 -232.002 1051.74 -223.469 1149.28 -157.598L1149.28 -157.595C1246.87 -92.4175 1302.82 28.7103 1327.04 138.514C1351.24 248.276 1343.67 346.462 1310.11 422.413C1293.32 460.389 1270.04 492.675 1244.82 524.617C1238.59 532.508 1232.24 540.381 1225.84 548.313C1206.36 572.467 1186.43 597.178 1168.07 624.665C1155.87 642.929 1144.41 662.378 1132.97 682.063C1131.59 684.441 1130.21 686.822 1128.82 689.205C1118.75 706.56 1108.62 724.011 1097.93 740.947C1073.61 779.473 1046.42 815.242 1010.52 840.941L1010.51 840.944C974.947 866.675 930.657 882.175 890.844 882.842C851.035 883.509 815.881 869.362 798.199 836.014L798.195 836.007C789.156 819.269 784.456 797.668 781.814 773.183C779.449 751.269 778.741 727.134 778.009 702.219C777.924 699.303 777.838 696.376 777.749 693.441C776.054 637.5 773.278 578.495 750.538 533.303C728.1 488.448 685.738 457.547 643.291 429.716C637.599 425.983 631.906 422.308 626.259 418.661C610.815 408.687 595.707 398.931 581.856 388.835C562.946 375.051 546.464 360.693 534.778 344.404L534.774 344.398C511.088 311.835 506.401 271.176 514.316 225.67C522.232 180.155 542.738 129.904 569.289 78.3Z" stroke="#48DBDB" stroke-width="2"/>
<path d="M575.751 1011.92L575.748 1011.91C568.972 1000.38 566.827 986.915 567.19 972.915C567.552 958.913 570.42 944.448 573.602 930.954C580.122 903.748 587.937 881.013 605.069 867.156C613.636 860.227 624.574 855.529 635.589 853.758C646.609 851.986 657.624 853.156 666.389 857.853C675.155 862.628 681.813 871.035 688.204 882.085C692.269 889.113 696.178 897.119 700.444 905.856C702.9 910.884 705.473 916.155 708.263 921.62L708.266 921.626C710.161 925.283 712.148 929.012 714.159 932.788C720.319 944.35 726.712 956.35 731.436 968.054C737.711 983.597 740.921 998.345 736.881 1010.6L736.88 1010.61C732.922 1022.85 721.681 1032.94 706.901 1039.99C692.144 1047.03 674.011 1050.95 656.548 1050.95C621.406 1050.79 589.167 1035.04 575.751 1011.92Z" stroke="#48DBDB" stroke-width="2"/>
</g>
<defs>
<clipPath id="clip0">
<rect width="1390.17" height="1386.74" fill="white" transform="translate(146.103 1035.17) rotate(-85.6063)"/>
</clipPath>
<clipPath id="clip1">
<rect width="1390.17" height="1386.74" fill="white" transform="translate(128.204 1062.53) rotate(-85.6063)"/>
</clipPath>
</defs>
</svg>
