<svg width="684" height="683" viewBox="0 0 684 683" fill="none" xmlns="http://www.w3.org/2000/svg">
<path d="M244.025 490.351L244.012 490.351L244 490.351C225.412 490.239 205.209 476.746 185.595 453.894C166.305 431.42 149.088 401.619 136.335 372.813L136.331 372.802L136.326 372.792C110.561 315.012 103.532 264.198 122.83 219.988L122.839 219.967L122.848 219.946C142.181 174.988 188.806 135.846 243.793 130.316C271.321 127.548 301.282 133.154 327.225 145.224C353.218 157.317 374.431 175.534 385.39 197.318L385.404 197.345L385.418 197.373C396.509 219.021 398.16 245.31 392.774 274.708C387.39 304.096 375.096 335.879 359.2 367.821C343.293 399.784 324.255 430.971 303.89 453.981C283.204 477.353 262.724 490.52 244.025 490.351Z" stroke="#53FAFA" stroke-width="17"/>
<path d="M162.397 -2.91092C159.32 -111.696 173.778 -235.493 240.761 -324.882C307.743 -414.272 425.795 -469.318 536.17 -458.687C646.278 -448.653 746.986 -373.602 816.294 -293.779C885.602 -213.956 923.509 -129.362 929.903 -51.3931C936.298 26.5762 910.914 97.3253 903.434 179.366C895.954 261.406 906.706 353.876 870.358 428.823C834.604 503.503 751.484 560.064 691.596 520.373C631.114 480.947 594.131 345.865 516.459 291.966C439.649 238.397 322.15 266.011 253.821 232.963C184.899 200.181 164.88 106.141 162.397 -2.91092Z" fill="#FF0066"/>
</svg>
