<svg width="41" height="45" viewBox="0 0 41 45" fill="none" xmlns="http://www.w3.org/2000/svg"><path d="M27.6758 17.3001L26.0362 36.7353C25.9629 37.6055 27.2758 37.7243 27.3499 36.8462L28.9896 17.4109C29.0201 17.0482 28.7508 16.7293 28.3881 16.6987C28.025 16.6681 27.7063 16.9373 27.6758 17.3001Z" fill="white"/><path d="M12.6126 16.6986C12.2499 16.7293 11.9806 17.0482 12.0111 17.4109L13.6508 36.8462C13.725 37.7253 15.0378 37.6054 14.9645 36.7353L13.3248 17.3001C13.2943 16.9373 12.9752 16.6682 12.6126 16.6986Z" fill="white"/><path d="M19.8408 17.3555V36.7907C19.8408 37.1548 20.1359 37.4499 20.5 37.4499C20.8641 37.4499 21.1592 37.1548 21.1592 36.7907V17.3555C21.1592 16.9914 20.8641 16.6963 20.5 16.6963C20.1359 16.6963 19.8408 16.9914 19.8408 17.3555Z" fill="white"/><path d="M37.1437 5.09168H26.778V2.77479C26.778 1.24479 25.5332 0 24.0031 0H16.9969C15.4669 0 14.2221 1.24479 14.2221 2.77479V5.09168H3.85641C2.17989 5.09168 0.815918 6.45565 0.815918 8.13217C0.815918 9.80868 2.17989 11.1727 3.85641 11.1727H4.56542L7.03146 40.4019C7.25066 42.9997 9.42278 45 12.0338 45H28.9663C31.5733 45 33.7492 43.0037 33.9687 40.4019L34.3106 36.3495C34.3412 35.9868 34.0719 35.6679 33.7092 35.6373C33.3455 35.6061 33.0275 35.8759 32.9969 36.2387L32.655 40.2911C32.4946 42.1923 30.8743 43.6816 28.9663 43.6816H12.0338C10.1258 43.6816 8.50556 42.1923 8.34516 40.2911L5.88844 11.1727H7.84014C8.20427 11.1727 8.49932 10.8775 8.49932 10.5135C8.49932 10.1494 8.20427 9.8543 7.84014 9.8543C6.39618 9.8543 4.69348 9.8543 3.85641 9.8543C2.90684 9.8543 2.13428 9.08174 2.13428 8.13217C2.13428 7.1826 2.90684 6.41004 3.85641 6.41004H37.1437C38.0933 6.41004 38.8659 7.1826 38.8659 8.13217C38.8659 9.08174 38.0933 9.8543 37.1437 9.8543C36.1198 9.8543 13.1375 9.8543 10.9236 9.8543C10.5595 9.8543 10.2644 10.1494 10.2644 10.5135C10.2644 10.8775 10.5595 11.1727 10.9236 11.1727H35.1117L33.2564 33.1633C33.2258 33.5261 33.4951 33.8449 33.8578 33.8756C33.8767 33.8772 33.8954 33.878 33.914 33.878C34.2529 33.878 34.5411 33.6181 34.5701 33.2742L36.4348 11.1727H37.1438C38.8203 11.1727 40.1843 9.80868 40.1843 8.13217C40.1843 6.45565 38.8202 5.09168 37.1437 5.09168ZM25.4597 5.09168H15.5405V2.77479C15.5405 1.97174 16.1939 1.31836 16.9969 1.31836H24.0031C24.8063 1.31836 25.4596 1.97174 25.4596 2.77479V5.09168H25.4597Z" fill="white"/></svg>
