<svg width="28" height="22" viewBox="0 0 28 22" fill="none" xmlns="http://www.w3.org/2000/svg">
<path d="M27.9199 20.5298L24.7044 14.4433C24.5988 14.2433 24.3511 14.1668 24.151 14.2725C23.951 14.3782 23.8746 14.6259 23.9802 14.8259L27.0916 20.7155H16.1836C16.1707 20.6519 11.4309 11.6577 11.4309 11.6577L12.1354 10.3428L12.8728 11.3099C12.9971 11.4729 13.1859 11.571 13.3907 11.579C13.5949 11.5875 13.7914 11.5039 13.9279 11.351L15.7042 9.36326L19.157 13.4394C19.2859 13.5916 19.4743 13.6799 19.6737 13.6816C19.6756 13.6816 19.6776 13.6816 19.6796 13.6816C19.8768 13.6816 20.0642 13.5968 20.1944 13.4483C20.1958 13.4468 20.1971 13.4452 20.1984 13.4436L22.0807 11.2304L22.8458 12.6787C22.9515 12.8787 23.1992 12.9552 23.3992 12.8495C23.5992 12.7439 23.6756 12.4961 23.57 12.2961L17.513 0.830695C17.3944 0.606367 17.1632 0.466586 16.9095 0.46582H16.9075C16.6545 0.46582 16.4234 0.604125 16.3039 0.82725L12.0037 8.85406L11.7141 9.39476C11.7141 9.39481 11.714 9.39487 11.714 9.39492L10.9696 10.7844L8.75634 6.59498C8.66742 6.4267 8.51512 6.30601 8.33744 6.25586C8.27816 6.23912 8.21609 6.23021 8.15259 6.23005C8.15194 6.23005 8.15128 6.23005 8.15062 6.23005C8.14215 6.23005 8.13378 6.23059 8.12536 6.23092C8.11841 6.23114 8.11141 6.2312 8.10452 6.23163C8.09824 6.23207 8.09205 6.23289 8.08582 6.23349C8.07652 6.23437 8.06723 6.23508 8.05804 6.23634C8.04978 6.23743 8.04163 6.23907 8.03348 6.24049C8.02665 6.2417 8.0197 6.24263 8.01292 6.24405C7.81594 6.2843 7.64444 6.40975 7.54704 6.59153L6.04805 9.38967L3.52685 14.0959C3.52641 14.0967 3.52609 14.0976 3.52565 14.0984L0.0819762 20.5264C-0.0327582 20.7406 -0.0267426 20.993 0.0980543 21.2015C0.222906 21.41 0.442531 21.5345 0.685562 21.5345H27.3144C27.5566 21.5345 27.7758 21.4106 27.9009 21.2032C28.026 20.9958 28.033 20.7441 27.9199 20.5298ZM12.6844 9.31787L16.9067 1.4368L21.6686 10.4508L19.6797 12.7892L16.2294 8.71598C16.1013 8.56476 15.9142 8.4765 15.716 8.47393C15.713 8.47388 15.71 8.47388 15.707 8.47388C15.5121 8.47388 15.3264 8.55684 15.1964 8.70236L13.4256 10.684L12.5604 9.54936L12.6844 9.31787ZM0.909945 20.7153L4.01105 14.9267L5.20663 15.9281C5.33559 16.0361 5.49155 16.0891 5.64665 16.0891C5.83472 16.0891 6.02148 16.0112 6.15727 15.859L7.52855 14.3221L8.41176 15.1984C8.57232 15.3577 8.83165 15.3567 8.99095 15.1962C9.15026 15.0356 9.14922 14.7763 8.98871 14.617L8.00494 13.6409C7.87216 13.5092 7.68939 13.4373 7.50181 13.4426C7.31484 13.4483 7.13617 13.5315 7.0117 13.6712L5.63281 15.2166L4.40617 14.1892L8.14991 7.20091L12.9809 16.3458L11.8146 17.4206L10.7477 16.3621C10.5872 16.2028 10.3279 16.2038 10.1685 16.3644C10.0092 16.5249 10.0103 16.7842 10.1708 16.9435L11.3289 18.0925C11.4625 18.225 11.6367 18.2916 11.8112 18.2916C11.9773 18.2916 12.1436 18.2313 12.2753 18.1099L13.3769 17.0946L15.2897 20.7153H0.909945Z" fill="#FFC42E"/>
</svg>
