<svg width="25" height="25" viewBox="0 0 25 25" fill="none" xmlns="http://www.w3.org/2000/svg">
<g clip-path="url(#clip0)">
<path d="M3.78833 7.60498H14.7432C14.9454 7.60498 15.1094 7.44114 15.1094 7.23877C15.1094 7.03659 14.9454 6.87256 14.7432 6.87256H3.78833C3.58615 6.87256 3.42212 7.03659 3.42212 7.23877C3.42212 7.44114 3.58615 7.60498 3.78833 7.60498Z" fill="#FFC42E"/>
<path d="M3.78833 10.0142H13.7666C13.9688 10.0142 14.1328 9.85013 14.1328 9.64795C14.1328 9.44558 13.9688 9.28174 13.7666 9.28174H3.78833C3.58615 9.28174 3.42212 9.44558 3.42212 9.64795C3.42212 9.85013 3.58615 10.0142 3.78833 10.0142Z" fill="#FFC42E"/>
<path d="M3.78833 12.4229H10.3487C10.5508 12.4229 10.7149 12.259 10.7149 12.0566C10.7149 11.8545 10.5508 11.6904 10.3487 11.6904H3.78833C3.58615 11.6904 3.42212 11.8545 3.42212 12.0566C3.42212 12.259 3.58615 12.4229 3.78833 12.4229Z" fill="#FFC42E"/>
<path d="M3.78833 14.832H10.3487C10.5508 14.832 10.7149 14.668 10.7149 14.4658C10.7149 14.2635 10.5508 14.0996 10.3487 14.0996H3.78833C3.58615 14.0996 3.42212 14.2636 3.42212 14.4658C3.42212 14.668 3.58615 14.832 3.78833 14.832Z" fill="#FFC42E"/>
<path d="M23.6572 4.84619H21.438V3.11928C21.438 2.37885 20.8357 1.7765 20.0953 1.7765H12.7087C12.529 0.849342 11.7054 0.146484 10.7191 0.146484C9.73263 0.146484 8.90923 0.849342 8.72955 1.7765H1.34277C0.602341 1.7765 0 2.37885 0 3.11928V8.54607C0 8.74844 0.164032 8.91228 0.366211 8.91228C0.56839 8.91228 0.732422 8.74844 0.732422 8.54607V3.11928C0.732422 2.78263 1.00613 2.50893 1.34277 2.50893H8.72383C8.72555 2.51884 8.72784 2.52838 8.72974 2.5383C8.73222 2.55127 8.73489 2.56443 8.73756 2.5774C8.74157 2.5959 8.74596 2.61421 8.75053 2.63271C8.75359 2.64492 8.75645 2.65732 8.75969 2.66953C8.76503 2.68917 8.77056 2.70844 8.77647 2.7277C8.77972 2.73857 8.78258 2.74925 8.78601 2.75993C8.79364 2.78378 8.80184 2.80724 8.81023 2.8307C8.81233 2.83661 8.81424 2.84271 8.81653 2.84863C8.82721 2.87781 8.83884 2.90661 8.85086 2.93522C8.85429 2.94323 8.85811 2.95105 8.86173 2.95906C8.8707 2.97947 8.87966 2.99988 8.88939 3.01991C8.89435 3.0302 8.89969 3.0405 8.90484 3.0508C8.91361 3.06816 8.92258 3.08552 8.93173 3.10249C8.93764 3.11356 8.94375 3.12424 8.94985 3.13492C8.95901 3.15113 8.96835 3.16734 8.97789 3.18336C8.98438 3.19405 8.99105 3.20473 8.99773 3.21541C9.00745 3.23124 9.01756 3.24669 9.02786 3.26195C9.03473 3.27244 9.04179 3.28274 9.04884 3.29304C9.05952 3.30849 9.07059 3.32375 9.08165 3.33881C9.0889 3.34854 9.09595 3.35827 9.1032 3.36781C9.11541 3.38364 9.12781 3.39928 9.1404 3.41473C9.14726 3.42312 9.15375 3.43151 9.16061 3.43971C9.17625 3.45821 9.19209 3.47633 9.2083 3.49426C9.21268 3.49903 9.21688 3.50418 9.22127 3.50895C9.24225 3.53184 9.2638 3.55415 9.28574 3.5759C9.28974 3.5799 9.29375 3.58372 9.29775 3.58753C9.31568 3.60508 9.33399 3.62244 9.35268 3.63941C9.36012 3.64628 9.36794 3.65276 9.37557 3.65944C9.39102 3.67317 9.40666 3.68671 9.42249 3.69987C9.43127 3.70712 9.44042 3.71437 9.44939 3.72162C9.46465 3.73363 9.47971 3.74565 9.49535 3.75729C9.50489 3.76453 9.51443 3.77159 9.52415 3.77865C9.5396 3.7899 9.55524 3.80096 9.57108 3.81165C9.58099 3.81851 9.59091 3.82519 9.60102 3.83186C9.61723 3.84254 9.63364 3.85284 9.65004 3.86314C9.65996 3.86925 9.66988 3.87535 9.67979 3.88126C9.69734 3.89175 9.71527 3.90186 9.7332 3.91178C9.74255 3.91693 9.7517 3.92227 9.76086 3.92723C9.78184 3.93829 9.8032 3.94917 9.82456 3.95966C9.83105 3.96271 9.83753 3.96614 9.84402 3.96938C9.87263 3.98293 9.90162 3.99609 9.9308 4.00829C9.93176 4.00867 9.9329 4.00906 9.93385 4.00944C9.9617 4.02107 9.98993 4.03214 10.0183 4.04263C10.0267 4.04568 10.0353 4.04854 10.0439 4.0514C10.0651 4.05884 10.0863 4.06609 10.1078 4.07295C10.1183 4.07619 10.129 4.07925 10.1397 4.08249C10.1595 4.0884 10.1793 4.09393 10.1994 4.09927C10.2108 4.10233 10.2222 4.105 10.2339 4.10786C10.2535 4.11263 10.2732 4.1172 10.293 4.1214C10.3048 4.12407 10.3167 4.12655 10.3287 4.12884C10.3487 4.13265 10.3687 4.13628 10.3889 4.13952C10.4008 4.14143 10.4124 4.14333 10.4244 4.14505C10.4456 4.1481 10.4668 4.15077 10.4881 4.15306C10.4992 4.1544 10.5101 4.15573 10.5211 4.15688C10.5452 4.15916 10.5694 4.16088 10.5936 4.16241C10.6022 4.16279 10.6106 4.16374 10.6192 4.16412C10.6522 4.16565 10.6855 4.1666 10.7191 4.1666C10.7525 4.1666 10.7859 4.16565 10.8191 4.16412C10.8274 4.16355 10.836 4.16279 10.8444 4.16241C10.8686 4.16088 10.8931 4.15916 10.9169 4.15688C10.928 4.15573 10.9388 4.1544 10.9499 4.15306C10.9713 4.15077 10.9926 4.1481 11.0138 4.14505C11.0256 4.14333 11.0374 4.14143 11.0493 4.13952C11.0693 4.13628 11.0895 4.13265 11.1094 4.12884C11.1214 4.12636 11.1332 4.12407 11.145 4.1214C11.1649 4.1172 11.1847 4.11263 11.2043 4.10786C11.2158 4.105 11.2272 4.10233 11.2387 4.09927C11.2587 4.09393 11.2785 4.08821 11.2984 4.08249C11.3091 4.07925 11.3197 4.07619 11.3304 4.07295C11.3518 4.06609 11.3729 4.05884 11.3941 4.0514C11.4027 4.04835 11.4113 4.04568 11.4199 4.04263C11.4483 4.03214 11.4763 4.02107 11.5042 4.00944C11.5053 4.00906 11.5063 4.00867 11.5072 4.00829C11.5366 3.99609 11.5654 3.98293 11.594 3.96938C11.6005 3.96614 11.607 3.96271 11.6135 3.95966C11.6348 3.94917 11.6562 3.93829 11.6772 3.92723C11.6865 3.92227 11.6957 3.91693 11.7048 3.91178C11.7228 3.90186 11.7407 3.89175 11.7582 3.88126C11.7683 3.87535 11.7781 3.86925 11.788 3.86314C11.8046 3.85284 11.821 3.84254 11.8372 3.83186C11.8471 3.82519 11.857 3.81851 11.867 3.81165C11.8828 3.80096 11.8984 3.7899 11.9139 3.77865C11.9236 3.77159 11.9333 3.76453 11.9429 3.75729C11.9583 3.74565 11.9736 3.73363 11.9886 3.72162C11.9978 3.71437 12.0068 3.70712 12.0155 3.69987C12.0316 3.68671 12.047 3.67317 12.0625 3.65944C12.0701 3.65276 12.0779 3.64628 12.0855 3.63941C12.104 3.62244 12.1223 3.60508 12.1403 3.58753C12.1443 3.58372 12.1485 3.5799 12.1525 3.5759C12.1744 3.55415 12.1958 3.53184 12.2168 3.50895C12.2211 3.50418 12.2255 3.49903 12.2299 3.49426C12.2459 3.47633 12.262 3.45821 12.2774 3.43971C12.2843 3.43151 12.291 3.42312 12.2976 3.41473C12.3102 3.39928 12.3228 3.38364 12.3348 3.36781C12.3423 3.35827 12.3493 3.34854 12.3564 3.33881C12.3674 3.32375 12.3785 3.30849 12.3892 3.29304C12.3964 3.28274 12.4033 3.27244 12.4104 3.26195C12.4205 3.24669 12.4306 3.23105 12.4403 3.21541C12.447 3.20492 12.4537 3.19405 12.4601 3.18336C12.4699 3.16734 12.479 3.15113 12.4884 3.13492C12.4943 3.12424 12.5006 3.11356 12.5063 3.10249C12.5156 3.08552 12.5244 3.06816 12.5332 3.0508C12.5383 3.0405 12.5437 3.0302 12.5486 3.01991C12.5584 2.99988 12.5675 2.97947 12.5765 2.95906C12.5799 2.95105 12.5837 2.94323 12.5872 2.93522C12.5992 2.90661 12.6108 2.87781 12.6217 2.84863C12.6238 2.84271 12.6257 2.83661 12.6278 2.8307C12.6362 2.80724 12.6444 2.78378 12.652 2.75993C12.6554 2.74925 12.6583 2.73857 12.6616 2.7277C12.6675 2.70844 12.6732 2.68917 12.6783 2.66953C12.6816 2.65732 12.6844 2.64511 12.6875 2.63271C12.6921 2.61421 12.6965 2.5959 12.7005 2.5774C12.7031 2.56443 12.7058 2.55127 12.7083 2.5383C12.7102 2.52838 12.7125 2.51884 12.7142 2.50893H20.0953C20.4319 2.50893 20.7056 2.78263 20.7056 3.11928V20.4533C20.7056 20.7897 20.4319 21.0636 20.0953 21.0636H1.34277C1.00613 21.0636 0.732422 20.7897 0.732422 20.4533V10.2551C0.732422 10.0527 0.56839 9.88884 0.366211 9.88884C0.164032 9.88884 0 10.0527 0 10.2551V20.4533C0 21.1935 0.602341 21.796 1.34277 21.796H3.56197V23.5229C3.56197 24.2632 4.16431 24.8657 4.90475 24.8657H20.2173C20.4197 24.8657 20.5835 24.7017 20.5835 24.4995C20.5835 24.2971 20.4197 24.1333 20.2173 24.1333H4.90475C4.5681 24.1333 4.2944 23.8594 4.2944 23.5229V21.796H20.0953C20.8357 21.796 21.438 21.1935 21.438 20.4533V5.57861H23.6572C23.9939 5.57861 24.2676 5.85232 24.2676 6.18896V7.48291C24.2676 7.68528 24.4316 7.84912 24.6338 7.84912C24.836 7.84912 25 7.68528 25 7.48291V6.18896C25 5.44853 24.3977 4.84619 23.6572 4.84619ZM10.7191 0.878906C11.4286 0.878906 12.0066 1.44596 12.0127 2.14539V2.14653L12.0129 2.15797C12.0129 2.16961 12.0125 2.18086 12.0121 2.19231C12.0117 2.2028 12.0117 2.21329 12.0111 2.22359C12.0106 2.23484 12.0094 2.2459 12.0087 2.25697C12.0077 2.26746 12.0071 2.27795 12.0062 2.28844C12.005 2.29931 12.0033 2.31018 12.0018 2.32105C12.0005 2.33154 11.9993 2.34184 11.9978 2.35214C11.9961 2.36301 11.994 2.3737 11.9919 2.38457C11.9902 2.39468 11.9884 2.40498 11.9864 2.41508C11.9843 2.42558 11.9816 2.43607 11.9789 2.44656C11.9766 2.45667 11.9745 2.46677 11.9719 2.47669C11.9692 2.4868 11.9661 2.49672 11.9633 2.50683C11.9602 2.51694 11.9576 2.52724 11.9543 2.53735C11.9513 2.54707 11.9476 2.55661 11.9444 2.56634C11.941 2.57645 11.9377 2.58656 11.9339 2.59647C11.9303 2.6062 11.9263 2.61574 11.9225 2.62547C11.9184 2.635 11.9148 2.64473 11.9106 2.65446C11.9064 2.66418 11.9019 2.67372 11.8973 2.68345C11.8931 2.6926 11.8891 2.70195 11.8847 2.71091C11.8799 2.72083 11.8746 2.73037 11.8696 2.7401C11.865 2.74887 11.8608 2.75745 11.8561 2.76585C11.8505 2.77615 11.8444 2.78606 11.8385 2.79617C11.834 2.8038 11.8296 2.81162 11.825 2.81925C11.8183 2.83012 11.8113 2.84061 11.8042 2.8511C11.7998 2.85778 11.7958 2.86446 11.7912 2.87094C11.784 2.88181 11.7762 2.8923 11.7683 2.90279C11.764 2.9089 11.7598 2.915 11.7552 2.9211C11.7468 2.93217 11.738 2.94285 11.7292 2.95353C11.725 2.95887 11.721 2.96421 11.7168 2.96936C11.7075 2.98042 11.6978 2.9911 11.6882 3.00179C11.6842 3.00636 11.6802 3.01113 11.6762 3.01571C11.6653 3.02715 11.6545 3.03841 11.6432 3.04966C11.64 3.05309 11.6367 3.05653 11.6333 3.05996C11.6211 3.07198 11.6083 3.0838 11.5957 3.09544C11.5932 3.09753 11.591 3.10001 11.5885 3.10211C11.5744 3.1147 11.5601 3.12691 11.5454 3.13892C11.544 3.14007 11.5429 3.14121 11.5416 3.14217C11.3178 3.3247 11.0312 3.43437 10.7191 3.43437C10.3401 3.43437 9.99851 3.27244 9.76162 3.01533C9.76105 3.01456 9.76048 3.0138 9.7599 3.01323C9.74655 2.99873 9.73358 2.98405 9.72099 2.96898C9.71985 2.96764 9.7187 2.96612 9.71756 2.96459C9.70573 2.95029 9.69391 2.9356 9.68266 2.92072C9.68094 2.91843 9.67922 2.91595 9.67751 2.91367C9.66682 2.89955 9.65652 2.88525 9.64661 2.87075C9.6447 2.86789 9.64279 2.86484 9.64088 2.86198C9.63135 2.84786 9.622 2.83356 9.61285 2.81906C9.61075 2.81544 9.60865 2.81162 9.60655 2.808C9.59816 2.79408 9.58977 2.77996 9.58176 2.76566C9.57928 2.76089 9.5768 2.75612 9.57432 2.75135C9.56707 2.73781 9.56001 2.72446 9.55315 2.71072C9.55048 2.70519 9.54819 2.69947 9.54552 2.69413C9.53941 2.68078 9.53312 2.66762 9.52721 2.65427C9.52454 2.64797 9.52225 2.64149 9.51958 2.635C9.51424 2.62222 9.5089 2.60944 9.50413 2.59628C9.50146 2.58923 9.49917 2.58198 9.49669 2.57492C9.4923 2.56233 9.48772 2.54993 9.48372 2.53716C9.48124 2.52953 9.47933 2.5219 9.47704 2.51427C9.47342 2.50187 9.4696 2.48928 9.46617 2.4765C9.46407 2.46868 9.46236 2.46067 9.46064 2.45266C9.45759 2.44007 9.45435 2.42767 9.45168 2.41489C9.44996 2.4065 9.44862 2.39792 9.4471 2.38934C9.44481 2.37694 9.44233 2.36473 9.44023 2.35214C9.4389 2.34337 9.43794 2.3344 9.4368 2.32544C9.43508 2.31304 9.43336 2.30083 9.43203 2.28844C9.43108 2.2789 9.4305 2.26936 9.42974 2.26002C9.42879 2.24781 9.42764 2.23579 9.42688 2.22359C9.4265 2.21367 9.4265 2.20375 9.42612 2.19364C9.42574 2.18182 9.42516 2.16999 9.42516 2.15816L9.42554 2.14653C9.42554 2.14596 9.42535 2.14577 9.42535 2.14539C9.43146 1.44596 10.0094 0.878906 10.7191 0.878906Z" fill="#FFC42E"/>
<path d="M24.6337 8.82568C24.4316 8.82568 24.2675 8.98952 24.2675 9.19189V23.5229C24.2675 23.8596 23.9938 24.1333 23.6572 24.1333H21.9263C21.7241 24.1333 21.5601 24.2971 21.5601 24.4995C21.5601 24.7019 21.7241 24.8657 21.9263 24.8657H23.6572C24.3976 24.8657 25 24.2634 25 23.5229V9.19189C25 8.98952 24.8359 8.82568 24.6337 8.82568Z" fill="#FFC42E"/>
</g>
<defs>
<clipPath id="clip0">
<rect width="25" height="25" fill="white"/>
</clipPath>
</defs>
</svg>
