<svg width="29" height="29" viewBox="0 0 29 29" fill="none" xmlns="http://www.w3.org/2000/svg">
<path d="M14.5 0C6.50484 0 0 6.50484 0 14.5C0 22.4951 6.50484 28.9999 14.5 28.9999C22.4951 28.9999 28.9999 22.4951 28.9999 14.5C28.9999 6.50484 22.4952 0 14.5 0ZM14.5 27.7391C7.19954 27.7391 1.26085 21.8004 1.26085 14.5C1.26085 7.19954 7.19954 1.26085 14.5 1.26085C21.8004 1.26085 27.7391 7.19954 27.7391 14.5C27.7391 21.8004 21.8004 27.7391 14.5 27.7391Z" fill="#FFC42E"/>
<path d="M14.5001 13.8696C9.98114 13.8696 6.30444 17.5463 6.30444 22.0652C6.30444 22.4132 6.5869 22.6957 6.9349 22.6957C7.2829 22.6957 7.56535 22.4132 7.56535 22.0652C7.56535 18.241 10.6759 15.1304 14.5001 15.1304C18.3243 15.1304 21.4349 18.241 21.4349 22.0652C21.4349 22.4132 21.7173 22.6956 22.0653 22.6956C22.4133 22.6956 22.6958 22.4132 22.6958 22.0652C22.6958 17.5463 19.0191 13.8696 14.5001 13.8696Z" fill="#FFC42E"/>
<path d="M14.5 3.78261C12.0665 3.78261 10.0869 5.76215 10.0869 8.19567C10.0869 10.6292 12.0665 12.6087 14.5 12.6087C16.9335 12.6087 18.913 10.6291 18.913 8.19567C18.913 5.76221 16.9335 3.78261 14.5 3.78261ZM14.5 11.3478C12.7625 11.3478 11.3478 9.93313 11.3478 8.19567C11.3478 6.45821 12.7625 5.04352 14.5 5.04352C16.2374 5.04352 17.6521 6.45821 17.6521 8.19567C17.6521 9.93313 16.2375 11.3478 14.5 11.3478Z" fill="#FFC42E"/>
</svg>
